<?xml version="1.0" encoding="UTF-8" standalone="no"?>
<!-- Generator: Adobe Illustrator 16.0.0, SVG Export Plug-In . SVG Version: 6.00 Build 0)  -->

<svg
   xmlns:dc="http://purl.org/dc/elements/1.1/"
   xmlns:cc="http://creativecommons.org/ns#"
   xmlns:rdf="http://www.w3.org/1999/02/22-rdf-syntax-ns#"
   xmlns:svg="http://www.w3.org/2000/svg"
   xmlns="http://www.w3.org/2000/svg"
   xmlns:sodipodi="http://sodipodi.sourceforge.net/DTD/sodipodi-0.dtd"
   xmlns:inkscape="http://www.inkscape.org/namespaces/inkscape"
   version="1.1"
   id="_x33_fde56d1-ab17-403b-bcdf-e528731c4853"
   x="0px"
   y="0px"
   width="2178.4443"
   height="500.21249"
   viewBox="5.108 13.75 2178.4442 500.21248"
   enable-background="new 5.108 13.75 21.783 3.555"
   xml:space="preserve"
   inkscape:version="0.91 r13725"
   sodipodi:docname="europapress.svg"><metadata
     id="metadata31"><rdf:RDF><cc:Work
         rdf:about=""><dc:format>image/svg+xml</dc:format><dc:type
           rdf:resource="http://purl.org/dc/dcmitype/StillImage" /><dc:title>logo-europapress</dc:title></cc:Work></rdf:RDF></metadata><defs
     id="defs29" /><sodipodi:namedview
     pagecolor="#ffffff"
     bordercolor="#666666"
     borderopacity="1"
     objecttolerance="10"
     gridtolerance="10"
     guidetolerance="10"
     inkscape:pageopacity="0"
     inkscape:pageshadow="2"
     inkscape:window-width="1920"
     inkscape:window-height="1051"
     id="namedview27"
     showgrid="false"
     inkscape:zoom="0.45254834"
     inkscape:cx="760.85558"
     inkscape:cy="-147.31031"
     inkscape:window-x="-9"
     inkscape:window-y="-9"
     inkscape:window-maximized="1"
     inkscape:current-layer="_x33_fde56d1-ab17-403b-bcdf-e528731c4853"
     showborder="true"
     fit-margin-top="0"
     fit-margin-left="0"
     fit-margin-right="0"
     fit-margin-bottom="0"
     borderlayer="false"
     inkscape:showpageshadow="false" /><title
     id="title3">logo-europapress</title><path
     d="m 124.77576,316.86249 48,8.1 c -5.1,16.2 -15.4,30.3 -29.2,40.2 -14.8,9.6 -32.3,14.5 -50,13.9 -31.7,0 -55.1,-10.4 -70.4,-31.1 -12.5,-18.5 -18.8000004,-40.5 -18.0000004,-62.8 0,-30.2 7.9000004,-53.9 23.7000004,-70.9 15.2,-16.8 37.1,-26.2 59.9,-25.6 24.4,-1.2 47.9,8.7 64.2,26.9 15.7,17.9 23.1,45.3 22.5,82.2 l -120.8,0 c -0.4,12.2 3.8,24.1 11.7,33.4 7.1,7.8 17.2,12.2 27.8,11.9 6.9,0.2 13.6,-2 19,-6.2 5.8,-5.4 9.9,-12.4 11.6,-20 z m 2.8,-48.8 c 0.5,-11.6 -3.3,-22.9 -10.8,-31.8 -13.2,-14 -35.2,-14.6 -49.2,-1.4 -0.7,0.6 -1.4,1.3 -2,2 -7.2,8.7 -10.8,19.9 -10.1,31.2 l 72.1,0 z"
     id="path5"
     inkscape:connector-curvature="0" /><path
     d="m 334.57576,374.76249 0,-27.2 c -6.6,9.7 -15.6,17.6 -26.1,23 -10.5,5.5 -22.3,8.4 -34.2,8.4 -11.5,0.1 -22.8,-2.6 -32.9,-8.2 -9.4,-4.9 -16.8,-12.8 -21.1,-22.6 -4.9,-12.9 -7.1,-26.6 -6.5,-40.3 l 0,-115.2 48.2,0 0,83.7 c -0.7,15.7 0.1,31.5 2.6,47.1 1.6,5.6 5,10.4 9.7,13.7 5.3,3.6 11.5,5.3 17.9,5.1 7.9,0.1 15.6,-2.3 22.1,-6.8 6.2,-4.1 10.8,-9.9 13.4,-16.8 2.4,-6.7 3.6,-23.1 3.6,-49.2 l 0,-76.8 48.1,0 0,182.1 -44.8,0 z"
     id="path7"
     inkscape:connector-curvature="0" /><path
     d="m 475.47576,374.76249 -48.3,0 0,-182.1 44.8,0 0,25.9 c 5.2,-9.4 12.2,-17.6 20.7,-24.2 6.3,-3.9 13.5,-5.9 20.8,-5.8 11.2,0 22.2,3.2 31.7,9.1 l -14.9,42 c -6.6,-4.7 -14.5,-7.5 -22.7,-7.9 -6.2,-0.2 -12.3,1.8 -17.1,5.5 -5.7,5.4 -9.5,12.5 -11,20.2 -2.7,9.7 -4.1,30.1 -4.1,61 l 0,56.3 z"
     id="path9"
     inkscape:connector-curvature="0" /><path
     d="m 554.77576,281.16249 c 0.1,-16.2 4.2,-32.2 11.9,-46.5 7.5,-14.6 19.1,-26.5 33.5,-34.3 14.8,-8 31.5,-12.1 48.4,-11.8 25.4,-0.9 49.9,8.8 67.8,26.9 17.7,18.1 27.2,42.6 26.5,67.8 0.8,25.5 -8.9,50.3 -26.8,68.6 -17.6,18.1 -41.9,27.9 -67.1,27.2 -16.7,0 -33,-3.9 -47.8,-11.3 -14.7,-7.2 -26.9,-18.8 -34.6,-33.3 -8.2,-16.6 -12.3,-34.9 -11.8,-53.3 z m 49.5,2.6 c 0,18.1 4.2,31.9 12.8,41.5 15.2,17.5 41.8,19.3 59.4,4.1 1.4,-1.3 2.7,-2.6 4,-4.1 8.5,-9.6 12.8,-23.5 12.8,-41.8 1,-14.8 -3.6,-29.5 -12.8,-41.2 -15.2,-17.5 -41.8,-19.3 -59.3,-4.1 -1.5,1.3 -2.8,2.6 -4.1,4.1 -8.5,9.5 -12.8,23.4 -12.8,41.5 z"
     id="path11"
     inkscape:connector-curvature="0" /><path
     d="m 779.27576,192.66249 44.9,0 0,26.7 c 6,-9.2 14.1,-16.9 23.6,-22.3 10.2,-5.8 21.6,-8.7 33.2,-8.6 20.7,-0.1 40.5,8.9 53.8,24.9 14.7,16.6 22.20001,39.7 22.20001,69.3 0,30.4 -7.50001,54.1 -22.40001,70.9 -13.3,16.2 -33.1,25.5 -54,25.4 -9.5,0.1 -18.8,-2 -27.3,-6.1 -9.8,-5.3 -18.6,-12.2 -25.9,-20.6 l 0,91.7 -48.1,0 0,-251.3 z m 47.6,87.9 c 0,20.5 4.1,35.6 12.2,45.4 7,9.2 18.1,14.6 29.7,14.6 10.9,0.1 21.3,-4.8 27.9,-13.4 7.4,-9 11.1,-23.7 11.1,-44.2 0,-19.1 -3.8,-33.3 -11.4,-42.5 -6.8,-8.8 -17.4,-14 -28.5,-13.9 -11.3,-0.2 -22.2,4.8 -29.3,13.6 -7.8,9.2 -11.7,22.6 -11.7,40.4 z"
     id="path13"
     inkscape:connector-curvature="0" /><path
     d="m 1031.1758,248.26249 -43.70003,-7.9 c 3.5,-15.6 12.5,-29.4 25.30003,-39.1 12,-8.4 29.9,-12.7 53.5,-12.7 21.6,0 37.5,2.5 48,7.7 9.3,4 17.1,10.7 22.3,19.4 4.2,7.8 6.4,22.2 6.4,43.1 l -0.6,56.3 c -0.3,11.9 0.5,23.7 2.3,35.4 1.9,8.5 4.8,16.7 8.7,24.5 l -47.8,0 c -1.2,-3.2 -2.7,-7.9 -4.6,-14.2 -0.8,-2.8 -1.4,-4.8 -1.8,-5.7 -7.5,7.6 -16.5,13.7 -26.4,18.1 -9.5,4 -19.7,6.1 -30,6.1 -16.3,0.9 -32.2,-4.7 -44.30003,-15.3 -10.7,-9.9 -16.7,-24 -16.3,-38.6 -0.1,-9.7 2.4,-19.2 7.4,-27.5 4.9,-8.1 12.10003,-14.6 20.70003,-18.6 12.2,-5.3 25.1,-9.1 38.3,-11.2 15.9,-2.5 31.6,-6.4 46.9,-11.8 l 0,-4.8 c 0.7,-7.3 -1.8,-14.6 -6.8,-19.8 -4.6,-4 -13.3,-6 -26,-6 -7,-0.4 -14.1,1.4 -20,5.1 -5.4,4.2 -9.5,10.5 -11.5,17.5 z m 64.6,39.1 c -9.7,2.9 -19.4,5.4 -29.4,7.4 -9.1,1.4 -18,4.2 -26.2,8.3 -5.9,3.7 -9.5,10.1 -9.5,17 0,6.6 2.7,12.9 7.5,17.5 5.2,4.9 12.1,7.6 19.2,7.4 9,-0.1 17.8,-3.1 24.9,-8.5 5.5,-3.9 9.6,-9.5 11.4,-16 1.7,-7.8 2.2,-15.6 2,-23.5 l 0,-9.6 z"
     id="path15"
     inkscape:connector-curvature="0" /><path
     d="m 1286.8758,192.66249 44.9,0 0,26.7 c 6,-9.2 14.1,-16.9 23.7,-22.3 10,-5.8 21.4,-8.7 33,-8.6 20.8,-0.1 40.6,8.9 53.9,24.9 14.7,16.6 22.2,39.7 22.2,69.3 0,30.4 -7.5,54.1 -22.4,70.9 -13.3,16.2 -33.1,25.5 -54.1,25.4 -9.4,0.1 -18.8,-2 -27.2,-6.1 -9.8,-5.3 -18.6,-12.2 -25.9,-20.6 l 0,91.7 -48.1,0 0,-251.3 z m 47.6,87.9 c 0,20.5 4.1,35.6 12.2,45.4 7,9.2 18.1,14.6 29.6,14.6 10.9,0.1 21.3,-4.8 28,-13.4 7.4,-9 11.1,-23.7 11.1,-44.2 0,-19.1 -3.8,-33.3 -11.5,-42.5 -6.7,-8.8 -17.3,-14 -28.4,-13.9 -11.3,-0.2 -22.2,4.8 -29.4,13.6 -7.7,9.2 -11.6,22.6 -11.6,40.4 z"
     id="path17"
     inkscape:connector-curvature="0"
     style="fill:#c90000;fill-opacity:1" /><path
     d="m 1548.8758,374.76249 -48,0 0,-182.1 44.7,0 0,25.9 c 5.1,-9.4 12.1,-17.6 20.6,-24.2 6.3,-3.9 13.5,-6 20.9,-5.8 11.1,0 22.2,3.2 31.7,9.1 l -14.9,42 c -6.6,-4.7 -14.6,-7.5 -22.7,-7.9 -6.3,-0.2 -12.2,1.8 -17.1,5.5 -5.8,5.4 -9.6,12.5 -11.1,20.2 -2.7,9.7 -4.1,30.1 -4.1,61 l 0,56.3 z"
     id="path19"
     inkscape:connector-curvature="0"
     style="fill:#c90000;fill-opacity:1" /><path
     d="m 1744.9758,316.86249 48,8.1 c -5.2,16.2 -15.3,30.3 -29.3,40.2 -14.7,9.6 -32.2,14.5 -50,13.9 -31.6,0 -55.1,-10.4 -70.3,-31.1 -12.5,-18.5 -18.8,-40.5 -17.9,-62.8 0,-30.2 7.8,-53.9 23.6,-70.9 15.2,-16.8 37.1,-26.2 59.8,-25.6 24.4,-1.2 47.9,8.7 64.3,26.9 15.6,17.9 23.1,45.3 22.5,82.2 l -120.8,0 c -0.4,12.2 3.7,24.1 11.6,33.4 7.1,7.8 17.3,12.2 27.8,11.9 6.9,0.2 13.6,-2 19,-6.2 5.8,-5.4 10,-12.4 11.7,-20 z m 2.8,-48.8 c 0.5,-11.6 -3.4,-22.9 -10.8,-31.8 -13.2,-14 -35.3,-14.6 -49.2,-1.4 -0.6,0.6 -1.3,1.3 -1.9,2 -7.3,8.7 -10.9,19.9 -10.2,31.2 l 72.1,0 z"
     id="path21"
     inkscape:connector-curvature="0"
     style="fill:#c90000;fill-opacity:1" /><path
     d="m 1817.8758,322.86249 48.3,-7.4 c 1.5,8.4 6,16 12.6,21.3 7.7,5.3 17.1,7.9 26.4,7.3 9.9,0.7 19.6,-1.7 28.2,-6.8 4.1,-3 6.4,-7.8 6.3,-12.9 0.1,-3.4 -1.1,-6.6 -3.4,-9.1 -4.8,-3.3 -10.4,-5.5 -16.1,-6.3 -38.9,-8.5 -63.6,-16.4 -74,-23.5 -13.9,-8.9 -22.1,-24.5 -21.5,-41 -0.2,-15.4 6.6,-30.1 18.7,-39.8 12.4,-10.7 31.8,-16.1 58,-16.1 24.9,0 43.4,4.1 55.6,12.2 12.4,8.6 21.3,21.4 25,36 l -45.4,8.4 c -1.7,-6.5 -5.6,-12.4 -11,-16.3 -7,-4.2 -15.1,-6.2 -23.2,-5.7 -9.5,-0.7 -18.9,1.2 -27.3,5.3 -3.4,2.1 -5.5,5.8 -5.5,9.8 0.1,3.5 1.9,6.8 4.8,8.7 4.3,3.2 19.3,7.7 45,13.6 25.7,5.8 43.6,12.9 53.8,21.4 10.3,9 15.8,22.2 15.1,35.8 -0.1,16.8 -7.8,32.6 -21,43.1 -14,12 -34.6,18.1 -61.9,18.1 -24.8,0 -44.4,-5.1 -58.9,-15.1 -14.4,-9.7 -24.5,-24.3 -28.6,-41 z"
     id="path23"
     inkscape:connector-curvature="0"
     style="fill:#c90000;fill-opacity:1" /><path
     d="m 2013.2758,322.86249 48.3,-7.4 c 1.5,8.4 6,16 12.5,21.3 7.8,5.3 17,7.9 26.5,7.3 9.9,0.7 19.7,-1.7 28.1,-6.8 4.1,-3 6.4,-7.8 6.3,-12.9 0.1,-3.4 -1.1,-6.6 -3.5,-9.1 -4.8,-3.3 -10.3,-5.5 -16,-6.3 -39,-8.5 -63.6,-16.4 -73.9,-23.5 -14,-8.9 -22.2,-24.5 -21.7,-41 -0.2,-15.4 6.7,-30.1 18.8,-39.8 12.5,-10.7 31.7,-16.1 57.9,-16.1 25,0 43.5,4.1 55.6,12.2 12.5,8.6 21.5,21.4 25.1,36 l -45.5,8.4 c -1.6,-6.5 -5.5,-12.4 -11,-16.3 -6.9,-4.2 -15,-6.2 -23.2,-5.7 -9.4,-0.7 -18.8,1.2 -27.2,5.3 -3.4,2.1 -5.5,5.8 -5.5,9.8 0,3.5 1.9,6.8 4.8,8.7 4.3,3.2 19.3,7.7 45,13.6 25.7,5.8 43.7,12.9 53.8,21.4 10.3,9 15.8,22.2 15,35.8 0,16.8 -7.7,32.6 -20.9,43.1 -13.9,12 -34.6,18.1 -61.9,18.1 -24.8,0 -44.4,-5.1 -59,-15.1 -14.2,-9.7 -24.3,-24.3 -28.4,-41 z"
     id="path25"
     inkscape:connector-curvature="0"
     style="fill:#c90000;fill-opacity:1" /></svg>