<?xml version="1.0" encoding="UTF-8" standalone="no"?>
<!-- Generator: Adobe Illustrator 19.0.0, SVG Export Plug-In . SVG Version: 6.00 Build 0)  -->

<svg
   xmlns:dc="http://purl.org/dc/elements/1.1/"
   xmlns:cc="http://creativecommons.org/ns#"
   xmlns:rdf="http://www.w3.org/1999/02/22-rdf-syntax-ns#"
   xmlns:svg="http://www.w3.org/2000/svg"
   xmlns="http://www.w3.org/2000/svg"
   xmlns:sodipodi="http://sodipodi.sourceforge.net/DTD/sodipodi-0.dtd"
   xmlns:inkscape="http://www.inkscape.org/namespaces/inkscape"
   version="1.1"
   id="Capa_1"
   x="0px"
   y="0px"
   viewBox="0 0 429.294 429.294"
   style="enable-background:new 0 0 429.294 429.294;"
   xml:space="preserve"
   inkscape:version="0.91 r13725"
   sodipodi:docname="farmaceuticos.svg"><metadata
     id="metadata4674"><rdf:RDF><cc:Work
         rdf:about=""><dc:format>image/svg+xml</dc:format><dc:type
           rdf:resource="http://purl.org/dc/dcmitype/StillImage" /></cc:Work></rdf:RDF></metadata><defs
     id="defs4672" /><sodipodi:namedview
     pagecolor="#ffffff"
     bordercolor="#666666"
     borderopacity="1"
     objecttolerance="10"
     gridtolerance="10"
     guidetolerance="10"
     inkscape:pageopacity="0"
     inkscape:pageshadow="2"
     inkscape:window-width="1920"
     inkscape:window-height="1051"
     id="namedview4670"
     showgrid="false"
     inkscape:zoom="0.5497398"
     inkscape:cx="214.647"
     inkscape:cy="214.647"
     inkscape:window-x="-9"
     inkscape:window-y="-9"
     inkscape:window-maximized="1"
     inkscape:current-layer="g4630" /><g
     id="g4625"><g
       id="Guides_For_Artboard_32_" /><g
       id="Artwork_31_" /><g
       id="Layer_2_31_"><g
         id="g4630"><path
           style="fill:#ffaaaa;fill-opacity:1"
           d="M289.369,318.437l-67.365-67.365l-93.274,93.274l67.365,67.365l0.043-0.043     c25.866,24.045,66.326,23.494,91.504-1.684s25.729-65.638,1.684-91.503L289.369,318.437z"
           id="path4632" /><path
           style="fill:#f9f9e9;fill-opacity:1"
           d="M154.639,183.706l-0.043,0.043c-25.866-24.045-66.326-23.494-91.504,1.684     c-25.178,25.177-25.729,65.638-1.684,91.504l-0.043,0.043l67.366,67.365l93.274-93.274L154.639,183.706z"
           id="path4634" /><path
           style="fill:#ffaaaa;fill-opacity:1"
           d="M233.199,17.583l-0.043,0.043C207.29-6.419,166.83-5.868,141.652,19.31     s-25.729,65.638-1.684,91.504l-0.043,0.043l67.365,67.365l93.274-93.275L233.199,17.583z"
           id="path4636" /><path
           style="fill:#f9f9e9;fill-opacity:1"
           d="M367.886,152.356l0.044-0.044l-67.366-67.365l-93.274,93.275l67.365,67.366l0.043-0.044     c25.866,24.045,66.326,23.494,91.504-1.684C391.38,218.682,391.931,178.222,367.886,152.356z"
           id="path4638" /></g></g></g><g
     id="g4640" /><g
     id="g4642" /><g
     id="g4644" /><g
     id="g4646" /><g
     id="g4648" /><g
     id="g4650" /><g
     id="g4652" /><g
     id="g4654" /><g
     id="g4656" /><g
     id="g4658" /><g
     id="g4660" /><g
     id="g4662" /><g
     id="g4664" /><g
     id="g4666" /><g
     id="g4668" /></svg>