<?xml version="1.0" encoding="iso-8859-1"?>
<!-- Generator: Adobe Illustrator 19.0.0, SVG Export Plug-In . SVG Version: 6.00 Build 0)  -->
<svg version="1.1" id="Layer_1" xmlns="http://www.w3.org/2000/svg" xmlns:xlink="http://www.w3.org/1999/xlink" x="0px" y="0px"
	 viewBox="0 0 511.988 511.988" style="enable-background:new 0 0 511.988 511.988;" xml:space="preserve">
<g>
	<path style="fill:#DBADA2;" d="M319.805,106.56c0,17.624-14.281,31.905-31.906,31.905c-17.623,0-31.912-14.281-31.912-31.905
		c0-17.625,14.289-31.905,31.912-31.905C305.523,74.655,319.805,88.935,319.805,106.56z"/>
	<polygon style="fill:#DBADA2;" points="255.986,159.996 298.648,136.622 277.32,76.468 89.506,159.996 	"/>
</g>
<path style="fill:#EAC6BB;" d="M282.648,287.993h197.34c17.672,0,32-14.312,32-31.999s-14.328-32-32-32h-197.34l0,0
	c-2.938,0-5.328-2.375-5.328-5.344c0-2.937,2.391-5.312,5.328-5.312h165.34c17.672,0,32-14.344,32-31.999c0-17.688-14.328-32-32-32
	H277.32h-63.997c0,0-67.6,0-69.327,0C64.467,149.339,0,213.807,0,293.336c0,79.467,64.365,143.871,143.809,143.996h-0.07H383.99
	c28.344,0,42.656-14.343,42.656-31.999c0-17.688-14.312-31.999-32-31.999H282.648c-2.938,0-5.328-2.406-5.328-5.344
	s2.391-5.344,5.328-5.344h165.34c17.672,0,32-14.312,32-31.999c0-17.656-14.328-32-32-32h-165.34c-2.938,0-5.328-2.374-5.328-5.312
	C277.32,290.368,279.711,287.993,282.648,287.993z"/>
<path style="fill:#E6E9ED;" d="M309.039,437.333L171.738,295.556L305.07,153.778l3.938-4.438H277.32h-63.997c0,0-67.6,0-69.327,0
	C64.467,149.34,0,213.808,0,293.337c0,79.467,64.365,143.871,143.809,143.996h-0.07L309.039,437.333L309.039,437.333z"/>
<g>
	<path style="fill:#CCD1D9;" d="M20.679,367.71l218.393-218.37h-25.749c0,0-1.641,0-4.414,0L10.601,347.648
		C13.445,354.617,16.82,361.335,20.679,367.71z"/>
	<path style="fill:#CCD1D9;" d="M143.996,149.34c-7.523,0-14.906,0.562-22.109,1.688L1.687,271.213
		C0.578,278.431,0,285.806,0,293.337c0,3.156,0.109,6.312,0.312,9.437L153.746,149.34C148.153,149.34,144.387,149.34,143.996,149.34
		z"/>
	<path style="fill:#CCD1D9;" d="M293.789,437.333h30.172L180.183,293.556L324.398,149.34h-30.156L45.35,398.209
		c5.211,4.906,10.781,9.406,16.671,13.5l17.75-17.75l41.577,41.593c7.312,1.156,14.812,1.75,22.46,1.781h-0.07h9.555l-58.436-58.437
		l27.577-27.592l86.021,86.028h30.171L137.52,336.211l27.577-27.562L293.789,437.333z"/>
</g>
<g>
</g>
<g>
</g>
<g>
</g>
<g>
</g>
<g>
</g>
<g>
</g>
<g>
</g>
<g>
</g>
<g>
</g>
<g>
</g>
<g>
</g>
<g>
</g>
<g>
</g>
<g>
</g>
<g>
</g>
</svg>
