<?xml version="1.0" encoding="utf-8"?>
<!-- Generator: Adobe Illustrator 21.0.0, SVG Export Plug-In . SVG Version: 6.00 Build 0)  -->
<svg version="1.1" id="Capa_1" xmlns="http://www.w3.org/2000/svg" xmlns:xlink="http://www.w3.org/1999/xlink" x="0px" y="0px"
	 viewBox="0 0 475 210" style="enable-background:new 0 0 475 210;" xml:space="preserve">
<style type="text/css">
	.st0{fill:#F77E00;}
	.st1{fill:#F99926;}
	.st2{fill:#FFCA00;}
	.st3{fill:#FFD235;}
	.st4{fill:#FFD028;}
	.st5{fill:#F6AE00;}
	.st6{fill:#EB6D00;}
	.st7{opacity:0.1;fill:url(#SVGID_1_);enable-background:new    ;}
	.st8{opacity:0.1;fill:url(#SVGID_2_);enable-background:new    ;}
	.st9{fill:#767677;}
</style>
<title>integration-tile</title>
<path class="st0" d="M137.1,171.8h-36.3v-127c-0.1-5.6,4.3-10.3,10-10.5c0.1,0,0.1,0,0.2,0h26.1c5.8,0,10.5,4.7,10.5,10.5v0v116.5
	C147.5,167.1,142.8,171.8,137.1,171.8L137.1,171.8L137.1,171.8z"/>
<path class="st1" d="M137.1,35.2h-25.9c-9.3,0-10.5,9.6-10.5,9.6c-0.2-5.6,4.3-10.3,9.9-10.5c0.2,0,0.4,0,0.6,0h25.9
	c5.8,0,10.5,4.7,10.5,10.5v0C147.6,44.8,146,35.2,137.1,35.2z"/>
<path class="st2" d="M64.2,77.8c-5.8,0-10.5,4.7-10.5,10.5v36.6H20.7c-5.8-0.1-10.6,4.6-10.7,10.4v25.8c0,5.9,4.8,10.7,10.7,10.7
	c0,0,0,0,0,0h80v-94H64.2z"/>
<path class="st3" d="M53.7,124.9H20.7c-5.8-0.1-10.6,4.6-10.7,10.4v0.1c0,0,1.4-9.6,10.7-9.6h32.9V124.9z"/>
<path class="st4" d="M64.2,78.8h36.6v-1H64.2c-5.8,0-10.5,4.7-10.5,10.5C53.7,88.3,54.7,78.8,64.2,78.8z"/>
<path class="st5" d="M100.8,171.8H20.6c-5.8,0-10.5-4.7-10.6-10.5c0,0,1.7,9.6,10.6,9.6h80.1L100.8,171.8z"/>
<path class="st6" d="M100.8,170.9h36.3c9.3,0,10.5-9.6,10.5-9.6c0.2,5.6-4.3,10.3-9.9,10.5c-0.2,0-0.4,0-0.6,0h-36.3V170.9z"/>
<linearGradient id="SVGID_1_" gradientUnits="userSpaceOnUse" x1="110.7728" y1="40.7853" x2="139.9251" y2="40.7853" gradientTransform="matrix(1 0 0 1 0 84)">
	<stop  offset="0" style="stop-color:#000000;stop-opacity:0.7"/>
	<stop  offset="1" style="stop-color:#000000;stop-opacity:0"/>
</linearGradient>
<path class="st7" d="M137.1,171.8h-36.3v-94l46.8,47.1v36.5C147.5,167.1,142.8,171.8,137.1,171.8L137.1,171.8L137.1,171.8z"/>
<linearGradient id="SVGID_2_" gradientUnits="userSpaceOnUse" x1="101.9011" y1="40.7687" x2="105.1845" y2="40.7687" gradientTransform="matrix(1 0 0 1 0 84)">
	<stop  offset="0" style="stop-color:#000000;stop-opacity:0.25"/>
	<stop  offset="0.77" style="stop-color:#000000;stop-opacity:0"/>
</linearGradient>
<polygon class="st8" points="106.1,171.8 100.8,171.8 100.8,77.8 105.7,82.8 "/>
<path class="st9" d="M265.7,56.6H235v9.1h21.8C255.7,78.5,245.1,84,235.1,84c-13.2,0.1-24-10.6-24-23.8c0,0,0-0.1,0-0.1l0,0v-0.4
	c-0.2-13.2,10.3-24.1,23.5-24.4c0.2,0,0.3,0,0.5,0c6.1,0,12,2.4,16.4,6.6l6.4-6.6c-6.2-6-14.5-9.2-23.1-9.1
	c-18.5,0.1-33.3,15.2-33.2,33.7s15.2,33.3,33.7,33.2c17.9,0,31-12.3,31-30.4C266.3,60.6,266.2,58.6,265.7,56.6L265.7,56.6
	L265.7,56.6z"/>
<path class="st9" d="M290.9,50.1c-11.7-0.2-21.3,9.2-21.6,20.9l0,0v0.4c-0.1,11.9,9.5,21.6,21.4,21.7c11.9,0.1,21.6-9.5,21.7-21.4
	l0,0C312.5,57.4,301.3,50.1,290.9,50.1L290.9,50.1z M291,58.6c6.2,0,12.1,5,12.1,13.1s-5.8,13-12.1,13c-6.9,0-12.3-5.5-12.3-13.1
	c0-7.6,5.3-13,12.2-13L291,58.6z"/>
<path class="st9" d="M337.8,50.1c-11.7-0.2-21.3,9.2-21.6,20.9l0,0v0.4c-0.1,11.9,9.5,21.6,21.4,21.7c11.9,0.1,21.6-9.5,21.7-21.4
	l0,0C359.4,57.4,348.2,50.1,337.8,50.1L337.8,50.1z M338,58.6c6.2,0,12.1,5,12.1,13.1s-5.8,13-12.1,13c-6.9,0-12.3-5.5-12.3-13.1
	C325.7,63.9,331,58.5,338,58.6L338,58.6z"/>
<path class="st9" d="M383.9,50.1c-11.6,0-20.6,10.1-20.6,21.5c-0.2,11.6,8.9,21.1,20.5,21.5c4.5,0.2,8.9-1.7,11.8-5.2v4.2
	c0,7.4-4.5,11.9-11.3,11.9c-4.9-0.1-9.3-3.1-11-7.6l-8.3,3.4c2.9,6.2,8.8,12.7,19.3,12.7c11.5,0,20.3-7.2,20.3-22.4V51.4h-9v3.7
	C392.6,51.8,388.3,50,383.9,50.1L383.9,50.1z M384.8,58.5c5.7,0,11.5,4.8,11.5,13.1s-5.8,13-11.6,13c-6.2,0-11.9-5-11.9-12.9
	C372.7,63.4,378.7,58.6,384.8,58.5L384.8,58.5L384.8,58.5z"/>
<path class="st9" d="M444.6,50c-10.9,0-20,8.7-20,21.5c-0.4,11.5,8.5,21.1,20,21.5c0.4,0,0.7,0,1.1,0c7.2,0,13.9-3.5,18-9.4l-7.4-5
	c-2.2,3.7-6.2,6-10.5,5.9c-4.5,0.2-8.7-2.4-10.5-6.5l28.8-12l-1.5-3.5C459.7,55.2,452.6,50.2,444.6,50L444.6,50L444.6,50z
	 M444.9,58.3c3.3-0.1,6.4,1.7,8,4.6l-19.3,8C432.8,64.7,438.7,58.3,444.9,58.3C444.9,58.3,444.9,58.3,444.9,58.3z"/>
<path class="st9" d="M410.8,91.8h9.5V28.5h-9.5V91.8z"/>
<path class="st9" d="M206.3,171.5h-6l15.8-41.8h6.1l15.7,41.8h-6l-4-11.4h-17.5L206.3,171.5z M219,136.3l-6.8,18.9H226l-6.8-18.9
	L219,136.3z"/>
<path class="st9" d="M241.6,142.9h5.1v4h0.2c0.9-1.5,2.2-2.7,3.8-3.5c1.6-0.9,3.4-1.4,5.3-1.4c3-0.2,5.9,0.9,8.1,3
	c2,2.4,3,5.4,2.8,8.6v18h-5.4v-17.7c-0.1-4.7-2.5-7-7.1-7c-2.1,0-4.1,0.9-5.4,2.6c-1.4,1.7-2.2,4-2.2,6.2v15.9h-5.4L241.6,142.9z"/>
<path class="st9" d="M283.5,141.9c3.4-0.2,6.8,0.9,9.4,3.2c2.4,2.3,3.6,5.5,3.4,8.7v17.7h-5.1v-4h-0.3c-1.9,3.1-5.2,5-8.9,5
	c-2.9,0.1-5.7-0.9-7.9-2.8c-2.1-1.7-3.2-4.3-3.2-7c-0.1-2.8,1.1-5.4,3.3-7.1c2.6-1.9,5.8-2.8,9-2.6c2.7-0.1,5.4,0.5,7.9,1.7v-1.2
	c0-1.8-0.8-3.6-2.2-4.8c-1.4-1.3-3.3-2-5.2-2c-2.9-0.1-5.6,1.4-7.1,3.8l-4.7-3C274.4,143.8,278.9,141.6,283.5,141.9z M276.6,162.7
	c0,1.4,0.7,2.7,1.8,3.5c1.2,0.9,2.7,1.4,4.2,1.4c2.3,0,4.4-0.9,6-2.5c1.7-1.5,2.7-3.6,2.7-5.9c-2-1.4-4.5-2.1-7-2
	c-1.9-0.1-3.9,0.5-5.5,1.6C277.4,159.6,276.6,161.1,276.6,162.7L276.6,162.7z"/>
<path class="st9" d="M307.5,129.7v41.9h-5.4v-41.8L307.5,129.7z"/>
<path class="st9" d="M339.3,142.9l-17.9,41.2h-5.6l6.6-14.4l-11.8-26.8h5.8l8.5,20.5h0.1l8.3-20.5L339.3,142.9z"/>
<path class="st9" d="M353.9,171.9c-2.1,0.1-4.2-0.7-5.8-2.2c-1.6-1.6-2.5-3.8-2.4-6v-16h-5v-5h5V134h5.4v8.8h7v5h-7V162
	c-0.2,1.4,0.2,2.8,1.1,3.9c0.7,0.6,1.6,1,2.5,1c0.4,0,0.8-0.1,1.2-0.1c0.4-0.1,0.8-0.2,1.1-0.4l1.7,4.8
	C357.2,171.7,355.6,171.9,353.9,171.9z"/>
<path class="st9" d="M370.1,133c0,2.1-1.7,3.8-3.8,3.8c-2.1,0-3.8-1.7-3.8-3.8c0-2.1,1.7-3.8,3.8-3.8c1,0,2,0.4,2.7,1.1
	C369.7,131,370.1,132,370.1,133z M369,142.9v28.7h-5.4v-28.7L369,142.9z"/>
<path class="st9" d="M388.5,172.4c-4,0.1-7.8-1.5-10.6-4.3c-2.8-3-4.3-6.9-4.1-10.9c-0.1-4,1.4-8,4.1-10.9c2.8-2.9,6.6-4.4,10.6-4.3
	c5.5-0.2,10.6,3.1,12.6,8.3l-5,2c-1.2-3.4-4.4-5.5-8-5.4c-2.5,0-4.8,1.1-6.4,3c-3.5,4.3-3.5,10.4,0,14.7c1.6,1.9,3.9,3,6.4,3
	c3.6,0.2,7-2,8.3-5.4l4.8,2c-1,2.5-2.7,4.6-5,6C393.9,171.7,391.2,172.4,388.5,172.4z"/>
<path class="st9" d="M427.5,163.5c0,2.5-1.3,4.9-3.3,6.3c-2.4,1.8-5.3,2.7-8.3,2.6c-2.7,0.1-5.4-0.7-7.6-2.2
	c-2.1-1.4-3.7-3.5-4.6-5.9l4.8-2c0.6,1.6,1.7,3,3.1,4c1.3,0.9,2.8,1.4,4.4,1.4c1.5,0.1,3-0.3,4.3-1.1c1-0.5,1.6-1.5,1.7-2.6
	c0-1.8-1.4-3.2-4.2-4l-5-1.2c-5.5-1.4-8.3-4.1-8.3-8.1c-0.1-2.5,1.1-4.9,3.2-6.3c4.5-2.9,10.2-3.1,14.9-0.5c1.9,1.1,3.5,2.8,4.3,4.8
	l-4.8,2c-0.6-1.2-1.5-2.2-2.7-2.8c-1.3-0.7-2.7-1-4.1-1c-1.3,0-2.6,0.3-3.8,1c-1,0.5-1.6,1.5-1.7,2.6c0,1.6,1.5,2.8,4.6,3.5l4.3,1.1
	C424.6,156.3,427.5,159.2,427.5,163.5z"/>
</svg>
