<?xml version="1.0" encoding="UTF-8" standalone="no"?>
<svg
   xmlns:dc="http://purl.org/dc/elements/1.1/"
   xmlns:cc="http://creativecommons.org/ns#"
   xmlns:rdf="http://www.w3.org/1999/02/22-rdf-syntax-ns#"
   xmlns:svg="http://www.w3.org/2000/svg"
   xmlns="http://www.w3.org/2000/svg"
   xmlns:sodipodi="http://sodipodi.sourceforge.net/DTD/sodipodi-0.dtd"
   xmlns:inkscape="http://www.inkscape.org/namespaces/inkscape"
   xml:space="preserve"
   enable-background="new 0 0 765 359"
   viewBox="0 0 765 359"
   height="359px"
   width="765px"
   y="0px"
   x="0px"
   id="Layer_1"
   version="1.0"
   inkscape:version="0.91 r13725"
   sodipodi:docname="google-adwords.svg"><title
     id="title4151">Google Adwords</title><sodipodi:namedview
     pagecolor="#ffffff"
     bordercolor="#666666"
     borderopacity="1"
     objecttolerance="10"
     gridtolerance="10"
     guidetolerance="10"
     inkscape:pageopacity="0"
     inkscape:pageshadow="2"
     inkscape:window-width="1218"
     inkscape:window-height="522"
     id="namedview23"
     showgrid="false"
     inkscape:zoom="0.8060093"
     inkscape:cx="431.7696"
     inkscape:cy="178.7503"
     inkscape:window-x="404"
     inkscape:window-y="449"
     inkscape:window-maximized="0"
     inkscape:current-layer="Layer_1" /><metadata
     id="metadata43"><rdf:RDF><cc:Work
         rdf:about=""><dc:format>image/svg+xml</dc:format><dc:type
           rdf:resource="http://purl.org/dc/dcmitype/StillImage" /><dc:title>Google Adwords</dc:title></cc:Work></rdf:RDF></metadata><defs
     id="defs41" /><path
     style="fill:#4285f4"
     id="path3"
     d="m 195.1,56.9 c -0.4,0 -0.8,-0.1 -1.2,-0.1 -26.8,0 -53.7,0 -80.5,0 -1.1,0 -1.5,0.4 -1.8,1.4 -21.6,64.9 -68.1,204.6 -68.1,204.6 -0.1,0.2 -9.3,27.4 -13.7,40.8 -0.1,0.2 -0.5,0.6 0,0.9 l 0,0 0,0 0,0 0,0 c 0.3,0 41.5,0 61.9,0 2.5,0 5,-0.3 7.4,-1.1 9.7,-3.1 16.2,-9.4 19.2,-19.3 l 0,0 c 0.1,-0.1 32.3,-94.9 34.6,-101.4 0.2,-0.7 41.3,-119.6 41.2,-121.1 0.3,-1.1 1.3,-4.2 1,-4.7 z" /><g
     transform="translate(0,-18)"
     id="g5"><path
       style="fill:#34a853"
       id="path7"
       d="M 276.9,321.5 C 269.4,298.7 197.8,81.5 195.6,75.1 l 0,0 c 0,-0.3 -0.3,-0.3 -0.5,-0.2 -0.1,0.4 -14.1,43 -14.1,43 -0.1,0.1 -26.1,76.4 -27.6,80.8 1.1,3.2 28.1,83.6 31.6,94 1.3,3.9 4.2,12.5 4.4,12.9 4.4,9.2 11.5,14.8 21.6,16.6 1.7,0.3 3.4,0.3 5.1,0.3 19.7,0 60,0 60.4,-0.1 1.3,0 0.4,-0.7 0.4,-0.9 z M 157.4,202.7 c 0,0 -0.1,0 0,0 -0.1,0 0,0 0,0 l 0,0 z m 15.2,-21.5 0,0 0,0 0,0 z m 39.2,20.7 0,0 0,0 0,0 z" /></g><g
     transform="translate(0,-18)"
     id="g9"><path
       style="fill:#4285f4"
       id="path11"
       d="m 388.2,128.1 -54.7,0 0,16.1 38.9,0 c -1.9,22.5 -20.6,32.2 -38.4,32.2 -22.7,0 -42.4,-17.8 -42.4,-42.8 0,-24.4 18.9,-43.1 42.5,-43.1 18.2,0 29,11.6 29,11.6 l 11.2,-11.6 c 0,0 -14.4,-16.1 -40.8,-16.1 -33.6,0 -59.5,28.3 -59.5,59 0,30 24.4,59.2 60.4,59.2 31.6,0 54.8,-21.7 54.8,-53.7 -0.1,-6.9 -1,-10.8 -1,-10.8 l 0,0 z" /><path
       style="fill:#ea4335"
       id="path13"
       d="m 434.5,116.5 c -22.3,0 -38.2,17.4 -38.2,37.7 0,20.6 15.5,38.3 38.5,38.3 20.8,0 37.9,-15.9 37.9,-37.9 -0.2,-25.1 -20,-38.1 -38.2,-38.1 l 0,0 z m 0.1,14.9 c 10.9,0 21.3,8.8 21.3,23.1 0,14 -10.3,23 -21.4,23 -12.1,0 -21.7,-9.7 -21.7,-23.2 0.1,-13.1 9.6,-22.9 21.8,-22.9 l 0,0 z" /><path
       style="fill:#fbbc05"
       id="path15"
       d="m 517,116.5 c -22.3,0 -38.2,17.4 -38.2,37.7 0,20.6 15.5,38.3 38.5,38.3 20.8,0 37.9,-15.9 37.9,-37.9 -0.1,-25.1 -19.9,-38.1 -38.2,-38.1 l 0,0 z m 0.2,14.9 c 10.9,0 21.3,8.8 21.3,23.1 0,14 -10.3,23 -21.4,23 -12.1,0 -21.7,-9.7 -21.7,-23.2 0.1,-13.1 9.5,-22.9 21.8,-22.9 l 0,0 z" /><path
       style="fill:#4285f4"
       id="path17"
       d="m 598.5,116.5 c -20.4,0 -36.4,17.9 -36.4,37.9 0,22.9 18.6,38 36.1,38 10.8,0 16.6,-4.3 20.8,-9.2 l 0,7.5 c 0,13.1 -8,21 -20,21 -11.6,0 -17.4,-8.6 -19.5,-13.5 l -14.6,6.1 c 5.2,11 15.6,22.4 34.1,22.4 20.3,0 35.8,-12.8 35.8,-39.6 l 0,-69.3 -15.9,0 0,7.4 c -4.9,-5.3 -11.5,-8.7 -20.4,-8.7 l 0,0 z m 1.4,14.9 c 10,0 20.3,8.6 20.3,23.1 0,14.8 -10.3,23 -20.5,23 -10.9,0 -21,-8.8 -21,-22.9 0,-14.5 10.5,-23.2 21.2,-23.2 l 0,0 z" /><path
       style="fill:#ea4335"
       id="path19"
       d="m 704.3,116.4 c -19.3,0 -35.5,15.3 -35.5,37.9 0,23.9 18,38.1 37.3,38.1 16.1,0 25.9,-8.8 31.8,-16.7 L 724.8,167 c -3.4,5.3 -9.1,10.4 -18.6,10.4 -10.7,0 -15.6,-5.9 -18.6,-11.5 l 50.9,-21.2 -2.6,-6.2 c -5,-12 -16.5,-22.1 -31.6,-22.1 l 0,0 z m 0.6,14.6 c 6.9,0 11.9,3.7 14,8.1 l -34,14.2 c -1.4,-11 9,-22.3 20,-22.3 l 0,0 z" /><rect
       style="fill:#34a853"
       id="rect21"
       height="111.9"
       width="15.6"
       y="78.300003"
       x="645.5" /></g><g
     transform="translate(0,-18)"
     id="g23"><path
       style="fill:#707070"
       id="path25"
       d="m 410.8,319.9 c 0.2,0.5 0.3,0.9 0.3,1.3 0,0.3 -0.1,0.6 -0.4,0.8 -0.2,0.2 -0.6,0.3 -1,0.3 -0.5,0.1 -1.1,0.1 -1.8,0.1 -0.7,0 -1.3,0 -1.7,-0.1 -0.4,-0.1 -0.8,-0.1 -1,-0.2 -0.2,-0.1 -0.4,-0.2 -0.5,-0.4 -0.1,-0.2 -0.2,-0.4 -0.3,-0.6 l -6.4,-17.9 -29.5,0 -6.2,17.8 c -0.1,0.2 -0.2,0.5 -0.3,0.6 -0.1,0.2 -0.3,0.3 -0.6,0.4 -0.2,0.1 -0.6,0.2 -1,0.3 -0.4,0.1 -1,0.1 -1.6,0.1 -0.7,0 -1.3,0 -1.8,-0.1 -0.5,-0.1 -0.8,-0.2 -1.1,-0.4 -0.2,-0.2 -0.3,-0.4 -0.4,-0.7 0,-0.3 0.1,-0.7 0.3,-1.2 l 23.5,-63.9 c 0.1,-0.3 0.3,-0.5 0.5,-0.7 0.2,-0.2 0.5,-0.3 0.8,-0.4 0.3,-0.1 0.7,-0.2 1.2,-0.2 0.5,-0.1 1,-0.1 1.6,-0.1 0.6,0 1.2,0 1.6,0.1 0.5,0.1 0.9,0.1 1.2,0.2 0.3,0.1 0.6,0.3 0.8,0.4 0.2,0.2 0.3,0.4 0.4,0.7 l 23.4,63.8 z m -27.8,-58.2 0,0 -12.7,36.1 25.7,0 -13,-36.1 z" /><path
       style="fill:#707070"
       id="path27"
       d="m 459.8,321 c 0,0.2 0,0.5 -0.1,0.6 -0.1,0.2 -0.2,0.3 -0.5,0.4 -0.2,0.1 -0.5,0.2 -0.9,0.2 -0.3,0.1 -0.8,0.1 -1.3,0.1 -0.6,0 -1,0 -1.4,-0.1 -0.4,-0.1 -0.7,-0.1 -0.9,-0.2 -0.2,-0.1 -0.4,-0.2 -0.5,-0.4 -0.1,-0.2 -0.2,-0.4 -0.2,-0.6 l 0,-6.7 c -2.5,2.7 -5.1,4.8 -7.7,6.4 -2.7,1.5 -5.6,2.3 -8.7,2.3 -3.4,0 -6.3,-0.7 -8.7,-2 -2.4,-1.3 -4.3,-3.1 -5.8,-5.3 -1.5,-2.2 -2.6,-4.9 -3.3,-7.9 -0.7,-3 -1,-6.2 -1,-9.6 0,-4 0.4,-7.6 1.3,-10.8 0.9,-3.2 2.1,-5.9 3.8,-8.2 1.7,-2.2 3.8,-4 6.3,-5.2 2.5,-1.2 5.4,-1.8 8.7,-1.8 2.8,0 5.4,0.6 7.8,1.9 2.4,1.3 4.7,3.1 7,5.6 l 0,-28.3 c 0,-0.2 0,-0.4 0.1,-0.6 0.1,-0.2 0.3,-0.3 0.5,-0.4 0.2,-0.1 0.6,-0.2 1,-0.3 0.4,-0.1 0.9,-0.1 1.5,-0.1 0.6,0 1.1,0 1.5,0.1 0.4,0.1 0.7,0.2 0.9,0.3 0.2,0.1 0.4,0.2 0.5,0.4 0.1,0.2 0.2,0.4 0.2,0.6 l -0.1,69.6 0,0 z m -6.2,-33.9 c -2.6,-3.1 -5.1,-5.6 -7.5,-7.2 -2.4,-1.7 -4.9,-2.5 -7.6,-2.5 -2.4,0 -4.4,0.6 -6.1,1.7 -1.7,1.1 -3.1,2.6 -4.2,4.5 -1.1,1.9 -1.9,4 -2.3,6.3 -0.5,2.4 -0.7,4.7 -0.7,7.2 0,2.6 0.2,5.1 0.6,7.6 0.4,2.5 1.1,4.6 2.1,6.6 1,1.9 2.3,3.5 4,4.6 1.7,1.2 3.7,1.7 6.2,1.7 1.2,0 2.5,-0.2 3.6,-0.5 1.2,-0.3 2.4,-0.9 3.6,-1.7 1.2,-0.8 2.5,-1.8 3.9,-3.1 1.3,-1.3 2.8,-2.8 4.3,-4.7 l 0,-20.5 0.1,0 z" /><path
       style="fill:#707070"
       id="path29"
       d="m 539.1,320.9 c -0.1,0.3 -0.3,0.5 -0.5,0.7 -0.2,0.2 -0.5,0.3 -0.9,0.4 -0.4,0.1 -0.8,0.2 -1.2,0.2 -0.5,0.1 -1,0.1 -1.6,0.1 -0.6,0 -1.2,0 -1.7,-0.1 -0.5,-0.1 -0.9,-0.1 -1.3,-0.2 -0.4,-0.1 -0.7,-0.3 -0.9,-0.4 -0.2,-0.2 -0.4,-0.4 -0.5,-0.7 l -15.9,-55.2 -0.1,0 -14.5,55.2 c -0.1,0.3 -0.2,0.5 -0.4,0.7 -0.2,0.2 -0.5,0.3 -0.8,0.4 -0.3,0.1 -0.7,0.2 -1.2,0.2 -0.5,0.1 -1,0.1 -1.7,0.1 -0.7,0 -1.3,0 -1.8,-0.1 -0.5,-0.1 -0.9,-0.1 -1.3,-0.2 -0.4,-0.1 -0.7,-0.3 -0.9,-0.4 -0.2,-0.2 -0.4,-0.4 -0.5,-0.7 l -19,-63.9 c -0.2,-0.6 -0.3,-1 -0.3,-1.3 0,-0.3 0.1,-0.6 0.3,-0.7 0.2,-0.2 0.6,-0.3 1,-0.3 0.5,-0.1 1.1,-0.1 1.8,-0.1 0.8,0 1.4,0 1.8,0.1 0.4,0.1 0.8,0.1 1,0.2 0.2,0.1 0.4,0.2 0.5,0.4 0.1,0.2 0.2,0.4 0.2,0.6 l 16.9,58.9 0.1,0 15.5,-58.9 c 0.1,-0.2 0.2,-0.4 0.3,-0.6 0.1,-0.2 0.3,-0.3 0.5,-0.4 0.3,-0.1 0.6,-0.2 1.1,-0.2 0.5,-0.1 1.1,-0.1 1.8,-0.1 0.6,0 1.1,0 1.4,0.1 0.4,0.1 0.7,0.1 0.9,0.2 0.2,0.1 0.4,0.2 0.5,0.4 0.1,0.2 0.2,0.4 0.3,0.6 l 16.9,58.9 0.1,0 16.5,-58.9 c 0.1,-0.2 0.1,-0.4 0.2,-0.6 0.1,-0.2 0.3,-0.3 0.5,-0.4 0.2,-0.1 0.6,-0.2 1,-0.2 0.4,-0.1 1,-0.1 1.7,-0.1 0.8,0 1.4,0 1.8,0.1 0.4,0.1 0.8,0.2 1,0.4 0.2,0.2 0.3,0.4 0.4,0.7 0,0.3 0,0.7 -0.2,1.2 l -18.8,63.9 z" /><path
       style="fill:#707070"
       id="path31"
       d="m 607.7,297 c 0,3.7 -0.5,7.2 -1.5,10.3 -1,3.1 -2.4,5.9 -4.3,8.2 -1.9,2.3 -4.3,4.1 -7.2,5.4 -2.9,1.3 -6.2,1.9 -10,1.9 -3.7,0 -6.9,-0.6 -9.6,-1.7 -2.8,-1.2 -5.1,-2.8 -6.9,-5 -1.9,-2.2 -3.2,-4.8 -4.2,-7.9 -0.9,-3.1 -1.4,-6.6 -1.4,-10.4 0,-3.7 0.5,-7.2 1.4,-10.3 1,-3.1 2.4,-5.9 4.3,-8.2 1.9,-2.3 4.3,-4.1 7.2,-5.4 2.9,-1.3 6.2,-1.9 10.1,-1.9 3.7,0 6.9,0.6 9.6,1.7 2.8,1.1 5,2.8 6.9,5 1.8,2.2 3.2,4.8 4.2,7.9 0.9,3.1 1.4,6.6 1.4,10.4 z m -6.5,0.6 c 0,-2.7 -0.3,-5.2 -0.8,-7.6 -0.5,-2.4 -1.4,-4.6 -2.6,-6.4 -1.2,-1.9 -2.8,-3.3 -4.9,-4.4 -2,-1.1 -4.6,-1.6 -7.6,-1.6 -2.8,0 -5.2,0.5 -7.3,1.5 -2,1 -3.7,2.4 -5,4.2 -1.3,1.8 -2.3,3.9 -2.9,6.3 -0.6,2.4 -0.9,5 -0.9,7.8 0,2.7 0.3,5.3 0.8,7.7 0.5,2.4 1.4,4.6 2.6,6.4 1.2,1.8 2.8,3.3 4.9,4.4 2,1.1 4.6,1.6 7.6,1.6 2.8,0 5.2,-0.5 7.3,-1.5 2,-1 3.7,-2.4 5,-4.2 1.3,-1.8 2.3,-3.9 2.9,-6.3 0.5,-2.4 0.9,-5 0.9,-7.9 z" /><path
       style="fill:#707070"
       id="path33"
       d="m 647.6,276.4 c 0,0.5 0,1 -0.1,1.3 0,0.4 -0.1,0.7 -0.2,0.9 -0.1,0.2 -0.2,0.4 -0.3,0.5 -0.1,0.1 -0.3,0.2 -0.5,0.2 -0.3,0 -0.7,-0.1 -1.1,-0.2 -0.4,-0.2 -0.9,-0.3 -1.5,-0.5 -0.6,-0.2 -1.2,-0.3 -1.8,-0.5 -0.7,-0.2 -1.4,-0.2 -2.2,-0.2 -0.9,0 -1.9,0.2 -2.8,0.6 -0.9,0.4 -1.8,1 -2.8,1.9 -1,0.9 -2,2.1 -3.1,3.5 -1.1,1.5 -2.3,3.2 -3.6,5.3 l 0,31.8 c 0,0.2 -0.1,0.4 -0.2,0.6 -0.1,0.2 -0.3,0.3 -0.5,0.4 -0.2,0.1 -0.5,0.2 -0.9,0.3 -0.4,0.1 -0.9,0.1 -1.5,0.1 -0.6,0 -1.1,0 -1.5,-0.1 -0.4,-0.1 -0.7,-0.2 -1,-0.3 -0.2,-0.1 -0.4,-0.2 -0.5,-0.4 -0.1,-0.2 -0.1,-0.4 -0.1,-0.6 l 0,-47 c 0,-0.2 0,-0.4 0.1,-0.6 0.1,-0.2 0.3,-0.3 0.5,-0.4 0.2,-0.1 0.5,-0.2 0.9,-0.3 0.4,-0.1 0.8,-0.1 1.4,-0.1 0.6,0 1.1,0 1.5,0.1 0.4,0.1 0.7,0.1 0.9,0.3 0.2,0.1 0.4,0.3 0.4,0.4 0.1,0.2 0.1,0.4 0.1,0.6 l 0,7.4 c 1.3,-2 2.6,-3.6 3.7,-4.8 1.1,-1.2 2.2,-2.2 3.3,-2.8 1,-0.7 2.1,-1.1 3,-1.4 1,-0.2 2,-0.4 3,-0.4 0.4,0 1,0 1.6,0.1 0.6,0.1 1.2,0.1 1.9,0.3 0.7,0.1 1.3,0.3 1.8,0.5 0.5,0.2 0.9,0.4 1.1,0.5 0.2,0.2 0.3,0.3 0.4,0.4 0.1,0.1 0.1,0.3 0.2,0.5 0.1,0.2 0.1,0.5 0.1,0.8 0.3,0.4 0.3,0.8 0.3,1.3 z" /><path
       style="fill:#707070"
       id="path35"
       d="m 694.5,321 c 0,0.2 0,0.5 -0.1,0.6 -0.1,0.2 -0.2,0.3 -0.5,0.4 -0.2,0.1 -0.5,0.2 -0.9,0.2 -0.3,0.1 -0.8,0.1 -1.3,0.1 -0.6,0 -1,0 -1.4,-0.1 -0.4,-0.1 -0.7,-0.1 -0.9,-0.2 -0.2,-0.1 -0.4,-0.2 -0.5,-0.4 -0.1,-0.2 -0.2,-0.4 -0.2,-0.6 l 0,-6.7 c -2.5,2.7 -5.1,4.8 -7.7,6.4 -2.7,1.5 -5.6,2.3 -8.7,2.3 -3.4,0 -6.3,-0.7 -8.7,-2 -2.4,-1.3 -4.3,-3.1 -5.8,-5.3 -1.5,-2.2 -2.6,-4.9 -3.3,-7.9 -0.7,-3 -1,-6.2 -1,-9.6 0,-4 0.4,-7.6 1.3,-10.8 0.9,-3.2 2.1,-5.9 3.8,-8.2 1.7,-2.2 3.8,-4 6.3,-5.2 2.5,-1.2 5.4,-1.8 8.7,-1.8 2.8,0 5.4,0.6 7.8,1.9 2.4,1.3 4.7,3.1 7,5.6 l 0,-28.3 c 0,-0.2 0,-0.4 0.1,-0.6 0.1,-0.2 0.3,-0.3 0.5,-0.4 0.2,-0.1 0.6,-0.2 1,-0.3 0.4,-0.1 0.9,-0.1 1.5,-0.1 0.6,0 1.1,0 1.5,0.1 0.4,0.1 0.7,0.2 0.9,0.3 0.2,0.1 0.4,0.2 0.5,0.4 0.1,0.2 0.2,0.4 0.2,0.6 l -0.1,69.6 0,0 z m -6.1,-33.9 c -2.6,-3.1 -5.1,-5.6 -7.5,-7.2 -2.4,-1.7 -4.9,-2.5 -7.6,-2.5 -2.4,0 -4.4,0.6 -6.1,1.7 -1.7,1.1 -3.1,2.6 -4.2,4.5 -1.1,1.9 -1.9,4 -2.3,6.3 -0.5,2.4 -0.7,4.7 -0.7,7.2 0,2.6 0.2,5.1 0.6,7.6 0.4,2.5 1.1,4.6 2.1,6.6 1,1.9 2.3,3.5 4,4.6 1.7,1.2 3.7,1.7 6.2,1.7 1.2,0 2.5,-0.2 3.6,-0.5 1.2,-0.3 2.4,-0.9 3.6,-1.7 1.2,-0.8 2.5,-1.8 3.9,-3.1 1.3,-1.3 2.8,-2.8 4.3,-4.7 l 0,-20.5 0.1,0 z" /><path
       style="fill:#707070"
       id="path37"
       d="m 739.5,308.5 c 0,2.2 -0.4,4.3 -1.2,6 -0.8,1.8 -2,3.3 -3.6,4.5 -1.5,1.2 -3.4,2.2 -5.5,2.9 -2.1,0.7 -4.5,1 -7.1,1 -1.6,0 -3.2,-0.1 -4.6,-0.4 -1.5,-0.3 -2.8,-0.6 -3.9,-1 -1.2,-0.4 -2.2,-0.8 -3,-1.3 -0.8,-0.4 -1.4,-0.8 -1.8,-1.2 -0.4,-0.3 -0.7,-0.8 -0.8,-1.3 -0.2,-0.5 -0.3,-1.2 -0.3,-2.1 0,-0.4 0,-0.8 0.1,-1.2 0.1,-0.3 0.2,-0.6 0.3,-0.9 0.1,-0.2 0.2,-0.4 0.4,-0.5 0.2,-0.1 0.4,-0.2 0.6,-0.2 0.4,0 0.9,0.2 1.7,0.7 0.7,0.5 1.6,1 2.7,1.6 1.1,0.6 2.4,1.1 3.9,1.6 1.5,0.5 3.2,0.7 5.2,0.7 1.6,0 3,-0.2 4.4,-0.5 1.3,-0.3 2.5,-0.9 3.4,-1.6 1,-0.7 1.7,-1.6 2.3,-2.7 0.5,-1.1 0.8,-2.4 0.8,-3.8 0,-1.5 -0.3,-2.7 -1,-3.7 -0.7,-1 -1.6,-1.9 -2.7,-2.6 -1.1,-0.7 -2.4,-1.4 -3.8,-2 -1.4,-0.6 -2.9,-1.2 -4.4,-1.8 -1.5,-0.6 -3,-1.3 -4.4,-2 -1.4,-0.7 -2.7,-1.6 -3.8,-2.6 -1.1,-1 -2,-2.3 -2.7,-3.7 -0.7,-1.5 -1,-3.2 -1,-5.2 0,-1.6 0.3,-3.2 0.9,-4.8 0.6,-1.6 1.6,-3 2.9,-4.2 1.3,-1.2 3,-2.2 5,-3 2,-0.8 4.4,-1.1 7.2,-1.1 1.2,0 2.3,0.1 3.5,0.3 1.2,0.2 2.2,0.4 3.2,0.8 1,0.3 1.8,0.6 2.5,1 0.7,0.4 1.2,0.7 1.6,1 0.4,0.3 0.6,0.5 0.7,0.7 0.1,0.2 0.2,0.4 0.3,0.6 0.1,0.2 0.1,0.5 0.1,0.8 0,0.3 0.1,0.6 0.1,1.1 0,0.4 0,0.8 -0.1,1.1 -0.1,0.3 -0.1,0.6 -0.2,0.9 -0.1,0.2 -0.2,0.4 -0.4,0.5 -0.2,0.1 -0.3,0.2 -0.5,0.2 -0.3,0 -0.7,-0.2 -1.2,-0.6 -0.6,-0.4 -1.3,-0.8 -2.2,-1.2 -0.9,-0.4 -2,-0.9 -3.2,-1.2 -1.2,-0.4 -2.7,-0.6 -4.3,-0.6 -1.6,0 -3.1,0.2 -4.3,0.6 -1.2,0.4 -2.2,0.9 -3,1.6 -0.8,0.7 -1.4,1.5 -1.8,2.4 -0.4,0.9 -0.6,2 -0.6,3.1 0,1.5 0.3,2.8 1,3.8 0.7,1 1.6,1.9 2.8,2.7 1.1,0.8 2.4,1.4 3.9,2 1.5,0.6 2.9,1.2 4.4,1.8 1.5,0.6 3,1.2 4.4,1.9 1.5,0.7 2.8,1.6 3.9,2.6 1.1,1 2.1,2.2 2.8,3.6 0.1,1.3 0.4,2.9 0.4,4.9 z" /></g></svg>