<svg xmlns="http://www.w3.org/2000/svg" xmlns:xlink="http://www.w3.org/1999/xlink" viewBox="0 0 653.79 121.11"><defs><style>.a{fill:none;}.b{clip-path:url(#a);}.c{fill:#fff;}.c,.d,.e{fill-rule:evenodd;}.d{fill:#981230;}.e{fill:#211915;}</style><clipPath id="a"><rect class="a" x="-60.22" y="-50.87" width="822.05" height="1048.82"/></clipPath></defs><title>Granada Hoy</title><g class="b"><path class="c" d="M653.79,23.26L631.1,99.68c-4.84,16.53-12.8,21.42-27.48,21.42a103.09,103.09,0,0,1-19.6-2.18l-0.17-15s11.08,2.32,16.24,2.32c4.53,0,7-1.63,8.12-5.86l1.25-4.63L580.73,23.26h28.1l10.62,50.27,8-50.27h26.38"/><path class="d" d="M516.91,94.89H495V54H476.38V94.89h-22V2.63h22V38.89H495V2.63h22V94.89m68.81-35.48c0,30.26-15.13,36.54-31.23,36.54-16.38,0-31.23-6.55-31.23-36.54,0-29.41,14.85-35.72,31.23-35.72C570.45,23.68,585.72,29.74,585.72,59.41Zm-21.93,0c0-18.53-2.6-21.83-9.3-21.83-6.29,0-9.3,3.7-9.3,21.83,0,17.87,4,21.7,9.3,21.7S563.79,77.93,563.79,59.41Zm85-34.55-20.54,75.23c-4.3,15.84-11.38,18.52-24.43,18.52a134.55,134.55,0,0,1-17-1.2l-0.2-15.23s10.46,1.21,15,1.21c4,0,5.64-.56,6.61-4.61l1.11-4.44L583.8,24.85h25L618.23,73l7.08-48.19h23.46Z"/><path class="e" d="M64.94,91.46s-16.78,4.6-29.46,4.6C21.4,96.06,0,95.17,0,49.93,0,7.22,24,1.46,40.25,1.46c13,0,20.6,4.06,20.6,4.06v16a67.82,67.82,0,0,0-20.73-3.82C30.05,17.69,22,22.82,22,49.93c0,28.15,7.38,29.91,13.8,29.91a46.49,46.49,0,0,0,7.5-.94V54H34.39L32.94,38.89h32V91.46M116.88,43.6a30.64,30.64,0,0,0-9-1.45,14.73,14.73,0,0,0-9.44,3.17V94.89h-22V25.12H94l3,7.18s2.91-8.51,12.34-8.51a18,18,0,0,1,7.5,1.33V43.6ZM172,94.75H153.77l-3.33-5.24a16.91,16.91,0,0,1-13.14,6.55c-8.08,0-20.33-2.23-20.33-22.5,0-20.62,17.27-23,26.28-23H150V45.72c0-3.92-1.56-5.81-7.3-5.81-6.82,0-19.22,3.65-19.22,3.65V27.71s11.84-4,23.78-4c14.12,0,24.67,4,24.67,21.09v50ZM150,80V61l-4.17.13c-5.34.13-7.17,2.52-7.17,11.53,0,7.55,2.08,9.54,5.34,9.54A11.6,11.6,0,0,0,150,80Zm89.45,14.84h-22V46.73c0-4.3-.8-5.64-4.43-5.64-4.56,0-10.46,3.22-10.46,3.22V94.89h-22V25h17.4l4.14,5.37a31.79,31.79,0,0,1,19-6.65c11.88,0,18.23,5.76,18.23,18.34V94.89Zm61-.14H282.26l-3.33-5.24a16.91,16.91,0,0,1-13.14,6.55c-8.08,0-20.33-2.23-20.33-22.5,0-20.62,17.27-23,26.28-23h6.77V45.72c0-3.92-1.56-5.81-7.29-5.81-6.82,0-19.22,3.65-19.22,3.65V27.71s11.84-4,23.78-4c14.12,0,24.66,4,24.66,21.09v50ZM278.51,80V61l-4.17.13c-5.34.13-7.17,2.52-7.17,11.53,0,7.55,2.08,9.54,5.34,9.54A11.6,11.6,0,0,0,278.51,80Zm89.61,14.57H350.59l-2.9-4.8A20.69,20.69,0,0,1,332.55,96c-9.53,0-25.68-2-25.68-36.08,0-33.81,18.92-36.08,27.83-36.08a18.93,18.93,0,0,1,11.47,3.6V0h22V94.62ZM346.17,77V41.75A16.61,16.61,0,0,0,339,39.8c-6.31,0-10.18,2.07-10.18,20.07,0,18.26,3.73,20.07,9.18,20.07A14.8,14.8,0,0,0,346.17,77Zm82.38,17.79H410.36L407,89.51a16.91,16.91,0,0,1-13.14,6.55c-8.08,0-20.33-2.23-20.33-22.5,0-20.62,17.27-23,26.28-23h6.78V45.72c0-3.92-1.56-5.81-7.3-5.81-6.82,0-19.22,3.65-19.22,3.65V27.71s11.84-4,23.78-4c14.12,0,24.67,4,24.67,21.09v50ZM406.62,80V61l-4.17.13c-5.34.13-7.17,2.52-7.17,11.53,0,7.55,2.09,9.54,5.34,9.54A11.6,11.6,0,0,0,406.62,80Z"/></g></svg>