<?xml version="1.0" encoding="iso-8859-1"?>
<!-- Generator: Adobe Illustrator 19.0.0, SVG Export Plug-In . SVG Version: 6.00 Build 0)  -->
<svg version="1.1" id="Layer_1" xmlns="http://www.w3.org/2000/svg" xmlns:xlink="http://www.w3.org/1999/xlink" x="0px" y="0px"
	 viewBox="0 0 512 512" style="enable-background:new 0 0 512 512;" xml:space="preserve">
<path style="fill:#E6E9ED;" d="M458.672,138.656C458.672,62.078,396.578,0,320,0c-23.094,0-44.859,5.641-64,15.625
	C236.844,5.641,215.078,0,192,0C115.422,0,53.328,62.078,53.328,138.656c0,21.047,4.703,40.984,13.078,58.844l41.781,90.5
	c-10,32,6.281,224,73.141,224c21.031,0,54.047-178.484,74.656-178.625C276.594,333.219,309.609,512,330.641,512
	c66.859,0,83.141-192,73.141-224l41.812-90.5C453.969,179.641,458.672,159.703,458.672,138.656z"/>
<g>
	<path style="fill:#CCD1D9;" d="M330.641,490.656c-21.031,0-54.047-178.766-74.656-178.625
		c-20.609,0.156-53.625,178.625-74.656,178.625c-52.031,0-73.438-116.281-75.656-182.938C103.25,366.516,123.125,512,181.328,512
		c21.031,0,54.047-178.484,74.656-178.625C276.594,333.219,309.609,512,330.641,512c58.203,0,78.078-145.484,75.656-204.281
		C404.078,374.375,382.672,490.656,330.641,490.656z"/>
	<path style="fill:#CCD1D9;" d="M87.953,47.016L87.953,47.016c0,0,35.172-10.703,104.047-4.359c22.984,2.125,44.844,5.656,64,15.641
		V15.625C236.844,5.641,215.078,0,192,0C150.547,0,113.359,18.188,87.953,47.016z"/>
	<path style="fill:#CCD1D9;" d="M424.047,47.016L424.047,47.016c0,0-35.172-10.703-104.047-4.359
		c-22.984,2.125-44.859,5.656-64,15.641V15.625C275.141,5.641,296.906,0,320,0C361.453,0,398.641,18.188,424.047,47.016z"/>
</g>
<g>
</g>
<g>
</g>
<g>
</g>
<g>
</g>
<g>
</g>
<g>
</g>
<g>
</g>
<g>
</g>
<g>
</g>
<g>
</g>
<g>
</g>
<g>
</g>
<g>
</g>
<g>
</g>
<g>
</g>
</svg>
