<?xml version="1.0" encoding="UTF-8" standalone="no"?>
<svg
   xmlns:dc="http://purl.org/dc/elements/1.1/"
   xmlns:cc="http://creativecommons.org/ns#"
   xmlns:rdf="http://www.w3.org/1999/02/22-rdf-syntax-ns#"
   xmlns:svg="http://www.w3.org/2000/svg"
   xmlns="http://www.w3.org/2000/svg"
   xmlns:sodipodi="http://sodipodi.sourceforge.net/DTD/sodipodi-0.dtd"
   xmlns:inkscape="http://www.inkscape.org/namespaces/inkscape"
   width="81.449997"
   height="30.752401"
   viewBox="0 0 81.449998 30.752401"
   id="svg2"
   version="1.1"
   inkscape:version="0.91 r13725"
   sodipodi:docname="quote.svg">
  <metadata
     id="metadata12">
    <rdf:RDF>
      <cc:Work
         rdf:about="">
        <dc:format>image/svg+xml</dc:format>
        <dc:type
           rdf:resource="http://purl.org/dc/dcmitype/StillImage" />
        <dc:title></dc:title>
      </cc:Work>
    </rdf:RDF>
  </metadata>
  <defs
     id="defs10" />
  <sodipodi:namedview
     pagecolor="#ffffff"
     bordercolor="#666666"
     borderopacity="1"
     objecttolerance="10"
     gridtolerance="10"
     guidetolerance="10"
     inkscape:pageopacity="0"
     inkscape:pageshadow="2"
     inkscape:window-width="1920"
     inkscape:window-height="1051"
     id="namedview8"
     showgrid="false"
     inkscape:zoom="5.6776899"
     inkscape:cx="26.495135"
     inkscape:cy="34.02573"
     inkscape:window-x="-9"
     inkscape:window-y="-9"
     inkscape:window-maximized="1"
     inkscape:current-layer="svg2"
     fit-margin-top="0"
     fit-margin-left="0"
     fit-margin-right="0"
     fit-margin-bottom="0" />
  <path
     d="M 81.45,0.00240213 C 81,-0.29759787 49.5,27.602402 49.5,27.602402 c -7.35,4.2 -10.05,4.2 -17.55,0 0,0 -31.5,-27.89999987 -31.95,-27.59999987 l 81.45,0 z"
     id="path4"
     style="fill:#294f6c;fill-opacity:1"
     inkscape:connector-curvature="0" />
  <path
     d="m 37.95,6.0024017 c -2.4,0.75 -3.6,2.4 -3.6,4.6500003 1.5,0.45 3,1.65 3,3.6 l 0,0.45 c 0,1.95 -1.35,3.45 -3.6,3.45 -2.25,0 -3.75,-1.8 -3.75,-4.65 l 0,-0.45 C 30,9.4524017 30.9,7.0524017 32.55,5.4024017 33.9,4.0524021 36,3.1524021 37.5,3.1524021 c 1.05,0 1.65,0.6 1.65,1.5 0.15,0.7499996 -0.45,1.1999996 -1.2,1.3499996 z m 12.15,0 c -2.4,0.75 -3.6,2.4 -3.6,4.6500003 1.5,0.45 3,1.65 3,3.6 l 0,0.45 c 0,1.95 -1.35,3.45 -3.6,3.45 -2.25,0 -3.75,-1.8 -3.75,-4.65 l 0,-0.45 c 0,-3.6000003 0.9,-6.0000003 2.55,-7.6500003 1.35,-1.3499996 3.45,-2.2499996 4.95,-2.2499996 1.05,0 1.65,0.6 1.65,1.5 0.15,0.7499996 -0.45,1.1999996 -1.2,1.3499996 z"
     id="path6"
     style="fill:#ffffff;fill-opacity:0.94117647"
     inkscape:connector-curvature="0"
     sodipodi:nodetypes="ccsssssssccccssssssscc" />
</svg>
