<?xml version="1.0" encoding="UTF-8" standalone="no"?>
<!-- Created with Inkscape (http://www.inkscape.org/) -->

<svg
   xmlns:dc="http://purl.org/dc/elements/1.1/"
   xmlns:cc="http://creativecommons.org/ns#"
   xmlns:rdf="http://www.w3.org/1999/02/22-rdf-syntax-ns#"
   xmlns:svg="http://www.w3.org/2000/svg"
   xmlns="http://www.w3.org/2000/svg"
   xmlns:sodipodi="http://sodipodi.sourceforge.net/DTD/sodipodi-0.dtd"
   xmlns:inkscape="http://www.inkscape.org/namespaces/inkscape"
   id="svg5224"
   version="1.1"
   inkscape:version="0.91 r13725"
   xml:space="preserve"
   width="271.08374"
   height="271.08249"
   viewBox="0 0 271.08374 271.08249"
   sodipodi:docname="veterinarios.svg"><metadata
     id="metadata5230"><rdf:RDF><cc:Work
         rdf:about=""><dc:format>image/svg+xml</dc:format><dc:type
           rdf:resource="http://purl.org/dc/dcmitype/StillImage" /><dc:title></dc:title></cc:Work></rdf:RDF></metadata><defs
     id="defs5228" /><sodipodi:namedview
     pagecolor="#ffffff"
     bordercolor="#666666"
     borderopacity="1"
     objecttolerance="10"
     gridtolerance="10"
     guidetolerance="10"
     inkscape:pageopacity="0"
     inkscape:pageshadow="2"
     inkscape:window-width="1920"
     inkscape:window-height="1051"
     id="namedview5226"
     showgrid="false"
     fit-margin-top="0"
     fit-margin-left="0"
     fit-margin-right="0"
     fit-margin-bottom="0"
     inkscape:zoom="1.888"
     inkscape:cx="116.55023"
     inkscape:cy="182.9674"
     inkscape:window-x="-9"
     inkscape:window-y="-9"
     inkscape:window-maximized="1"
     inkscape:current-layer="g5234" /><g
     id="g5232"
     inkscape:groupmode="layer"
     inkscape:label="ink_ext_XXXXXX"
     transform="matrix(1.25,0,0,-1.25,-96.138164,947.75918)"><g
       id="g5234"
       transform="matrix(0.1,0,0,0.1,104.26829,-46.740957)"><path
         d="m 1135.0624,6441.193 c -27.43,80.45 -71.71,229.99 -154.43999,265.8 -82.71,35.81 -130.27,86.03 -138.24,115.05 -6.08,22.17 5.78,89.11 11.71,119.49 2.14,10.94 11.26,18.99 22.38,19.94 18.1,1.56 52.52,0.65 116.96,-10.26 121.32999,-20.56 73.69999,43.93 147.83999,42.28 60.98,-1.36 65.79,98.37 65.58,133.85 -0.03,3.43 4.43,4.72 6.23,1.8 17.37,-28.12 64.02,-105.28 75.56,-141.26 0,0 55.48,-4.86 88.86,-31.59 0,0 141.91,134.16 167.69,125.17 25.78,-9 30.82,-69.79 15.13,-115.6 -15.68,-45.81 -51.42,-145.03 -15.76,-192.72 35.66,-47.68 110.68,-133.84 181.81,-173.02 30.17,-16.62 44.26,-30.17 56.57,-44.94 62.23,1.81 112.15,52.71 112.15,115.37 l 0,589.19 c 0,63.82 -51.74,115.55 -115.55,115.55 l -558.64,0 0,558.64 c 0,63.82 -51.74,115.55 -115.55,115.55 l -589.18999,0 c -63.82,0 -115.55,-51.73 -115.55,-115.55 l 0,-558.64 -558.64,0 c -63.81,0 -115.55,-51.73 -115.55,-115.55 l 0,-589.19 c 0,-63.81 51.74,-115.55 115.55,-115.55 l 66.350001,0 c 29.31,38.59 57.04,82.03 83.3699998,131.53 117.3699992,220.59 148.7999992,163.68 190.2499992,241.04 41.46,77.36 19.52,161.22 76.93,198.64 57.42,37.43 118.25,-172.74 125.26,-117.83 4.75,37.31 55.62,66.31 87.72,81.06 8.51,3.91 17.35,-4.72 13.64,-13.32 -12.95,-30.01 -24.57,-78.84 29.41,-90.74 79.36,-17.5 191.14,-123.35 208.61,-159.8 13.78,-28.77 58.69,-72.18 76.97,-89.18 5.44,-5.05 8.99,-11.86 9.69,-19.25 2.15,-22.34 0.64,-70.17 -45.79,-95.24 -61.91,-33.42 -35.46,-77.86 -109.34,-66.85 -28.45,4.23 -71.67,-14.79 -115.19,-43.32 -87,-57.06 -139.24,-154.32 -139.24,-258.36 l 0,-257.01 c 0,-63.82 51.73,-115.55 115.55,-115.55 l 589.18999,0 c 63.81,0 115.55,51.73 115.55,115.55 l 0,23.34 c 0,115.72 -19.46,230.67 -57.78,339.85 -12.38,35.25 -22.05,64 -28.06,81.63"
         style="fill:#fafaf5;fill-opacity:1;fill-rule:nonzero;stroke:none"
         id="path5300"
         inkscape:connector-curvature="0" /></g></g></svg>