<?xml version="1.0" encoding="UTF-8" standalone="no"?>
<!-- Created with Inkscape (http://www.inkscape.org/) -->

<svg
   xmlns:dc="http://purl.org/dc/elements/1.1/"
   xmlns:cc="http://creativecommons.org/ns#"
   xmlns:rdf="http://www.w3.org/1999/02/22-rdf-syntax-ns#"
   xmlns:svg="http://www.w3.org/2000/svg"
   xmlns="http://www.w3.org/2000/svg"
   xmlns:sodipodi="http://sodipodi.sourceforge.net/DTD/sodipodi-0.dtd"
   xmlns:inkscape="http://www.inkscape.org/namespaces/inkscape"
   id="svg4136"
   version="1.1"
   inkscape:version="0.91 r13725"
   xml:space="preserve"
   width="140"
   height="140"
   viewBox="0 0 140 140"
   sodipodi:docname="veterinarios.svg"><metadata
     id="metadata4142"><rdf:RDF><cc:Work
         rdf:about=""><dc:format>image/svg+xml</dc:format><dc:type
           rdf:resource="http://purl.org/dc/dcmitype/StillImage" /><dc:title></dc:title></cc:Work></rdf:RDF></metadata><defs
     id="defs4140"><clipPath
       clipPathUnits="userSpaceOnUse"
       id="clipPath4514"><path
         d="m 3429.88,1563.24 1139.99,0 0,1140 -1139.99,0 0,-1140 z"
         id="path4516"
         inkscape:connector-curvature="0" /></clipPath></defs><sodipodi:namedview
     pagecolor="#ffffff"
     bordercolor="#666666"
     borderopacity="1"
     objecttolerance="10"
     gridtolerance="10"
     guidetolerance="10"
     inkscape:pageopacity="0"
     inkscape:pageshadow="2"
     inkscape:window-width="1920"
     inkscape:window-height="1051"
     id="namedview4138"
     showgrid="false"
     fit-margin-top="0"
     fit-margin-left="0"
     fit-margin-right="0"
     fit-margin-bottom="0"
     inkscape:zoom="3.432"
     inkscape:cx="130.95762"
     inkscape:cy="69.855366"
     inkscape:window-x="-9"
     inkscape:window-y="-9"
     inkscape:window-maximized="1"
     inkscape:current-layer="g4146" /><g
     id="g4144"
     inkscape:groupmode="layer"
     inkscape:label="ink_ext_XXXXXX"
     transform="matrix(1.25,0,0,-1.25,-46.898325,610.6825)"><g
       id="g4146"
       transform="scale(0.1,0.1)"><path
         d="m 885.434,4807.46 c -45.762,0 -93.219,-38.06 -93.219,-83.82 l 0,-205.32 -190.875,0 c -45.762,0 -79.61,-33.01 -79.61,-78.78 l 0,-230.62 c 0,-45.76 33.848,-82.32 79.61,-82.32 l 190.875,0 0,-201.77 c 0,-45.76 47.457,-87.37 93.219,-87.37 l 111.968,0 0,970 -111.968,0"
         style="fill:#6ca1c2;fill-opacity:1;fill-rule:nonzero;stroke:none"
         id="path4358"
         inkscape:connector-curvature="0" /><path
         d="m 1400.15,4518.32 -197.55,0 0,205.32 c 0,45.76 -40.79,83.82 -86.55,83.82 l -118.648,0 0,-970 118.648,0 c 45.76,0 86.55,41.61 86.55,87.37 l 0,201.77 197.55,0 c 45.76,0 82.25,36.56 82.25,82.32 l 0,230.62 c 0,45.77 -36.49,78.78 -82.25,78.78"
         style="fill:#457a9e;fill-opacity:1;fill-rule:nonzero;stroke:none"
         id="path4360"
         inkscape:connector-curvature="0" /><path
         d="m 548.445,4302.78 c 45.293,77.32 141.172,189.31 253.094,240.5 l 0,-126.09 c 0,0 141.844,-15.75 214.841,-86.32 73.01,-70.57 173.85,-123.32 173.85,-123.32 l -17.39,-121.6 c 0,0 -23.9,-99.09 -158.59,-68.08 -46.312,10.66 -198.285,7.4 -209.727,-20.28 l -5.023,-81.95 c -2.352,-38.44 -34.254,-68.86 -72.766,-68.86 l -271.336,0 c -49.718,0 -84.015,49.08 -68.406,96.28 28.797,87.09 81.352,222.96 161.453,359.72"
         style="fill:#c91f25;fill-opacity:1;fill-rule:nonzero;stroke:none"
         id="path4362"
         inkscape:connector-curvature="0" /></g></g></svg>