<svg xmlns="http://www.w3.org/2000/svg" viewBox="0 0 512 512"><path d="M301.148 1.374H119.057a1.63 1.63 0 0 0-1.629 1.629v114.312c0 .899.73 1.629 1.629 1.629h43.226v39.025c0 4.959 2.363 5.699 3.772 5.699.797 0 3.226 0 8.84-5.967l26.616-30.709c.256-.295.397-.674.397-1.066V39.051h99.24a1.63 1.63 0 0 0 1.629-1.629V3.003a1.63 1.63 0 0 0-1.629-1.629z" fill="#75bf4d"/><path d="M381.283 26.021H190.506a1.63 1.63 0 0 0-1.629 1.629v122.999c0 .899.73 1.629 1.629 1.629h98.314l33.516 37.414c6.65 7.009 9.547 7.009 10.637 7.009 2.458 0 5.084-1.69 5.084-6.43v-37.993h43.227a1.63 1.63 0 0 0 1.629-1.629V27.65a1.631 1.631 0 0 0-1.63-1.629z" fill="#6598cb"/><path d="M132.087 1.374h-13.03a1.63 1.63 0 0 0-1.629 1.629v114.312c0 .899.73 1.629 1.629 1.629h13.03a1.63 1.63 0 0 0 1.629-1.629V3.003a1.63 1.63 0 0 0-1.629-1.629zm30.196 117.57v39.025c0 4.958 2.363 5.699 3.771 5.699h.011c.807 0 3.237-.024 8.83-5.967l3.279-3.783c.256-.296.397-.674.397-1.066v-33.907h-16.288v-.001z" fill="#56a846"/><path d="M183.425 378.354a7.74 7.74 0 0 1 .951-1.31C196.426 358.25 203 335.255 203 311.512c0-59.904-41.299-108.641-92.064-108.641-50.762 0-92.062 48.737-92.062 108.641 0 24.01 6.728 47.251 19.038 66.156.129.182.263.382.395.597.396.604.8 1.203 1.211 1.797 4.606 5.973 10.508 4.593 12.212 4.028.159-.061.321-.117.48-.179h.003c6.082-2.252 12.833-4.147 20.13-5.638l12.75-2.606-9.617-8.769c-7.823-7.132-12.916-16.806-14.334-27.236l-.719-5.27-5.305-.434c-8.728-.709-15.57-8.132-15.57-16.899a16.906 16.906 0 0 1 15.225-16.877l5.843-.599.081-4.648c5.892-1.737 31.865-10.132 50.111-27.999 4.3 5.019 20.42 21.609 50.37 28.09l.075 4.558 5.846.598a16.908 16.908 0 0 1 15.224 16.877c0 8.766-6.842 16.19-15.574 16.899l-5.301.434-.72 5.271c-1.42 10.426-6.507 20.098-14.333 27.23l-9.615 8.771 12.749 2.604c7.619 1.558 14.649 3.558 20.944 5.949 2.315.652 8.549 1.55 12.952-5.863z" fill="#694b4b"/><path d="M135.706 399.114v-24.052l-8.289 2.165a45.186 45.186 0 0 1-11.402 1.463H105.86c-3.874 0-7.737-.502-11.474-1.484l-8.304-2.186v24.076l-24.692 5.911 5.372 19.166 2.227 1.354c3.329 2.028 12.421 7.042 24.815 9.762 5.83 1.277 11.705 1.925 17.465 1.925h.003c14.28 0 28.255-3.942 41.536-11.715l2.31-1.35 5.271-18.816-24.683-6.219z" fill="#fbcb99"/><path d="M101.747 435.288c-12.396-2.72-21.483-7.733-24.817-9.762l-5.283-19.409 20.237-4.878v-23.163l-5.8-3.058v24.076l-24.692 5.911 5.372 19.166 2.227 1.354c3.329 2.028 12.421 7.042 24.815 9.762 5.83 1.277 11.705 1.925 17.465 1.925h.003c1.301 0 2.595-.044 3.893-.109a82.652 82.652 0 0 1-13.42-1.815z" fill="#edba89"/><path d="M143.763 428.324c-10.518 4.767-21.524 7.181-32.716 7.181a79.197 79.197 0 0 1-17.303-1.924 83.965 83.965 0 0 1-15.637-5.175l-9.673-4.294 24.47 86.514h36.067l24.523-86.712-9.731 4.41z" fill="#f5f5f7"/><path fill="#d2d2d7" d="M68.434 424.111l24.471 86.514h7.941l-23.328-82.481z"/><path d="M195.148 418.688c-2.944-1.685-6.279-3.274-9.759-4.753l-1.574-.656c-10.717-4.388-22.495-7.684-28.68-9.288l-29.873 106.632h84.303c9.396 0 11.063-7.391 11.324-10.954v-31.783c-.001-25.982-13.933-41.673-25.741-49.198zM65.756 403.992c-6.186 1.604-17.961 4.9-28.678 9.288l-1.577.656c-3.482 1.479-6.814 3.067-9.759 4.753C13.932 426.213 0 441.904 0 467.889v31.783c.263 3.563 1.927 10.954 11.327 10.954h84.301L65.756 403.992z" fill="#324a5e"/><g fill="#283d4c"><path d="M10.922 499.671v-31.782c0-25.985 13.93-41.676 25.739-49.2 2.948-1.685 6.277-3.274 9.759-4.753l1.578-.656c6.266-2.566 12.89-4.757 18.55-6.454l-.793-2.833c-6.186 1.604-17.961 4.9-28.678 9.288l-1.577.656c-3.482 1.479-6.814 3.067-9.759 4.753C13.932 426.213 0 441.904 0 467.889v31.783c.256 3.512 1.884 10.732 10.922 10.944v-10.945zm174.314 10.954v-43.661a4.963 4.963 0 0 0-9.926 0v43.661h9.926z"/><path d="M45 510.625v-43.661a4.963 4.963 0 0 0-9.926 0v43.661H45z"/></g><path d="M170.515 296.199a8.788 8.788 0 0 0-7.821 1.308 8.787 8.787 0 0 0-3.579 7.076v25.027a8.78 8.78 0 0 0 3.579 7.069 8.779 8.779 0 0 0 7.819 1.312 21.724 21.724 0 0 0 4.913-2.25 8.779 8.779 0 0 0 2.404-2.173 8.802 8.802 0 0 0 2.556-1.989 21.85 21.85 0 0 0 5.505-14.489c.001-9.626-6.177-18.024-15.376-20.891z" fill="#fbcb99"/><path d="M59.088 297.508a8.79 8.79 0 0 0-7.819-1.311c-9.197 2.87-15.379 11.267-15.379 20.893 0 9.638 6.182 18.034 15.379 20.901a8.775 8.775 0 0 0 7.819-1.311 8.765 8.765 0 0 0 3.578-7.071v-25.03a8.764 8.764 0 0 0-3.578-7.071z" fill="#edba89"/><path d="M164.422 296.539s.037-.182.05-.471v-.439c-.054-1.05-.518-2.767-2.697-3.832l-2.376-.569c-22.979-5.52-36.735-16.648-43.251-23.302l-.002-.001c-5.542-5.074-11.287 0-11.287 0v-.001c-15.651 13.616-35.062 20.706-42.828 23.16l-1.04.328-.003.001c-2.647.87-3.4 2.56-3.582 3.763v38.363c0 26.719 21.738 48.457 48.457 48.457h10.155c26.718 0 48.456-21.739 48.456-48.457v-37.042l-.052.042z" fill="#fbcb99"/><path d="M114.298 266.595c-4.899-2.672-9.439 1.33-9.439 1.33v-.001c-15.651 13.616-35.062 20.706-42.828 23.16l-1.04.328-.003.001c-2.647.87-3.4 2.56-3.582 3.763v38.363c0 26.719 21.738 48.457 48.457 48.457h7.944c-26.72 0-48.459-21.739-48.459-48.457v-35.568c0-4.368 3.205-6.28 5.044-7.023.396-.126.811-.261 1.257-.41h.004-.003c8.88-2.955 27.594-10.309 42.438-23.752l.21-.191z" fill="#edba89"/><path d="M38.308 378.265c.396.604.8 1.203 1.211 1.797 4.787 6.213 10.98 4.47 12.394 3.964l.302-.115-.795-1.078c-14.585-19.747-22.616-45.076-22.616-71.321 0-57.939 38.634-105.428 87.097-108.481a79.344 79.344 0 0 0-4.964-.159c-50.762 0-92.062 48.737-92.062 108.641 0 24.01 6.728 47.251 19.038 66.156.129.181.262.38.395.596z" fill="#563b3b"/><path fill="#ef4c35" d="M414.496 453.692l6.578-17.522-20.182-14.853-20.251 14.905 7.321 17.47z"/><path fill="#dd3e2b" d="M387.962 453.692l.383.921-9.034 56.012h43.907l-9.042-56.067.32-.866z"/><path fill="#d2d2d7" d="M384.942 510.625l9.144-56.69-8.834-21.103-28.353-26.958 5.548 40.421 18.019 64.33z"/><path fill="#e4e4ea" d="M422.148 510.625l18.224-65.071 5.554-40.431-29.499 27.629-7.974 21.235 9.136 56.638z"/><path d="M422.566 444.102c5.835 4.294 9.365.473 10.682-1.517l18.59-38.208-23.992-15.836-5.664 10.198-21.101 21.904-20.535-20.002-3.98-13.833-26.619 17.57 18.151 37.308c.502.991 4.184 7.582 11.204 2.424l21.588-15.888 20.573 15.142c.33.197.692.436 1.103.738z" fill="#f5f5f7"/><path d="M403.954 197.67h-5.631c-38.463 0-69.751 31.293-69.751 69.753v32.72s15.881-1.573 17.835-9.275l-.01-.008a8.716 8.716 0 0 0 1.625-2.488c9.009-.274 51.088-.602 75.115-29.622 2.869 8.39 12.571 24.275 31.237 29.278a8.854 8.854 0 0 0 1.654 2.716l-.154.124c1.952 7.702 17.832 9.275 17.832 9.275v-32.72c0-38.459-31.292-69.753-69.752-69.753zm52.589 88.19l.67-.486h.096l-1.092.81.326-.324zm-.341.21l.074-.239.236-.458h.092l-.277.576-.125.121zm-1.851 1.429l-.028-.036 1.722-1.243-.406.392-1.256.929-.032-.042zm1.42-.403l-.539 1.114-.012-.004-.074-.035c-.012-.004-.025-.014-.035-.02l.877-1.744.023-.024-.24.713z" fill="#694b4b"/><path d="M340.869 285.433v-18.009c0-37.346 29.499-67.923 66.418-69.668a68.35 68.35 0 0 0-3.332-.086h-5.631c-38.463 0-69.751 31.293-69.751 69.753v32.72s7.018-.699 12.297-3.425v-11.285z" fill="#563b3b"/><path d="M465.329 290.033a8.774 8.774 0 0 0-7.821 1.307 8.784 8.784 0 0 0-3.577 7.077v25.024a8.774 8.774 0 0 0 3.577 7.071 8.776 8.776 0 0 0 7.819 1.313 21.602 21.602 0 0 0 4.913-2.251 8.733 8.733 0 0 0 2.401-2.172 8.796 8.796 0 0 0 2.56-1.991 21.858 21.858 0 0 0 5.502-14.485c.001-9.631-6.178-18.028-15.374-20.893z" fill="#fbcb99"/><path d="M345.023 291.34a8.786 8.786 0 0 0-7.821-1.311c-9.196 2.869-15.377 11.265-15.377 20.896 0 9.635 6.182 18.032 15.377 20.899a8.79 8.79 0 0 0 7.822-1.312 8.77 8.77 0 0 0 3.579-7.072v-25.028a8.78 8.78 0 0 0-3.58-7.072z" fill="#edba89"/><path d="M425.245 367.067a8.842 8.842 0 0 0-6.45-2.429l-.297.014a8.79 8.79 0 0 0-1.598.203 47.344 47.344 0 0 1-10.266 1.138h-10.733a47.4 47.4 0 0 1-10.574-1.205 8.757 8.757 0 0 0-7.435 1.69 8.786 8.786 0 0 0-3.31 6.87v25.544l-.005.087a8.777 8.777 0 0 0 2.64 6.777l17.647 17.188a8.783 8.783 0 0 0 6.125 2.488h.143a8.77 8.77 0 0 0 6.183-2.69l18.18-18.869a8.77 8.77 0 0 0 2.457-6.09v-24.368a8.79 8.79 0 0 0-2.707-6.348z" fill="#fbcb99"/><path d="M402.769 420.304l-17.648-17.185a8.785 8.785 0 0 1-2.642-6.776l.007-.087V370.71a8.77 8.77 0 0 1 2.387-6.001 8.792 8.792 0 0 0-6.982 1.769 8.786 8.786 0 0 0-3.31 6.87v25.544l-.005.087a8.777 8.777 0 0 0 2.64 6.777l17.647 17.188a8.783 8.783 0 0 0 6.125 2.488h.143a8.77 8.77 0 0 0 6.183-2.69l.078-.083a8.768 8.768 0 0 1-4.623-2.355z" fill="#edba89"/><path d="M452.609 282.864a31.418 31.418 0 0 1-3.044-1.346c-14.756-6.89-20.883-15.842-23.35-21.186a6.065 6.065 0 0 1-.443-.704c-1.762-3.241-4.51-1.189-4.51-1.189l-.014-.008c-13.78 10.569-28.833 16.751-41.345 20.347a129.553 129.553 0 0 1-13.76 3.238c-8.39 1.541-13.782 1.742-13.782 1.742a8.786 8.786 0 0 0-8.152 8.763v35.831c0 28.503 23.188 51.691 51.691 51.691h10.733c28.501 0 51.691-23.188 51.691-51.691v-37.26a8.788 8.788 0 0 0-5.715-8.228z" fill="#fbcb99"/><path d="M354.747 328.354v-35.831a8.784 8.784 0 0 1 8.152-8.763s5.391-.202 13.779-1.742a128.869 128.869 0 0 0 13.766-3.238c11.07-3.185 24.136-8.398 36.551-16.882a29.489 29.489 0 0 1-.78-1.565 6.065 6.065 0 0 1-.443-.704c-1.762-3.241-4.51-1.189-4.51-1.189l-.014-.008c-13.78 10.569-28.833 16.751-41.345 20.347a129.553 129.553 0 0 1-13.76 3.238c-8.39 1.541-13.782 1.742-13.782 1.742a8.786 8.786 0 0 0-8.152 8.763v35.831c0 28.503 23.188 51.691 51.691 51.691h10.536c-28.5.001-51.689-23.187-51.689-51.69z" fill="#edba89"/><path d="M300.636 510.625h85.602l-30.675-109.514-31.635 13.186-.044.014c-12.85 4.511-34.594 20.874-34.594 53.578v31.405c.169 3.385 1.602 11.331 11.346 11.331zM512 499.671v-31.783c0-33.106-22.618-49.51-34.642-53.593l-30.448-12.688-30.538 109.018h84.305c9.396 0 11.06-7.391 11.323-10.954z" fill="#324a5e"/><path d="M355.563 401.111l-31.636 13.186-.044.014c-12.85 4.511-34.594 20.874-34.594 53.578v31.405c.17 3.386 1.604 11.332 11.347 11.332h1.419v-42.737c0-32.704 21.744-49.067 34.595-53.578l.041-.014 20.206-8.422-1.334-4.764zm120.783 109.514v-43.661a4.965 4.965 0 0 0-4.962-4.965 4.966 4.966 0 0 0-4.964 4.965v43.661h9.926zm-140.237 0v-43.661c0-2.741-2.221-4.965-4.961-4.965s-4.965 2.225-4.965 4.965v43.661h9.926z" fill="#283d4c"/><path d="M203.536 26.021h-13.03a1.63 1.63 0 0 0-1.629 1.629v122.999c0 .899.73 1.629 1.629 1.629h13.03a1.63 1.63 0 0 0 1.629-1.629V27.65a1.63 1.63 0 0 0-1.629-1.629zm107.06 126.258H288.82l30.904 34.498.058.069.042.042 2.45 2.736.03.035.033.034c5.894 6.213 8.781 7.009 10.638 7.009.848 0 5.083-.309 5.083-6.43v-7.338l-.832-.928-26.63-29.727z" fill="#4982aa"/></svg>