<svg xmlns="http://www.w3.org/2000/svg" viewBox="0 0 512.002 512.002"><g fill="#f3e2c2"><path d="M398.771 1.61v108.559h13.201V14.811z"/><path d="M442.68 59.987L398.771 0h-276.98c-3.911.394-9.902 2.427-9.902 11.2v197.676h3.554c.891 0 1.773.026 2.652.067 35.9 1.4 64.675 31.027 64.675 67.26v27.237a23.843 23.843 0 0 1 4.117 13.383c0 7.586-3.662 14.805-9.796 19.316l-9.756 7.173c-3.1 15.745-13.561 28.877-27.645 35.645v15.688l49.204 19.732c12.13 4.1 35.069 20.685 35.069 54.181v43.444h269.891c6.156-.889 15.085-5.16 15.085-22.461V110.169L442.68 59.987z"/></g><path d="M202.096 414.375l-49.204-19.732v-15.688c14.084-6.768 24.545-19.901 27.645-35.645l9.756-7.173c6.134-4.511 9.796-11.73 9.796-19.316 0-4.819-1.456-9.446-4.117-13.383v-27.237c0-36.233-28.775-65.859-64.675-67.26a58.268 58.268 0 0 0-2.652-.067h-3.554V0h-3.299c-3.911.394-9.902 2.427-9.902 11.2v197.676h3.554c.891 0 1.773.026 2.652.067 35.9 1.4 64.675 31.027 64.675 67.26v27.237a23.843 23.843 0 0 1 4.117 13.383c0 7.586-9.856 10.898-15.99 15.41l-3.562 11.079c-3.1 15.745-13.561 28.877-27.645 35.645v15.688l49.204 19.732c12.13 4.1 35.069 20.685 35.069 54.181l-7.53 43.444h20.73v-43.445c.001-33.498-22.936-50.082-35.068-54.182z" fill="#fbd7b1"/><path d="M341.17 151.901H210.974c-4.558 0-8.25-3.693-8.25-8.25s3.693-8.25 8.25-8.25H341.17a8.249 8.249 0 0 1 8.25 8.25 8.248 8.248 0 0 1-8.25 8.25zm66.487 56.545H210.974c-4.558 0-8.25-3.693-8.25-8.25s3.693-8.25 8.25-8.25h196.684a8.249 8.249 0 0 1 8.25 8.25 8.25 8.25 0 0 1-8.251 8.25zm0 56.547H210.974a8.249 8.249 0 0 1-8.25-8.25 8.249 8.249 0 0 1 8.25-8.25h196.684a8.25 8.25 0 0 1-.001 16.5zm0 56.547H210.974a8.249 8.249 0 0 1-8.25-8.25 8.25 8.25 0 0 1 8.25-8.25h196.684a8.25 8.25 0 0 1 8.25 8.25 8.25 8.25 0 0 1-8.251 8.25zm0 56.546H210.974a8.25 8.25 0 0 1-8.25-8.25 8.249 8.249 0 0 1 8.25-8.25h196.684a8.249 8.249 0 0 1 8.25 8.25 8.25 8.25 0 0 1-8.251 8.25z" fill="#fff"/><path d="M227.172 468.404c0-.906-.023-1.792-.056-2.678-.007-.123-.004-.251-.013-.375-.015-.447-.054-.884-.081-1.327-.034-.562-.06-1.13-.107-1.684-.022-.231-.055-.457-.074-.685a62.347 62.347 0 0 0-.25-2.245c-.004-.063-.018-.124-.027-.187-2.019-15.1-8.894-26.131-16.623-33.644-.035-.039-.07-.072-.108-.108a56.152 56.152 0 0 0-1.218-1.147c-.202-.188-.406-.363-.611-.541a47.636 47.636 0 0 0-2.021-1.719c-4.957-4.009-9.918-6.617-13.81-7.963-.014-.004-.031-.014-.051-.018l-.101-.037c-.011-.002-.023-.008-.039-.013l-51.064-20.473-12.756 13.239-13.046 12.708-13.047-12.708-12.753-13.239-51.067 20.473a.155.155 0 0 1-.036.013l-.103.037c-.014.003-.034.013-.048.018-3.893 1.348-8.853 3.956-13.814 7.963-.041.034-.088.069-.124.107a42.184 42.184 0 0 0-1.892 1.612c-.207.178-.408.353-.611.541-.41.372-.812.757-1.22 1.147l-.109.108c-7.726 7.513-14.601 18.544-16.622 33.644l-.03.187a67.327 67.327 0 0 0-.245 2.245c-.02.229-.054.454-.072.685-.05.554-.077 1.123-.11 1.684-.028.442-.067.88-.085 1.327-.006.123-.003.251-.009.375-.033.886-.057 1.77-.057 2.677v8.116h.002v24.803C3.395 505.194 5.398 512 15.41 512h199.417c10.008 0 12.008-6.807 12.346-10.677v-32.919h-.001z" fill="#6598cb"/><path d="M89.068 394.134l-50.8 19.896-.16.055c-13.014 4.643-35.045 21.309-35.045 54.319v32.919C3.394 505.194 5.397 512 15.409 512h2.571v-43.596c0-33.01 22.033-49.676 35.048-54.319l.156-.055 40.155-15.725-4.271-4.171z" fill="#4982aa"/><path d="M117.746 207.823h-5.506c-37.601 0-68.188 30.592-68.188 68.19v31.991s15.524-1.54 17.433-9.069l-.01-.007a8.594 8.594 0 0 0 1.593-2.432c8.807-.267 49.941-.587 73.436-28.959 2.803 8.2 12.286 23.729 30.536 28.62.372.99.935 1.882 1.614 2.656l-.151.122c1.909 7.529 17.436 9.069 17.436 9.069v-31.991c-.001-37.599-30.595-68.19-68.193-68.19zm51.412 86.216l.658-.475h.09l-1.068.791.32-.316zm-.334.203l.073-.229.232-.449h.09l-.271.563-.124.115zm-1.807 1.401l-.025-.035 1.68-1.217-.397.384-1.229.909-.029-.041zm1.386-.395l-.527 1.089-.009-.002-.074-.035a.174.174 0 0 1-.036-.022l.861-1.704.023-.022-.238.696z" fill="#694b4b"/><path d="M56.07 293.621v-17.608c0-36.508 28.842-66.4 64.934-68.107a67.794 67.794 0 0 0-3.259-.083h-5.506c-37.601 0-68.188 30.592-68.188 68.19v31.991s6.859-.683 12.019-3.351v-11.032z" fill="#563b3b"/><path d="M177.748 298.118a8.593 8.593 0 0 0-7.644 1.276 8.603 8.603 0 0 0-3.498 6.919v24.467a8.578 8.578 0 0 0 3.498 6.913 8.582 8.582 0 0 0 7.64 1.282 21.33 21.33 0 0 0 4.808-2.198 8.61 8.61 0 0 0 2.346-2.127 8.55 8.55 0 0 0 2.502-1.947 21.367 21.367 0 0 0 5.383-14.16c-.001-9.412-6.042-17.622-15.035-20.425z" fill="#fbcb99"/><path d="M60.133 299.394a8.592 8.592 0 0 0-7.642-1.277c-8.99 2.804-15.033 11.014-15.033 20.427 0 9.42 6.044 17.627 15.033 20.431a8.576 8.576 0 0 0 7.643-1.282 8.578 8.578 0 0 0 3.5-6.913v-24.468a8.598 8.598 0 0 0-3.501-6.918z" fill="#edba89"/><path d="M138.561 373.43c-1.687-1.615-3.951-2.461-6.305-2.375l-.295.015a8.44 8.44 0 0 0-1.553.197 46.405 46.405 0 0 1-10.038 1.112h-10.496c-3.444 0-6.918-.394-10.337-1.176a8.555 8.555 0 0 0-7.267 1.648 8.591 8.591 0 0 0-3.237 6.716v24.976l-.004.084a8.593 8.593 0 0 0 2.58 6.626l17.254 16.802a8.575 8.575 0 0 0 5.99 2.432h.138a8.585 8.585 0 0 0 6.044-2.628l17.772-18.45a8.57 8.57 0 0 0 2.403-5.951v-23.822a8.614 8.614 0 0 0-2.649-6.206z" fill="#fbcb99"/><path d="M116.585 425.476l-17.251-16.801a8.588 8.588 0 0 1-2.583-6.626l.01-.084V376.99c0-2.196.847-4.286 2.331-5.867a8.602 8.602 0 0 0-6.825 1.727 8.591 8.591 0 0 0-3.237 6.716v24.976l-.004.084a8.593 8.593 0 0 0 2.58 6.626l17.254 16.802a8.575 8.575 0 0 0 5.99 2.432h.138a8.585 8.585 0 0 0 6.044-2.628l.075-.08a8.592 8.592 0 0 1-4.522-2.302z" fill="#edba89"/><path d="M165.312 291.111a29.638 29.638 0 0 1-2.975-1.318c-14.427-6.731-20.415-15.485-22.825-20.711a5.746 5.746 0 0 1-.436-.686c-1.726-3.17-4.412-1.164-4.412-1.164l-.009-.007c-13.475 10.335-28.19 16.378-40.426 19.893a125.947 125.947 0 0 1-13.45 3.165c-8.2 1.505-13.473 1.702-13.473 1.702a8.59 8.59 0 0 0-7.969 8.566v35.034c0 27.864 22.668 50.532 50.534 50.532h10.496c27.86 0 50.532-22.668 50.532-50.532v-36.43a8.581 8.581 0 0 0-5.587-8.044z" fill="#fbcb99"/><path d="M69.641 335.586v-35.034a8.588 8.588 0 0 1 7.967-8.566s5.275-.197 13.473-1.702c4.13-.739 8.688-1.758 13.457-3.165 10.823-3.113 23.596-8.209 35.733-16.507a30.02 30.02 0 0 1-.76-1.53 5.746 5.746 0 0 1-.436-.686c-1.726-3.17-4.412-1.164-4.412-1.164l-.009-.007c-13.475 10.335-28.19 16.378-40.426 19.893a125.947 125.947 0 0 1-13.45 3.165c-8.2 1.505-13.473 1.702-13.473 1.702a8.59 8.59 0 0 0-7.969 8.566v35.034c0 27.864 22.668 50.532 50.534 50.532h10.295c-27.854 0-50.524-22.667-50.524-50.531z" fill="#edba89"/><path d="M422.879 110.169h84.451L398.771 1.61v87.309c.069 3.337 1.494 21.25 24.108 21.25z" fill="#f7971d"/></svg>