<svg xmlns="http://www.w3.org/2000/svg" viewBox="0 0 512 512"><path d="M88.276 326.621h17.655v44.138H88.276zm79.448-35.311h17.655v79.448h-17.655zM326.621 256h17.655v114.759h-17.655zm79.448-88.276h17.655v203.034h-17.655zm-158.897 44.138h17.655v158.897h-17.655z" fill="#d7deed"/><path d="M97.108 335.451a8.829 8.829 0 0 1-8.072-5.245 8.827 8.827 0 0 1 4.482-11.652l77.73-34.547 78.19-86.878a8.823 8.823 0 0 1 11.458-1.44l72.788 48.525 74.379-90.908a8.825 8.825 0 0 1 12.423-1.242 8.828 8.828 0 0 1 1.242 12.422l-79.448 97.103a8.825 8.825 0 0 1-11.729 1.756l-73.097-48.73-74.342 82.601a8.837 8.837 0 0 1-2.976 2.162l-79.448 35.31a8.792 8.792 0 0 1-3.58.763z" fill="#8f96ac"/><path d="M494.345 432.552H17.655C7.904 432.552 0 424.648 0 414.897v-8.828a8.829 8.829 0 0 1 8.828-8.828h494.345a8.829 8.829 0 0 1 8.828 8.828v8.828c-.001 9.751-7.905 17.655-17.656 17.655z" fill="#959cb3"/><path d="M285.855 414.897h-59.709a8.827 8.827 0 0 1-7.895-4.879l-6.389-12.776h88.276l-6.388 12.776a8.83 8.83 0 0 1-7.895 4.879z" fill="#707487"/><path d="M467.862 79.448H44.138c-14.626 0-26.483 11.857-26.483 26.483v291.31h476.69v-291.31c0-14.626-11.857-26.483-26.483-26.483zm0 282.483a8.829 8.829 0 0 1-8.828 8.828H52.966a8.829 8.829 0 0 1-8.828-8.828V114.759a8.829 8.829 0 0 1 8.828-8.828h406.069a8.829 8.829 0 0 1 8.828 8.828v247.172z" fill="#afb9d2"/><circle cx="256" cy="203.034" r="17.655" fill="#ffd782"/><circle cx="176.552" cy="291.31" r="17.655" fill="#ff6464"/><circle cx="414.897" cy="158.897" r="17.655" fill="#9be6d2"/><circle cx="335.448" cy="256" r="17.655" fill="#c3e678"/><circle cx="97.103" cy="326.621" r="17.655" fill="#00d2ff"/></svg>