<svg xmlns="http://www.w3.org/2000/svg" viewBox="0 0 512 512"><path d="M91.947 80.918c44.587-41.754 102.789-64.749 163.883-64.749 54.994 0 107.639 18.641 150.126 52.817h-13.025a8.082 8.082 0 0 0-8.084 8.084 8.082 8.082 0 0 0 8.084 8.084h32.309a8.083 8.083 0 0 0 8.084-8.084V47.966a8.084 8.084 0 0 0-8.084-8.084 8.082 8.082 0 0 0-8.084 8.084v9.27C371.618 20.206 314.995 0 255.83 0 190.617 0 128.49 24.546 80.894 69.116a8.085 8.085 0 0 0 11.053 11.802zm41.598 358.923a8.082 8.082 0 0 0-8.084-8.084H93.152a8.082 8.082 0 0 0-8.084 8.084v29.103a8.082 8.082 0 0 0 8.084 8.084 8.082 8.082 0 0 0 8.084-8.084v-8.889C145.571 493.664 199.83 512 255.83 512c61.775 0 121.433-22.312 167.986-62.827a8.084 8.084 0 1 0-10.615-12.195c-43.608 37.952-99.497 58.854-157.37 58.854a239.723 239.723 0 0 1-143.808-47.906h13.439a8.084 8.084 0 0 0 8.083-8.085z" fill="#d9d8da"/><path fill="#ef4c35" d="M125.599 354.318l6.111-16.274-18.747-13.796-18.808 13.843 6.796 16.227z"/><path fill="#dd3e2b" d="M100.951 354.318l.359.857-8.392 52.022h40.78l-8.401-52.073.302-.806z"/><path fill="#d2d2d7" d="M98.148 407.197l8.494-52.654-8.208-19.6L72.1 309.904l5.154 37.545 16.736 59.748z"/><path fill="#e4e4ea" d="M132.704 407.197l16.929-60.438 5.159-37.553-27.402 25.662-7.406 19.726 8.487 52.603z"/><path d="M133.095 345.412c5.42 3.988 8.698.438 9.921-1.41l17.266-35.49-22.284-14.709-5.26 9.471-19.599 20.345-19.071-18.576-3.696-12.847-24.725 16.317 16.859 34.652c.467.922 3.886 7.043 10.406 2.252l20.052-14.756 19.11 14.063c.303.184.637.406 1.021.688z" fill="#f5f5f7"/><path d="M115.806 116.52h-5.23c-35.725 0-64.786 29.065-64.786 64.787V211.7s14.75-1.463 16.563-8.616l-.01-.008a8.097 8.097 0 0 0 1.511-2.312c8.367-.252 47.449-.557 69.769-27.511 2.663 7.792 11.674 22.546 29.01 27.193.358.94.888 1.788 1.538 2.522l-.144.115c1.814 7.153 16.564 8.616 16.564 8.616v-30.391c.002-35.722-29.062-64.788-64.785-64.788zm48.845 81.913l.624-.452h.088l-1.016.752.304-.3zm-.317.194l.07-.22.217-.426h.087l-.257.535-.117.111zm-1.719 1.329l-.024-.033 1.597-1.156-.377.364-1.168.864-.028-.039zm1.319-.375l-.501 1.035-.004-.001-.074-.034a.148.148 0 0 1-.033-.018l.816-1.621.022-.019-.226.658z" fill="#694b4b"/><path d="M57.211 198.036v-16.729c0-34.687 27.4-63.086 61.69-64.708a64.974 64.974 0 0 0-3.096-.079h-5.23c-35.725 0-64.786 29.065-64.786 64.787V211.7s6.517-.65 11.42-3.183v-10.481h.002z" fill="#563b3b"/><path d="M172.812 202.308a8.156 8.156 0 0 0-10.586 7.788v23.244a8.155 8.155 0 0 0 3.323 6.568 8.144 8.144 0 0 0 7.259 1.219c1.564-.486 3.1-1.19 4.565-2.089a8.19 8.19 0 0 0 2.231-2.019 8.243 8.243 0 0 0 2.377-1.849 20.301 20.301 0 0 0 5.111-13.454c.002-8.945-5.737-16.746-14.28-19.408z" fill="#fbcb99"/><path d="M61.07 203.523a8.162 8.162 0 0 0-7.262-1.217c-8.542 2.665-14.284 10.464-14.284 19.409 0 8.949 5.742 16.747 14.284 19.412a8.148 8.148 0 0 0 7.261-1.218 8.146 8.146 0 0 0 3.324-6.569v-23.247a8.149 8.149 0 0 0-3.323-6.57z" fill="#edba89"/><path d="M135.58 273.861a8.195 8.195 0 0 0-5.99-2.258l-.278.013a8.302 8.302 0 0 0-1.481.189 44 44 0 0 1-9.535 1.056h-9.973c-3.271 0-6.574-.376-9.821-1.12a8.142 8.142 0 0 0-6.904 1.569 8.16 8.16 0 0 0-3.076 6.38v23.728l-.004.08a8.17 8.17 0 0 0 2.452 6.295l16.389 15.965a8.159 8.159 0 0 0 5.69 2.312h.132a8.15 8.15 0 0 0 5.744-2.499l16.884-17.527a8.153 8.153 0 0 0 2.283-5.658v-22.631a8.145 8.145 0 0 0-2.512-5.894z" fill="#fbcb99"/><path d="M114.705 323.307l-16.392-15.964a8.158 8.158 0 0 1-2.453-6.294l.008-.081V277.24a8.14 8.14 0 0 1 2.217-5.574 8.15 8.15 0 0 0-6.485 1.642 8.16 8.16 0 0 0-3.076 6.38v23.728l-.004.08a8.17 8.17 0 0 0 2.452 6.295l16.389 15.965a8.159 8.159 0 0 0 5.69 2.312h.132a8.15 8.15 0 0 0 5.744-2.499l.072-.075a8.12 8.12 0 0 1-4.294-2.187z" fill="#edba89"/><path d="M160.997 195.651a28.564 28.564 0 0 1-2.826-1.251c-13.707-6.396-19.396-14.713-21.687-19.676a5.796 5.796 0 0 1-.412-.653c-1.638-3.012-4.191-1.105-4.191-1.105l-.012-.006c-12.8 9.817-26.781 15.559-38.404 18.9a119.432 119.432 0 0 1-12.78 3.006c-7.791 1.43-12.8 1.618-12.8 1.618a8.159 8.159 0 0 0-7.572 8.138v33.283c0 26.474 21.538 48.011 48.012 48.011h9.973c26.471 0 48.008-21.536 48.008-48.011v-34.609a8.159 8.159 0 0 0-5.309-7.645z" fill="#fbcb99"/><path d="M70.103 237.903V204.62a8.158 8.158 0 0 1 7.57-8.138s5.008-.188 12.801-1.618c3.921-.702 8.256-1.67 12.782-3.006 10.285-2.958 22.42-7.801 33.952-15.68a27.58 27.58 0 0 1-.724-1.455 5.796 5.796 0 0 1-.412-.653c-1.638-3.012-4.191-1.105-4.191-1.105l-.012-.006c-12.8 9.817-26.781 15.559-38.404 18.9a119.432 119.432 0 0 1-12.78 3.006c-7.791 1.43-12.8 1.618-12.8 1.618a8.159 8.159 0 0 0-7.572 8.138v33.283c0 26.474 21.538 48.011 48.012 48.011h9.785c-26.47-.001-48.007-21.539-48.007-48.012z" fill="#edba89"/><path d="M19.842 407.197h79.51L70.86 305.48l-29.386 12.245-.04.015C29.5 321.93 9.302 337.126 9.302 367.503v29.169c.159 3.145 1.492 10.525 10.54 10.525zm196.318-10.173v-29.521c0-30.749-21.005-45.986-32.176-49.779l-28.279-11.785-28.364 101.257h78.303c8.726.001 10.275-6.863 10.516-10.172z" fill="#324a5e"/><g fill="#283d4c"><path d="M44.874 359.114a8.082 8.082 0 0 0-8.084 8.084v40h16.168v-40a8.083 8.083 0 0 0-8.084-8.084zm136.179 0a8.082 8.082 0 0 0-8.084 8.084v40h16.168v-40a8.083 8.083 0 0 0-8.084-8.084z"/><path d="M70.86 305.48l-29.386 12.245-.04.015C29.5 321.93 9.302 337.126 9.302 367.503v29.169c.157 3.145 1.49 10.527 10.539 10.527h1.318v-39.695c0-30.377 20.197-45.573 32.132-49.763l.04-.015 18.767-7.821-1.238-4.425z"/></g><path fill="#ef4c35" d="M412.137 354.318l6.11-16.274-18.747-13.796-18.809 13.843 6.796 16.227z"/><path fill="#dd3e2b" d="M387.487 354.318l.359.857-8.391 52.022h40.78l-8.401-52.073.303-.806z"/><path fill="#d2d2d7" d="M384.685 407.197l8.494-52.654-8.208-19.6-26.334-25.039 5.154 37.545 16.735 59.748z"/><path fill="#e4e4ea" d="M419.241 407.197l16.929-60.438 5.158-37.553-27.401 25.662-7.406 19.726 8.486 52.603z"/><path d="M419.631 345.412c5.42 3.988 8.698.438 9.921-1.41l17.267-35.49-22.284-14.709-5.26 9.471-19.599 20.345-19.072-18.576-3.696-12.847-24.725 16.317 16.859 34.652c.467.922 3.886 7.043 10.406 2.252l20.052-14.756 19.11 14.063c.304.184.638.406 1.021.688z" fill="#f5f5f7"/><path d="M402.343 116.52h-5.23c-35.725 0-64.785 29.065-64.785 64.787V211.7s14.75-1.463 16.563-8.616l-.01-.008a8.119 8.119 0 0 0 1.511-2.312c8.367-.252 47.45-.557 69.769-27.511 2.663 7.792 11.674 22.546 29.01 27.193.358.94.888 1.788 1.538 2.522l-.144.115c1.814 7.153 16.564 8.616 16.564 8.616v-30.391c.001-35.722-29.063-64.788-64.786-64.788zm48.845 81.913l.624-.452h.088l-1.016.752.304-.3zm-.317.194l.07-.22.217-.426h.087l-.257.535-.117.111zm-1.719 1.329l-.024-.033 1.597-1.156-.377.364-1.168.864-.028-.039zm1.319-.375l-.501 1.035-.004-.001-.074-.034a.174.174 0 0 1-.033-.018l.816-1.621.022-.019-.226.658z" fill="#694b4b"/><path d="M343.748 198.036v-16.729c0-34.687 27.4-63.086 61.69-64.708a64.974 64.974 0 0 0-3.096-.079h-5.23c-35.725 0-64.785 29.065-64.785 64.787V211.7s6.517-.65 11.42-3.183v-10.481z" fill="#563b3b"/><path d="M459.349 202.308a8.156 8.156 0 0 0-10.586 7.788v23.244a8.155 8.155 0 0 0 3.323 6.568 8.144 8.144 0 0 0 7.259 1.219c1.564-.486 3.1-1.19 4.565-2.089a8.19 8.19 0 0 0 2.231-2.019 8.243 8.243 0 0 0 2.377-1.849 20.301 20.301 0 0 0 5.111-13.454c.002-8.945-5.737-16.746-14.28-19.408z" fill="#fbcb99"/><path d="M347.606 203.523a8.162 8.162 0 0 0-7.262-1.217c-8.542 2.665-14.284 10.464-14.284 19.409 0 8.949 5.742 16.747 14.284 19.412a8.148 8.148 0 0 0 7.261-1.218 8.149 8.149 0 0 0 3.324-6.569v-23.247a8.143 8.143 0 0 0-3.323-6.57z" fill="#edba89"/><path d="M422.117 273.861a8.195 8.195 0 0 0-5.99-2.258l-.278.013a8.302 8.302 0 0 0-1.481.189 44 44 0 0 1-9.535 1.056h-9.973c-3.271 0-6.574-.376-9.821-1.12a8.142 8.142 0 0 0-6.904 1.569 8.16 8.16 0 0 0-3.075 6.38v23.728l-.004.08a8.17 8.17 0 0 0 2.452 6.295l16.389 15.965a8.159 8.159 0 0 0 5.69 2.312h.132a8.15 8.15 0 0 0 5.744-2.499l16.884-17.527a8.153 8.153 0 0 0 2.283-5.658v-22.631a8.146 8.146 0 0 0-2.513-5.894z" fill="#fbcb99"/><path d="M401.241 323.307l-16.392-15.964a8.158 8.158 0 0 1-2.453-6.294l.008-.081V277.24a8.14 8.14 0 0 1 2.217-5.574 8.15 8.15 0 0 0-6.485 1.642 8.16 8.16 0 0 0-3.075 6.38v23.728l-.004.08a8.17 8.17 0 0 0 2.452 6.295l16.389 15.965a8.159 8.159 0 0 0 5.69 2.312h.132a8.15 8.15 0 0 0 5.744-2.499l.072-.075a8.126 8.126 0 0 1-4.295-2.187z" fill="#edba89"/><path d="M447.534 195.651a28.564 28.564 0 0 1-2.826-1.251c-13.707-6.396-19.396-14.713-21.687-19.676a5.796 5.796 0 0 1-.412-.653c-1.637-3.012-4.191-1.105-4.191-1.105l-.012-.006c-12.8 9.817-26.781 15.559-38.404 18.9a119.39 119.39 0 0 1-12.781 3.006c-7.791 1.43-12.8 1.618-12.8 1.618a8.159 8.159 0 0 0-7.572 8.138v33.283c0 26.474 21.538 48.011 48.012 48.011h9.973c26.471 0 48.008-21.536 48.008-48.011v-34.609a8.16 8.16 0 0 0-5.308-7.645z" fill="#fbcb99"/><path d="M356.639 237.903V204.62a8.158 8.158 0 0 1 7.57-8.138s5.008-.188 12.801-1.618c3.921-.702 8.256-1.67 12.782-3.006 10.285-2.958 22.42-7.801 33.952-15.68-.272-.51-.512-.996-.724-1.455a5.796 5.796 0 0 1-.412-.653c-1.637-3.012-4.191-1.105-4.191-1.105l-.012-.006c-12.8 9.817-26.781 15.559-38.404 18.9a119.39 119.39 0 0 1-12.781 3.006c-7.791 1.43-12.8 1.618-12.8 1.618a8.159 8.159 0 0 0-7.572 8.138v33.283c0 26.474 21.539 48.011 48.012 48.011h9.785c-26.468-.001-48.006-21.539-48.006-48.012z" fill="#edba89"/><path d="M306.379 407.197h79.51L357.397 305.48l-29.386 12.245-.04.015c-11.934 4.19-32.132 19.386-32.132 49.763v29.169c.159 3.145 1.491 10.525 10.54 10.525zm196.318-10.173v-29.521c0-30.749-21.005-45.986-32.176-49.779l-28.279-11.785-28.364 101.257h78.303c8.726.001 10.276-6.863 10.516-10.172z" fill="#324a5e"/><g fill="#283d4c"><path d="M331.411 359.114a8.082 8.082 0 0 0-8.084 8.084v40h16.168v-40a8.083 8.083 0 0 0-8.084-8.084zm136.179 0a8.082 8.082 0 0 0-8.084 8.084v40h16.168v-40a8.084 8.084 0 0 0-8.084-8.084z"/><path d="M357.397 305.48l-29.386 12.245-.04.015c-11.934 4.19-32.132 19.386-32.132 49.763v29.169c.158 3.145 1.49 10.527 10.539 10.527h1.318v-39.695c0-30.377 20.197-45.573 32.132-49.763l.04-.015 18.767-7.821-1.238-4.425z"/></g></svg>