<svg xmlns="http://www.w3.org/2000/svg" viewBox="0 0 512 512"><g fill="#d9d8da"><path d="M38.917 377.469a8.172 8.172 0 0 1-5.778-13.948L385.322 11.337a8.17 8.17 0 1 1 11.555 11.555L44.695 375.077a8.15 8.15 0 0 1-5.778 2.392z"/><path d="M400.041 80.148a8.169 8.169 0 0 1-8.17-8.17V16.342l-55.638-.001a8.17 8.17 0 1 1 0-16.341l63.808.001a8.17 8.17 0 0 1 8.17 8.17v63.806a8.17 8.17 0 0 1-8.17 8.171z"/></g><path d="M48.053 410.629c-10.532.249-12.092 5.599-12.29 7.723V512h152.128V410.629H48.053z" fill="#ef4c35"/><path d="M193.787 282.786c-9.166.496-11.003 5.056-11.344 7.304V512h152.128V282.786H193.787z" fill="#f7971d"/><path d="M468.255 145.183H342.198c-11.637 0-12.956 5.97-13.072 7.958V512h152.129V152.479c-.388-2.402-2.467-7.296-13-7.296z" fill="#fcd638"/><path d="M35.763 418.352V512h13.072V410.629h-.782c-10.532.251-12.092 5.6-12.29 7.723z" fill="#df3126"/><path d="M182.444 290.09V512h13.072V282.786h-1.729c-9.166.495-11.001 5.056-11.343 7.304z" fill="#f37521"/><path d="M329.126 153.141V512h13.072V145.183c-11.637 0-12.956 5.971-13.072 7.958z" fill="#f9b338"/><path d="M151.751 454.633H70.049a8.169 8.169 0 0 1-8.17-8.17 8.17 8.17 0 0 1 8.17-8.17h81.702c4.513 0 8.17 3.658 8.17 8.17s-3.657 8.17-8.17 8.17zm147.196-127.842h-81.702a8.17 8.17 0 0 1-8.17-8.17 8.169 8.169 0 0 1 8.17-8.17h81.702a8.17 8.17 0 0 1 0 16.34zm147.094-137.604h-81.702a8.17 8.17 0 0 1-8.17-8.17 8.17 8.17 0 0 1 8.17-8.17h81.702c4.513 0 8.17 3.657 8.17 8.17s-3.658 8.17-8.17 8.17z" fill="#fff"/></svg>