<svg xmlns="http://www.w3.org/2000/svg" viewBox="0 0 512.002 512.002"><path d="M297.694 223.037c5.934 5.934 15.589 5.934 21.523 0l.307-.307a15.149 15.149 0 0 0 4.384 9.326l.356.355c5.935 5.934 15.59 5.936 21.524.002l39.436-39.436c-1.555 8.356-2.4 20.087 2.64 27.879 2.795 4.325 6.924 6.835 12.314 7.636l1.856.276 1.842-.349c4.173-.797 14.243-4.976 17.612-26.549 1.847-11.811 6.079-17.924 10.17-23.84 7.644-11.054 12.442-20.267 9.161-45.548l17.925-17.926-61.295-61.295-23.833 23.831c-21.7-3.449-55.635 31.625-57.066 33.118l-25.352 25.351c-5.933 5.935-5.934 15.59 0 21.525l.356.357a15.148 15.148 0 0 0 9.328 4.383l-12.839 12.836c-5.934 5.934-5.934 15.591 0 21.525l.357.356a15.196 15.196 0 0 0 9.16 4.393l-.22.22c-5.936 5.934-5.934 15.589 0 21.523l.354.358z" fill="#fbcb99"/><g fill="#e9b585"><path d="M291.553 157.443c.422.422.869.804 1.327 1.165-1.459-5.139-.175-10.901 3.862-14.941l25.352-25.351c1.432-1.493 35.367-36.567 57.066-33.118l23.833-23.831 54.467 54.467 1.28-1.28-61.294-61.292-23.833 23.831c-21.7-3.449-55.635 31.625-57.066 33.118l-25.352 25.351c-5.933 5.935-5.934 15.59 0 21.525l.358.356z"/><path d="M394.015 142.189c0-19.345-17.426-19.602-17.426-19.602h-72.42l-12.972 12.972a15.207 15.207 0 0 0-2.061 2.579h89.413v61.512l6.676-6.676c-1.555 8.356-2.4 20.087 2.64 27.879 1.608 2.489 3.673 4.357 6.152 5.663v-84.329h-.002z"/></g><path d="M214.307 288.957c-5.934-5.934-15.589-5.935-21.523-.001l-.307.308a15.149 15.149 0 0 0-4.384-9.326l-.356-.356c-5.934-5.934-15.59-5.935-21.524-.001l-39.436 39.436c1.555-8.356 2.4-20.088-2.64-27.879-2.795-4.324-6.925-6.835-12.314-7.636l-1.856-.276-1.842.349c-4.173.797-14.243 4.976-17.612 26.549-1.847 11.809-6.079 17.925-10.17 23.84-7.644 11.054-12.441 20.266-9.161 45.548l-17.925 17.926 61.294 61.294 23.833-23.832c21.7 3.45 55.635-31.623 57.066-33.118l25.351-25.351c5.934-5.934 5.934-15.591 0-21.525l-.355-.356a15.153 15.153 0 0 0-9.328-4.383l12.839-12.836c5.934-5.934 5.934-15.59 0-21.525l-.357-.356a15.18 15.18 0 0 0-9.16-4.393l.22-.22c5.936-5.934 5.935-15.589 0-21.523l-.353-.357z" fill="#fbcb99"/><path d="M223.091 315.478c.212.023.423.063.636.094l-.124-.123c-.082-.082-.17-.154-.254-.233-.013.014-.023.029-.038.042l-.22.22zm-2.491 39.224l-.153-.153c-.108-.108-.223-.202-.335-.305l-.344.344c.28.026.555.073.832.114zM61.908 401.859l17.925-17.926c-3.28-25.282 1.517-34.493 9.161-45.548 4.091-5.916 8.323-12.032 10.17-23.84 3.369-21.574 13.438-25.752 17.612-26.549l1.842-.349 1.856.276c.427.064.831.157 1.243.241-2.582-2.524-5.888-4.067-9.89-4.663l-1.856-.276-1.842.349c-4.173.797-14.243 4.976-17.612 26.549-1.847 11.809-6.079 17.925-10.17 23.84-7.644 11.054-12.441 20.266-9.161 45.548L53.26 397.437l61.294 61.294 2.114-2.113-54.76-54.759zm149.361-112.595l.307-.308c.434-.434.893-.827 1.364-1.197a15.053 15.053 0 0 0-2.273-1.489c.298.98.507 1.981.602 2.994z" fill="#e9b585"/><path d="M224.142 213.202c5.934-5.934 5.935-15.59.001-21.524l-.307-.306a15.155 15.155 0 0 0 9.324-4.384l.356-.356c5.934-5.934 5.935-15.589.001-21.524l-39.436-39.436c8.356 1.555 20.088 2.4 27.879-2.64 4.324-2.795 6.836-6.924 7.638-12.315l.275-1.856-.349-1.842c-.796-4.172-4.976-14.241-26.549-17.612-11.808-1.846-17.925-6.078-23.84-10.169-11.054-7.645-20.266-12.441-45.548-9.162l-17.925-17.925-61.296 61.297 23.832 23.833c-3.449 21.7 31.623 55.635 33.118 57.066l25.351 25.351c5.934 5.934 15.591 5.934 21.525 0l.356-.356a15.148 15.148 0 0 0 4.383-9.327l12.838 12.839c5.934 5.934 15.59 5.934 21.524 0l.356-.357a15.174 15.174 0 0 0 4.393-9.16l.22.22c5.934 5.935 15.589 5.935 21.524 0l.356-.355z" fill="#fbcb99"/><path d="M146.371 216.285l-25.351-25.351c-1.495-1.432-36.567-35.366-33.118-57.066L64.07 110.035l54.737-54.737-3.145-3.145-61.295 61.297 23.832 23.833c-3.449 21.7 31.623 55.635 33.118 57.066l25.351 25.351c5.567 5.567 14.408 5.911 20.382 1.034-3.871-.024-7.733-1.503-10.679-4.449z" fill="#e9b585"/><path d="M287.859 298.79c-5.934 5.934-5.935 15.591-.001 21.525l.307.306a15.15 15.15 0 0 0-9.324 4.383l-.357.356c-5.934 5.934-5.934 15.59 0 21.525l39.436 39.435c-8.356-1.555-20.088-2.399-27.879 2.642-4.324 2.792-6.836 6.923-7.638 12.312l-.275 1.857.349 1.842c.796 4.172 4.976 14.243 26.551 17.611 11.807 1.847 17.923 6.078 23.838 10.17 11.056 7.644 20.266 12.44 45.55 9.161l17.924 17.925 61.295-61.295-23.832-23.833c3.449-21.699-31.623-55.634-33.118-57.065l-25.351-25.351c-5.934-5.934-15.591-5.934-21.525 0l-.356.355a15.148 15.148 0 0 0-4.383 9.328l-12.838-12.839c-5.934-5.934-15.589-5.934-21.524 0l-.356.356a15.176 15.176 0 0 0-4.393 9.16l-.22-.219c-5.934-5.935-15.59-5.934-21.524 0l-.356.353z" fill="#fbcb99"/><path d="M378.483 295.444v79.515h-71.925l11.361 11.361c-8.356-1.555-20.088-2.399-27.879 2.642-.733.474-1.395.999-2.024 1.549h89.048c2.779-.209 16.929-2.125 16.951-19.538v-59.997l-15.532-15.532zm-64.322-4.747l.22.219c.062-.59.171-1.175.303-1.754l-.333.333a15.24 15.24 0 0 0-.69.752c.166.15.338.289.5.45zm86.6 161.403l-17.924-17.925c-25.284 3.279-34.494-1.517-45.55-9.161-5.916-4.092-12.032-8.323-23.838-10.17-21.575-3.368-25.755-13.438-26.551-17.611l-.349-1.842.275-1.857c.125-.839.305-1.635.514-2.413-2.683 2.619-4.319 6.009-4.936 10.151l-.275 1.857.349 1.842c.796 4.172 4.976 14.243 26.551 17.611 11.807 1.847 17.923 6.078 23.838 10.17 11.056 7.644 20.266 12.44 45.55 9.161l17.924 17.925 61.295-61.295-1.658-1.658-55.215 55.215zm-57.703-219.691l-.356-.355a15.152 15.152 0 0 1-4.384-9.326l-.307.307c-4.834 4.834-12.134 5.728-17.885 2.687a15.13 15.13 0 0 0 3.784 6.331l.356.355c5.502 5.501 14.192 5.894 20.16 1.199a14.79 14.79 0 0 1-1.368-1.198z" fill="#e9b585"/><path d="M365.457 390.51c2.779-.209 16.929-2.125 16.951-19.538V256.548h-50.395v15.745c8.358 5.563 13.301 14.742 13.301 24.86 0 16.479-13.407 29.886-29.887 29.886-16.479 0-29.886-13.407-29.886-29.886 0-10.118 4.942-19.298 13.3-24.86v-15.745h-50.394v50.396h-4.688c-5.565-8.359-14.744-13.301-24.861-13.301-16.48 0-29.887 13.407-29.887 29.887 0 16.479 13.407 29.886 29.887 29.886 10.114 0 19.292-4.941 24.86-13.302h4.689v50.396h117.01z" fill="#fcd638"/><path d="M289.421 159.683c-10.119 0-20.404 4.942-25.967 13.301h-3.584v-50.396H142.414c-2.753.228-14.421 1.99-16.505 15.279v118.681h55.92v-18.255l-4.132-3.319c-5.739-4.611-9.167-11.724-9.167-19.031 0-13.431 10.927-24.358 24.358-24.358 13.431 0 24.358 10.927 24.358 24.358 0 7.307-3.427 14.423-9.167 19.032l-4.132 3.319v18.254h55.923v-50.395h3.584c5.563 8.358 15.849 13.301 25.967 13.301 16.478 0 29.885-13.407 29.885-29.887-.001-16.478-13.407-29.884-29.885-29.884z" fill="#ef4c35"/><path d="M364.982 122.588H253.975v50.396h10.217c5.563-8.358 14.742-13.301 24.861-13.301 16.478 0 29.885 13.407 29.885 29.885 0 16.48-13.407 29.887-29.885 29.887-10.118 0-19.299-4.942-24.861-13.301h-10.217v50.395h44.867v15.745c-8.358 5.563-13.3 14.742-13.3 24.86 0 16.479 13.407 29.886 29.886 29.886 16.48 0 29.887-13.407 29.887-29.886 0-10.118-4.942-19.298-13.301-24.86v-15.745h50.395v-114.36c-.001-19.345-17.427-19.601-17.427-19.601z" fill="#f7971d"/><path d="M218.92 293.644c10.117 0 19.297 4.942 24.861 13.301h10.215v-50.396h-44.869v-10.217c8.358-5.563 13.3-14.742 13.3-24.86 0-16.479-13.407-29.886-29.886-29.886s-29.886 13.407-29.886 29.886c0 9.957 5.056 19.336 13.3 24.857v10.22h-50.393V370.02c.01.293.017.596.017.914 0 17.448 14.172 19.367 16.951 19.575h111.466v-50.396H243.78c-5.568 8.362-14.747 13.302-24.86 13.302-16.48 0-29.887-13.407-29.887-29.886s13.406-29.885 29.887-29.885z" fill="#6598cb"/><path d="M141.113 374.958v-118.41h-15.551v113.43c.012.305.019.623.019.956 0 17.448 14.172 19.367 16.951 19.575h111.466v-15.551H141.113z" fill="#4982aa"/><path d="M364.982 122.588h-110.28v15.551h112.239v118.409h15.466V142.189c.001-19.345-17.425-19.601-17.425-19.601z" fill="#f37521"/><path d="M382.408 370.973V256.548h-15.531v118.41H254.142v15.551h111.315c2.779-.207 16.93-2.123 16.951-19.536z" fill="#f9b338"/><path d="M142.414 122.588c-3.026.252-16.834 2.338-16.834 19.565 0 .318-.007.622-.017.914v113.481h15.551V138.14h112.859v-15.551H142.414z" fill="#df3126"/><path d="M71.845 2.179l-.743.743c-.135.15-.208.244-.208.244l-.022-.014L13.944 60.08l-9.695 9.695.013.023s-.094.072-.245.208l-.743.743c-1.526 1.69-3.92 5.445-.201 9.679l12.573 12.573 16.185 16.185 12.574 12.574c4.233 3.719 7.989 1.324 9.679-.202l.743-.743c.136-.151.208-.244.208-.244l.024.013 9.694-9.695 56.928-56.928-.014-.023s.094-.073.244-.208l.744-.744c1.526-1.69 3.92-5.445.201-9.678L110.28 30.736 94.098 14.551 81.524 1.978c-4.232-3.72-7.988-1.326-9.679.201zm368.312 0l.743.743c.135.15.208.244.208.244l.023-.014 56.928 56.928 9.695 9.695-.013.023s.094.072.245.208l.743.743c1.526 1.69 3.92 5.445.201 9.679l-12.573 12.573-16.186 16.185-12.574 12.574c-4.233 3.719-7.989 1.324-9.679-.202l-.743-.743a4.791 4.791 0 0 1-.208-.244l-.023.013-9.695-9.695-56.929-56.928.014-.023s-.094-.073-.244-.208l-.744-.744c-1.526-1.69-3.92-5.445-.201-9.678l12.574-12.574 16.185-16.185 12.573-12.573c4.235-3.718 7.989-1.324 9.68.203z" fill="#6598cb"/><path d="M57.256 109.186L41.073 93.001 28.499 80.428c-3.719-4.234-1.324-7.989.201-9.679l.743-.743c.151-.136.245-.208.245-.208l-.013-.023 9.695-9.695L89.498 9.951l-7.974-7.974c-4.233-3.72-7.988-1.325-9.679.201l-.743.743c-.135.15-.208.244-.208.244l-.022-.014L13.944 60.08l-9.695 9.695.013.023s-.094.072-.245.208l-.743.743c-1.526 1.69-3.92 5.445-.201 9.679l12.573 12.573 16.185 16.185 12.574 12.574c4.233 3.719 7.989 1.324 9.679-.202l.743-.743c.136-.151.208-.244.208-.244l.024.013 6.797-6.797-4.6-4.601zm415.418 1.704l-56.928-56.928.014-.023s-.094-.073-.244-.208l-.744-.744c-1.526-1.69-3.92-5.445-.201-9.678l12.574-12.574L443.33 14.55l4.6-4.6-6.8-6.8-.023.014s-.072-.094-.208-.244l-.743-.743c-1.691-1.527-5.447-3.921-9.679-.201L417.903 14.55l-16.185 16.185-12.574 12.574c-3.719 4.233-1.324 7.988.201 9.678l.744.744c.15.134.244.208.244.208l-.014.023 56.928 56.928 9.695 9.695.023-.013s.071.093.208.244l.743.743c1.69 1.527 5.447 3.921 9.679.202l7.974-7.974-2.895-2.897z" fill="#4982aa"/><path d="M71.845 509.823l-.743-.743c-.135-.15-.208-.244-.208-.244l-.023.014-56.928-56.928-9.695-9.695.013-.023s-.094-.072-.245-.209l-.743-.743c-1.526-1.69-3.92-5.445-.201-9.679L15.645 419l16.185-16.185 12.574-12.574c4.233-3.719 7.989-1.324 9.679.202l.743.743c.136.151.208.244.208.244l.024-.013 9.694 9.695 56.928 56.928-.014.023s.094.073.244.208l.744.744c1.526 1.69 3.92 5.445.201 9.678l-12.574 12.574-16.184 16.184-12.573 12.573c-4.232 3.72-7.988 1.326-9.679-.201z" fill="#6598cb"/><path d="M39.369 451.922l-9.695-9.695.013-.023s-.094-.072-.245-.209l-.743-.743c-1.526-1.69-3.92-5.445-.201-9.679L41.072 419l16.185-16.185 4.6-4.601-6.797-6.798-.024.013s-.071-.093-.208-.244l-.743-.743c-1.69-1.527-5.447-3.921-9.679-.202L31.83 402.814l-16.185 16.185-12.571 12.575c-3.719 4.234-1.324 7.989.201 9.679l.743.743c.151.136.245.209.245.209l-.013.023 9.695 9.695 56.928 56.928.023-.014s.073.094.208.244l.743.743c1.691 1.527 5.447 3.921 9.679.201l7.974-7.974-50.131-50.129z" fill="#4982aa"/><path d="M440.157 509.823l.743-.743c.135-.15.208-.244.208-.244l.023.014 56.928-56.928 9.695-9.695-.013-.023s.094-.072.245-.209l.743-.743c1.526-1.69 3.92-5.445.201-9.679L496.357 419l-16.185-16.185-12.574-12.574c-4.233-3.719-7.989-1.324-9.679.202l-.743.743a4.791 4.791 0 0 0-.208.244l-.023-.013-9.695 9.695-56.928 56.928.014.023s-.094.073-.244.208l-.744.744c-1.526 1.69-3.92 5.445-.201 9.678l12.574 12.574 16.185 16.184 12.573 12.573c4.233 3.72 7.987 1.326 9.678-.201z" fill="#6598cb"/><path d="M443.331 497.451l-16.185-16.185-12.574-12.574c-3.719-4.233-1.324-7.988.201-9.678l.744-.744c.15-.134.244-.208.244-.208l-.014-.023 56.928-56.928 2.895-2.896-7.974-7.974c-4.233-3.719-7.989-1.324-9.679.202l-.743.743a4.791 4.791 0 0 0-.208.244l-.023-.013-9.695 9.695-56.928 56.928.014.023s-.094.073-.244.208l-.744.744c-1.526 1.69-3.92 5.445-.201 9.678l12.574 12.574 16.186 16.184 12.573 12.573c4.233 3.72 7.988 1.325 9.679-.201l.743-.743c.135-.15.208-.244.208-.244l.023.014 6.8-6.8-4.6-4.599z" fill="#4982aa"/></svg>