<svg xmlns="http://www.w3.org/2000/svg" viewBox="0 0 512 512"><path fill="#ffd782" d="M222.63 266.779l22.584 22.584-57.379 57.379-22.584-22.584z"/><path d="M202.44 286.975a186.445 186.445 0 0 0 22.584 22.585l20.2-20.2-22.584-22.585-20.2 20.2z" fill="#ffc36e"/><path d="M344.276 0c-92.631 0-167.724 75.093-167.724 167.724s75.093 167.724 167.724 167.724S512 260.355 512 167.724 436.907 0 344.276 0zm0 308.966c-78.005 0-141.241-63.236-141.241-141.241 0-78.006 63.236-141.241 141.241-141.241 78.006 0 141.241 63.235 141.241 141.241.001 78.004-63.235 141.241-141.241 141.241z" fill="#ffd782"/><path d="M23.9 506.83L5.172 488.106c-6.895-6.894-6.897-18.074-.001-24.97L154.17 314.137c6.894-6.894 18.072-6.894 24.967-.001l18.728 18.724c6.895 6.894 6.897 18.074.001 24.97L48.867 506.829c-6.894 6.895-18.072 6.895-24.967.001z" fill="#707487"/><path d="M22.826 480.791l148.999-148.999c6.894-6.894 18.071-6.895 24.967-.001l1.092 1.091s-.011-.015-.019-.022l-18.728-18.724c-6.895-6.893-18.072-6.893-24.967.001l-148.999 149c-6.895 6.895-6.895 18.074.001 24.969l17.641 17.638c-6.88-6.896-6.878-18.063.013-24.953z" fill="#5b5d6e"/><path d="M186.987 368.708l10.878-10.878c6.895-6.895 6.894-18.074-.001-24.969l-18.728-18.724c-6.895-6.893-18.072-6.893-24.967.001l-10.876 10.877 43.694 43.693z" fill="#ffd782"/><path d="M160.947 342.669l10.877-10.877c6.894-6.894 18.071-6.895 24.967-.001l1.09 1.09c-.007-.007-.01-.014-.017-.021l-18.728-18.724c-6.895-6.893-18.072-6.893-24.967.001l-10.876 10.877 17.654 17.655zm244.51-141.14c0-23.964-14.135-38.652-42.407-44.836l-9.951-1.953v-41.19c7.596 1.591 13.591 6.093 16.583 12.095 2.531 5.078 7.694 8.299 13.368 8.299 11.561 0 19.06-12.743 12.905-22.529-8.034-12.775-23.093-21.34-42.857-23.534v-7.115c0-5.603-4.542-10.145-10.145-10.145s-10.145 4.542-10.145 10.145v7.112c-31.364 3.415-49.713 20.58-49.713 46.839 0 22.97 14.246 38.321 40.861 44.505l8.852 2.088v43.287c-8.964-1.666-15.784-6.261-19.149-12.715-2.615-5.015-7.694-8.254-13.351-8.254h-1.492c-11.567 0-18.98 12.704-12.902 22.547 8.28 13.407 24.621 21.856 46.893 23.724v4.783c0 5.603 4.542 10.145 10.145 10.145s10.145-4.542 10.145-10.145v-4.887c33.49-3.449 52.36-20.732 52.36-48.266zm-90.445-69.573c0-9.639 7.281-16.931 17.798-18.569v37.085c-11.625-3.167-17.798-9.511-17.798-18.516zm38.086 93.035v-39.84c14.38 3.236 21.105 9.64 21.105 19.913.001 11.189-7.784 18.528-21.105 19.927z" fill="#ffc36e"/></svg>