<svg xmlns="http://www.w3.org/2000/svg" viewBox="0 0 512 512"><path d="M451.956 387.423c-33.106 0-60.041 26.935-60.041 60.042 0 33.108 26.935 60.044 60.041 60.044 33.108 0 60.044-26.936 60.044-60.044s-26.936-60.042-60.044-60.042zm-391.915 0C26.935 387.423 0 414.357 0 447.464c0 33.108 26.935 60.044 60.041 60.044 33.108 0 60.045-26.936 60.045-60.044.001-33.107-26.936-60.041-60.045-60.041zm195.957 0c-33.106 0-60.041 26.935-60.041 60.042 0 33.108 26.935 60.044 60.041 60.044 33.108 0 60.045-26.936 60.045-60.044s-26.937-60.042-60.045-60.042z" fill="#75bf4d"/><path d="M405.127 447.464c0-30.874 23.426-56.37 53.434-59.671a60.317 60.317 0 0 0-6.606-.371c-33.106 0-60.041 26.935-60.041 60.042 0 33.108 26.935 60.044 60.041 60.044 2.233 0 4.435-.132 6.606-.371-30.006-3.301-53.434-28.797-53.434-59.673zm-391.914 0c0-30.874 23.425-56.37 53.434-59.671a60.317 60.317 0 0 0-6.606-.371C26.935 387.423 0 414.357 0 447.464c0 33.108 26.935 60.044 60.041 60.044 2.233 0 4.435-.132 6.606-.371-30.009-3.301-53.434-28.797-53.434-59.673zm195.957 0c0-30.874 23.425-56.37 53.434-59.671a60.317 60.317 0 0 0-6.606-.371c-33.106 0-60.041 26.935-60.041 60.042 0 33.108 26.935 60.044 60.041 60.044 2.233 0 4.435-.132 6.606-.371-30.008-3.301-53.434-28.797-53.434-59.673z" fill="#56a846"/><g fill="#d9d8da"><path d="M451.958 370.98a8.256 8.256 0 0 1-8.258-8.258v-56.867H68.299v56.867c0 4.562-3.696 8.258-8.258 8.258s-8.258-3.696-8.258-8.258v-65.125a8.256 8.256 0 0 1 8.258-8.258h391.917a8.256 8.256 0 0 1 8.258 8.258v65.125a8.257 8.257 0 0 1-8.258 8.258z"/><path d="M256 370.98a8.256 8.256 0 0 1-8.258-8.258V246.008A8.256 8.256 0 0 1 256 237.75a8.256 8.256 0 0 1 8.258 8.258v116.714A8.256 8.256 0 0 1 256 370.98z"/></g><path d="M252.471 471.544a8.23 8.23 0 0 1-5.719-2.301l-16.809-16.14a8.258 8.258 0 0 1 11.439-11.914l11.08 10.639 22.547-21.725a8.259 8.259 0 0 1 11.46 11.893l-28.267 27.237a8.24 8.24 0 0 1-5.731 2.311zm-195.955 0a8.23 8.23 0 0 1-5.719-2.301l-16.809-16.14a8.258 8.258 0 0 1 11.439-11.914l11.08 10.639 22.546-21.725a8.259 8.259 0 0 1 11.46 11.893l-28.267 27.237a8.237 8.237 0 0 1-5.73 2.311zm391.913 0a8.23 8.23 0 0 1-5.719-2.301l-16.809-16.14a8.258 8.258 0 0 1 11.438-11.914l11.08 10.639 22.547-21.725a8.26 8.26 0 0 1 11.461 11.893l-28.267 27.237a8.24 8.24 0 0 1-5.731 2.311z" fill="#fff"/><path d="M334.578 185.68a54.2 54.2 0 0 0-.039-1.861c-.004-.086-.002-.175-.008-.261-.012-.312-.037-.614-.057-.922-.023-.391-.043-.787-.076-1.172-.014-.161-.035-.317-.051-.477a52.861 52.861 0 0 0-.171-1.561l-.02-.131c-1.404-10.5-6.185-18.168-11.559-23.393-.024-.025-.05-.048-.074-.074a48.22 48.22 0 0 0-.849-.798c-.14-.129-.282-.252-.424-.377a31.695 31.695 0 0 0-1.403-1.194c-3.447-2.787-6.897-4.601-9.604-5.536-.012-.003-.023-.009-.035-.012l-.07-.026c-.009-.002-.018-.006-.025-.009l-35.505-14.237-8.87 9.206-9.072 8.835-9.071-8.835-8.87-9.206-35.506 14.237-.025.009-.07.026-.034.012c-2.708.936-6.157 2.749-9.605 5.536l-.089.073a31.695 31.695 0 0 0-1.314 1.121c-.142.123-.283.248-.424.377-.284.259-.566.527-.848.798l-.076.074c-5.372 5.226-10.153 12.894-11.558 23.393l-.02.131c-.069.511-.12 1.035-.172 1.561-.014.16-.036.315-.05.477-.033.385-.053.781-.077 1.172-.019.307-.044.61-.058.922-.003.086-.001.175-.006.261-.022.616-.04 1.231-.04 1.861v5.643h.001v17.246c.231 2.691 1.625 7.423 8.584 7.423h138.659c6.959 0 8.352-4.732 8.584-7.423V185.68h-.003z" fill="#6598cb"/><path d="M238.551 134.04l-35.321 13.833-.11.039c-9.05 3.228-24.369 14.815-24.369 37.769v22.889c.231 2.691 1.625 7.423 8.584 7.423h1.789V185.68c0-22.954 15.318-34.541 24.368-37.769l.11-.039 27.922-10.936-2.973-2.896z" fill="#4982aa"/><path d="M258.493 4.493h-3.828c-26.145 0-47.413 21.272-47.413 47.416v22.243s10.794-1.071 12.122-6.306l-.008-.006a5.968 5.968 0 0 0 1.108-1.692c6.123-.185 34.726-.407 51.06-20.134 1.949 5.702 8.544 16.5 21.232 19.901.261.688.65 1.308 1.125 1.847l-.106.085c1.327 5.235 12.123 6.306 12.123 6.306V51.909c-.001-26.144-21.271-47.416-47.415-47.416zm35.747 59.948l.456-.33h.065l-.744.551.223-.221zm-.231.142l.052-.161.16-.312h.065l-.189.39-.088.083zm-1.258.973l-.018-.025 1.168-.846-.276.266-.854.632-.02-.027zm.965-.275l-.368.758-.004-.002-.053-.023a.108.108 0 0 1-.024-.014l.597-1.186.017-.015-.165.482z" fill="#694b4b"/><path d="M215.608 64.15V51.908c0-25.385 20.054-46.17 45.15-47.357a48.672 48.672 0 0 0-2.266-.058h-3.828c-26.145 0-47.413 21.272-47.413 47.416v22.243s4.769-.476 8.357-2.33V64.15z" fill="#563b3b"/><path d="M300.213 67.277a5.97 5.97 0 0 0-7.747 5.7v17.012a5.97 5.97 0 0 0 7.745 5.699 14.877 14.877 0 0 0 3.342-1.529 6.016 6.016 0 0 0 1.632-1.479 6.003 6.003 0 0 0 1.74-1.353 14.857 14.857 0 0 0 3.741-9.846c0-6.547-4.2-12.255-10.453-14.204z" fill="#fbcb99"/><path d="M218.434 68.166a5.98 5.98 0 0 0-5.315-.89 14.816 14.816 0 0 0-10.454 14.204 14.816 14.816 0 0 0 10.454 14.206 5.967 5.967 0 0 0 5.315-.892 5.963 5.963 0 0 0 2.433-4.807V72.974a5.972 5.972 0 0 0-2.433-4.808z" fill="#edba89"/><path d="M272.965 119.644a5.996 5.996 0 0 0-4.384-1.653l-.204.01a5.955 5.955 0 0 0-1.082.138 32.224 32.224 0 0 1-6.979.773h-7.299a32.19 32.19 0 0 1-7.187-.819 5.956 5.956 0 0 0-5.054 1.148 5.974 5.974 0 0 0-2.251 4.669v17.366l-.003.059a5.975 5.975 0 0 0 1.795 4.607l11.996 11.684a5.963 5.963 0 0 0 4.164 1.691h.096a5.96 5.96 0 0 0 4.203-1.828l12.358-12.828a5.962 5.962 0 0 0 1.67-4.14v-16.563c0-1.63-.664-3.188-1.839-4.314z" fill="#fbcb99"/><path d="M257.686 155.832L245.69 144.15a5.966 5.966 0 0 1-1.796-4.607l.006-.059v-17.365c0-1.528.59-2.981 1.623-4.079a5.973 5.973 0 0 0-4.747 1.202 5.974 5.974 0 0 0-2.251 4.669v17.366l-.003.059a5.975 5.975 0 0 0 1.795 4.607l11.996 11.684a5.963 5.963 0 0 0 4.164 1.691h.096a5.96 5.96 0 0 0 4.203-1.828l.054-.056a5.967 5.967 0 0 1-3.144-1.602z" fill="#edba89"/><path d="M291.567 62.404a20.57 20.57 0 0 1-2.069-.916c-10.031-4.681-14.195-10.767-15.872-14.4a4.267 4.267 0 0 1-.301-.478c-1.199-2.204-3.068-.809-3.068-.809l-.008-.004c-9.368 7.186-19.6 11.387-28.107 13.833a87.233 87.233 0 0 1-9.353 2.2c-5.701 1.047-9.368 1.184-9.368 1.184a5.972 5.972 0 0 0-5.542 5.956v24.359c0 19.376 15.763 35.136 35.138 35.136h7.299c19.372 0 35.135-15.761 35.135-35.136v-25.33a5.972 5.972 0 0 0-3.884-5.595z" fill="#fbcb99"/><path d="M225.044 93.328V68.969c0-3.13 2.418-5.73 5.541-5.956 0 0 3.665-.137 9.368-1.184a87.374 87.374 0 0 0 9.355-2.2c7.528-2.165 16.408-5.709 24.848-11.477a19.805 19.805 0 0 1-.53-1.065 4.267 4.267 0 0 1-.301-.478c-1.199-2.204-3.068-.809-3.068-.809l-.008-.004c-9.368 7.186-19.6 11.387-28.107 13.833a87.233 87.233 0 0 1-9.353 2.2c-5.701 1.047-9.368 1.184-9.368 1.184a5.972 5.972 0 0 0-5.542 5.956v24.359c0 19.376 15.763 35.136 35.138 35.136h7.161c-19.372 0-35.134-15.761-35.134-35.136z" fill="#edba89"/></svg>