<svg xmlns="http://www.w3.org/2000/svg" viewBox="0 0 475 210"><title>integration-tile</title><path d="M102.37 118.07l5.66 10a2.94 2.94 0 0 1-2.51 4.31l-8.64-.38 1-14.58z" fill="#444445"/><path d="M100.66 121.17c-.47 0-1.33 7.39 3.7 27.36l-2.23 2.15a7.8 7.8 0 0 1-5.79 1.9l-5.6-.85-15.44-29.54H66l-8.49-8.74V97.07l9.17-9.17s99.47 5.94 100.66-23.42h6.62v81.14h-6.66s6.25-22.08-66.64-24.45z" fill="#d4d1c4"/><path d="M100.66 121.17c-.47 0-1.33 7.39 3.7 27.36l-2.23 2.15a7.8 7.8 0 0 1-5.79 1.9l-5.6-.85-15.44-29.54H66l-8.49-8.74V97.07l9.17-9.17s99.47 5.94 100.66-23.42h6.62v81.14h-6.66s6.25-22.08-66.64-24.45z" fill="#d4d1c4"/><path d="M167 145.61h6.88V64.48H167s.48 81.52 0 81.13z" fill="#fafae6"/><path d="M79.52 130.3c-.68 0 20.73-5.22 20.73-5.22l1.24-3.9-28.91-2.89s7.11 12.01 6.94 12.01z" fill="#aeaea8"/><path fill="#3a5899" d="M100.25 87.71l.45 33.4-24.48-.28-1.02 1.87h-9.24l-8.87-8.87V97.07l9.36-9.36h33.8z"/><path d="M173.92 64.48v81.14h-6.51a2.82 2.82 0 0 1 0-.66c.34-3.68-1.37-21.66-66.74-23.79-.47 0-1.32 7.41 3.7 27.36l-2.23 2.15A7.8 7.8 0 0 1 97 152.6h-.65l-5.6-.85L74.44 121h-8.11l-7.9-8.72V98l8.66-9.43S74 89 84.1 89c28.36 0 82.32-2.85 83.2-24.48h6.62m0-2.72h-6.62a2.72 2.72 0 0 0-2.71 2.61C164 78.06 133.95 86.24 84.1 86.24c-10 0-16.8-.36-16.87-.36h-.14a2.72 2.72 0 0 0-2 .88l-8.66 9.43a2.72 2.72 0 0 0-.72 1.81v14.3a2.72 2.72 0 0 0 .7 1.82l7.9 8.72a2.72 2.72 0 0 0 2 .89h6.49L88.35 153a2.72 2.72 0 0 0 2 1.41l5.6.85h1.06a10.51 10.51 0 0 0 6.92-2.6l.1-.09 2.23-2.15a2.72 2.72 0 0 0 .75-2.62c-3.47-13.77-4-20.88-4-23.89 19 .77 49.44 3.76 59.2 14.83 2.47 2.8 2.56 5.06 2.48 5.91a5.36 5.36 0 0 0 0 1.36 2.72 2.72 0 0 0 2.68 2.27h6.51a2.72 2.72 0 0 0 2.72-2.72V64.48a2.72 2.72 0 0 0-2.72-2.72z" fill="#444445"/><path d="M326.54 78.5a9.17 9.17 0 0 0-8.48 3.5V64.48l-8.63 1.08v40.52h8.63v-2.46a23.14 23.14 0 0 0 3.54 2.31c5.08 1.85 11.55.31 14-6.32a22.33 22.33 0 0 0 .31-13.1c-1.21-4.78-4.44-7.4-9.37-8.01zm1.23 17.56c-.31 2.62-2.46 4-5.08 3.85a5.54 5.54 0 0 1-1.69-.31 5.82 5.82 0 0 1-2.77-4.31c-.15-1.85-.31-5.85.62-7.7a4.73 4.73 0 0 1 4-2.31c2.62-.15 4.62 1.23 4.93 3.85a26.11 26.11 0 0 1-.01 6.93zM357 79.11a17.56 17.56 0 0 0-8.94 0c-4.47 1.23-7.39 4-8.47 8.47a31.11 31.11 0 0 0-.46 7.55 11.52 11.52 0 0 0 9.4 11.09h.31c.15 0 .46.15.62.15h.15c.31 0 .62.15.92.15a13.64 13.64 0 0 0 3.54 0h.15a11.69 11.69 0 0 0 11.25-9.4 18.17 18.17 0 0 0 0-9.09 10.82 10.82 0 0 0-8.47-8.92zm.31 16.64a.57.57 0 0 1-.15.46 4.81 4.81 0 0 1-4.93 3.85 4.72 4.72 0 0 1-4.78-4.31 37.13 37.13 0 0 1 0-5.85c.31-3.08 2.16-4.78 5.08-4.62A4.61 4.61 0 0 1 357.2 89a20.37 20.37 0 0 1 .15 6.75zM227.79 79h-6.16v-4.2c.46-3.85 6.78-3.08 6.78-3.08v-6.63c-.15 0-12.63-3.08-15.1 6.47-.46 1.23-.31 6.62-.31 7.24h-5.4V86h5.7v19.72h8.17V86h6.32l.77-7.24h-.77zm19.72 3.35l-.31-.35-.15-.15c-2-2-2.62-2.46-4.16-2.93a10.65 10.65 0 0 0-13.4 7.24 23.91 23.91 0 0 0-.49 10.98c1.39 7.86 7.24 10.63 13.56 9.24a7.58 7.58 0 0 0 4.62-3.24 1.91 1.91 0 0 0 .31-.46v3.54h8V79h-8v3.39zm-.77 13.71a4.57 4.57 0 0 1-4.78 4c-2.46-.15-4.16-1.39-4.62-3.85a26.74 26.74 0 0 1 .15-7.7c.62-2.31 2.31-3.39 4.78-3.39a4.25 4.25 0 0 1 4.46 3.88 36.3 36.3 0 0 1 0 7.06zm33.26 8.16a30.43 30.43 0 0 0-1.23-4l-.46-1.39s-10 4.78-11.71-4.31a15.52 15.52 0 0 1 .15-4.62 5.14 5.14 0 0 1 4.93-4.62 8.41 8.41 0 0 1 2.77.15c1.23.15 2.46.62 3.85.92.46-1.39.92-2.93 1.39-4.31 0-.15.15-.46.15-.62l.15-.92a.33.33 0 0 0-.31-.31l-1.23-.62c-.31-.15-.46-.15-.77-.31a.54.54 0 0 1-.31-.15 20.74 20.74 0 0 0-8.17-.46c-5.85.62-9.71 4-10.78 9.71a19.46 19.46 0 0 0 .15 8.94 10.7 10.7 0 0 0 8.17 8.63 21.17 21.17 0 0 0 8.78.46 22.7 22.7 0 0 0 4.31-1.23l.46-.15-.31-.77zm26.51-10.63a35.36 35.36 0 0 0-.31-5.7c-.77-5.08-3.85-8.32-8.78-9.09a24.61 24.61 0 0 0-5.85-.15c-5.24.46-9.4 3.85-10.17 8.78a31 31 0 0 0-.15 9.24c.62 4.62 2.77 7.39 6.62 8.94 1.69.46 10.32 2.77 17.87-1.08l-.31-1.08c-.31-1.54-.77-2.93-1.23-4.47v-.15a1.19 1.19 0 0 0-.46.15c-.31.15-.62.15-.92.31h-.15a25 25 0 0 1-4.47.92 21.64 21.64 0 0 1-4.47 0c-2.46-.46-4.31-1.69-4.16-4.78h16.95v-1.84zm-7.7-3.7h-9.24c0-1.85.31-3.54 1.85-4.62a5.49 5.49 0 0 1 5.55-.15c1.68.88 1.84 2.77 1.84 4.78zM423.9 79.27h-9.09l-8.01 12.32V64.48l-8.62 1.08v40.67h8.62V93.75l8.01 12.48h9.09l-8.62-13.56 8.62-13.4zm-37.43-.16a17.56 17.56 0 0 0-8.94 0c-4.47 1.23-7.39 4-8.47 8.47a31.11 31.11 0 0 0-.46 7.55 11.52 11.52 0 0 0 9.4 11.09h.31c.15 0 .46.15.62.15h.15c.31 0 .62.15.92.15a13.64 13.64 0 0 0 3.54 0h.15a11.69 11.69 0 0 0 11.25-9.4 18.17 18.17 0 0 0 0-9.09 11 11 0 0 0-8.47-8.92zm.31 16.64a.57.57 0 0 1-.15.46 4.81 4.81 0 0 1-4.93 3.85 4.72 4.72 0 0 1-4.78-4.31 37.13 37.13 0 0 1 0-5.85c.31-3.08 2.16-4.78 5.08-4.62a4.61 4.61 0 0 1 4.62 3.7c.62 2.15.16 6.15.16 6.77zm-18.43 46.62l-3.17 9a.24.24 0 0 1-.24.24h-3.17a.24.24 0 0 1-.24-.24c2.44-6.82 6.58-18.52 9.5-26.07.24-.24.24-.73.24-1.7a.25.25 0 0 1 .24-.25h4.39c.24 0 .24 0 .24.24 3.41 9 6.82 18.76 10.23 27.78 0 .24 0 .24-.24.24h-3.41c-.24 0-.24 0-.24-.24l-3.17-9h-11zm9.75-3.17c-1-2.92-3.65-10-4.39-13.16-.73 2.68-2.68 8.28-4.39 13.16zm9.5 2.19c0-6.34 4.63-11 11.45-11a6.69 6.69 0 0 1 3.17.49v-9.75a.24.24 0 0 1 .24-.24h3.17a.24.24 0 0 1 .24.24v28.75c0 .24 0 .24-.24.49a15.12 15.12 0 0 1-7.8 2.19c-6.09-.45-10.23-4.1-10.23-11.17zm14.62-7.55a7.23 7.23 0 0 0-3.41-.49c-4.87 0-7.55 3.17-7.55 7.8 0 5.6 3.41 7.8 7.07 7.8a17 17 0 0 0 3.9-.49zm14.86-.49c-2.92 0-3.65 1.46-3.65 2.68 0 1.46.73 2.19 4.39 3.65 4.14 1.71 6.09 3.17 6.09 6.34 0 4.14-3.41 6.34-7.55 6.34a12.16 12.16 0 0 1-6.34-1.71c-.24 0-.24-.24-.24-.49v-2.92a.24.24 0 0 1 .22-.24 13.23 13.23 0 0 0 6.58 2.19c2.68 0 3.65-1.46 3.65-2.92s-1-2.44-4.63-3.9c-3.9-1.71-5.85-3.17-5.85-6.34 0-3.41 2.68-5.85 7.31-5.85a9.63 9.63 0 0 1 5.36 1.22c.24.24.24.24.24.49v2.68c0 .24 0 .24-.24.24a10.78 10.78 0 0 0-5.34-1.46z" fill="#4868aa"/></svg>