<svg xmlns="http://www.w3.org/2000/svg" viewBox="0 0 765 359" height="359" width="765" version="1"><title>Google Adwords</title><path d="M195.1 56.9c-.4 0-.8-.1-1.2-.1h-80.5c-1.1 0-1.5.4-1.8 1.4C90 123.1 43.5 262.8 43.5 262.8c-.1.2-9.3 27.4-13.7 40.8-.1.2-.5.6 0 .9h61.9c2.5 0 5-.3 7.4-1.1 9.7-3.1 16.2-9.4 19.2-19.3.1-.1 32.3-94.9 34.6-101.4.2-.7 41.3-119.6 41.2-121.1.3-1.1 1.3-4.2 1-4.7z" fill="#4285f4"/><path d="M276.9 303.5c-7.5-22.8-79.1-240-81.3-246.4 0-.3-.3-.3-.5-.2-.1.4-14.1 43-14.1 43-.1.1-26.1 76.4-27.6 80.8 1.1 3.2 28.1 83.6 31.6 94 1.3 3.9 4.2 12.5 4.4 12.9 4.4 9.2 11.5 14.8 21.6 16.6 1.7.3 3.4.3 5.1.3 19.7 0 60 0 60.4-.1 1.3 0 .4-.7.4-.9zM157.4 184.7s-.1 0 0 0c-.1 0 0 0 0 0zm15.2-21.5zm39.2 20.7z" fill="#34a853"/><path d="M388.2 110.1h-54.7v16.1h38.9c-1.9 22.5-20.6 32.2-38.4 32.2-22.7 0-42.4-17.8-42.4-42.8 0-24.4 18.9-43.1 42.5-43.1 18.2 0 29 11.6 29 11.6l11.2-11.6s-14.4-16.1-40.8-16.1c-33.6 0-59.5 28.3-59.5 59 0 30 24.4 59.2 60.4 59.2 31.6 0 54.8-21.7 54.8-53.7-.1-6.9-1-10.8-1-10.8z" fill="#4285f4"/><path d="M434.5 98.5c-22.3 0-38.2 17.4-38.2 37.7 0 20.6 15.5 38.3 38.5 38.3 20.8 0 37.9-15.9 37.9-37.9-.2-25.1-20-38.1-38.2-38.1zm.1 14.9c10.9 0 21.3 8.8 21.3 23.1 0 14-10.3 23-21.4 23-12.1 0-21.7-9.7-21.7-23.2.1-13.1 9.6-22.9 21.8-22.9z" fill="#ea4335"/><path d="M517 98.5c-22.3 0-38.2 17.4-38.2 37.7 0 20.6 15.5 38.3 38.5 38.3 20.8 0 37.9-15.9 37.9-37.9-.1-25.1-19.9-38.1-38.2-38.1zm.2 14.9c10.9 0 21.3 8.8 21.3 23.1 0 14-10.3 23-21.4 23-12.1 0-21.7-9.7-21.7-23.2.1-13.1 9.5-22.9 21.8-22.9z" fill="#fbbc05"/><path d="M598.5 98.5c-20.4 0-36.4 17.9-36.4 37.9 0 22.9 18.6 38 36.1 38 10.8 0 16.6-4.3 20.8-9.2v7.5c0 13.1-8 21-20 21-11.6 0-17.4-8.6-19.5-13.5l-14.6 6.1c5.2 11 15.6 22.4 34.1 22.4 20.3 0 35.8-12.8 35.8-39.6V99.8h-15.9v7.4c-4.9-5.3-11.5-8.7-20.4-8.7zm1.4 14.9c10 0 20.3 8.6 20.3 23.1 0 14.8-10.3 23-20.5 23-10.9 0-21-8.8-21-22.9 0-14.5 10.5-23.2 21.2-23.2z" fill="#4285f4"/><path d="M704.3 98.4c-19.3 0-35.5 15.3-35.5 37.9 0 23.9 18 38.1 37.3 38.1 16.1 0 25.9-8.8 31.8-16.7l-13.1-8.7c-3.4 5.3-9.1 10.4-18.6 10.4-10.7 0-15.6-5.9-18.6-11.5l50.9-21.2-2.6-6.2c-5-12-16.5-22.1-31.6-22.1zm.6 14.6c6.9 0 11.9 3.7 14 8.1l-34 14.2c-1.4-11 9-22.3 20-22.3z" fill="#ea4335"/><path fill="#34a853" d="M645.5 60.3h15.6v111.9h-15.6z"/><path d="M410.8 301.9c.2.5.3.9.3 1.3 0 .3-.1.6-.4.8-.2.2-.6.3-1 .3-.5.1-1.1.1-1.8.1s-1.3 0-1.7-.1c-.4-.1-.8-.1-1-.2-.2-.1-.4-.2-.5-.4l-.3-.6-6.4-17.9h-29.5l-6.2 17.8c-.1.2-.2.5-.3.6-.1.2-.3.3-.6.4-.2.1-.6.2-1 .3-.4.1-1 .1-1.6.1-.7 0-1.3 0-1.8-.1s-.8-.2-1.1-.4c-.2-.2-.3-.4-.4-.7 0-.3.1-.7.3-1.2l23.5-63.9c.1-.3.3-.5.5-.7.2-.2.5-.3.8-.4.3-.1.7-.2 1.2-.2.5-.1 1-.1 1.6-.1.6 0 1.2 0 1.6.1.5.1.9.1 1.2.2.3.1.6.3.8.4.2.2.3.4.4.7l23.4 63.8zM383 243.7l-12.7 36.1H396l-13-36.1zm76.8 59.3c0 .2 0 .5-.1.6-.1.2-.2.3-.5.4-.2.1-.5.2-.9.2-.3.1-.8.1-1.3.1-.6 0-1 0-1.4-.1-.4-.1-.7-.1-.9-.2-.2-.1-.4-.2-.5-.4-.1-.2-.2-.4-.2-.6v-6.7c-2.5 2.7-5.1 4.8-7.7 6.4-2.7 1.5-5.6 2.3-8.7 2.3-3.4 0-6.3-.7-8.7-2-2.4-1.3-4.3-3.1-5.8-5.3-1.5-2.2-2.6-4.9-3.3-7.9-.7-3-1-6.2-1-9.6 0-4 .4-7.6 1.3-10.8.9-3.2 2.1-5.9 3.8-8.2 1.7-2.2 3.8-4 6.3-5.2 2.5-1.2 5.4-1.8 8.7-1.8 2.8 0 5.4.6 7.8 1.9 2.4 1.3 4.7 3.1 7 5.6v-28.3c0-.2 0-.4.1-.6.1-.2.3-.3.5-.4.2-.1.6-.2 1-.3.4-.1.9-.1 1.5-.1s1.1 0 1.5.1c.4.1.7.2.9.3.2.1.4.2.5.4.1.2.2.4.2.6l-.1 69.6zm-6.2-33.9c-2.6-3.1-5.1-5.6-7.5-7.2-2.4-1.7-4.9-2.5-7.6-2.5-2.4 0-4.4.6-6.1 1.7-1.7 1.1-3.1 2.6-4.2 4.5s-1.9 4-2.3 6.3c-.5 2.4-.7 4.7-.7 7.2 0 2.6.2 5.1.6 7.6.4 2.5 1.1 4.6 2.1 6.6 1 1.9 2.3 3.5 4 4.6 1.7 1.2 3.7 1.7 6.2 1.7 1.2 0 2.5-.2 3.6-.5 1.2-.3 2.4-.9 3.6-1.7 1.2-.8 2.5-1.8 3.9-3.1 1.3-1.3 2.8-2.8 4.3-4.7v-20.5h.1zm85.5 33.8c-.1.3-.3.5-.5.7-.2.2-.5.3-.9.4-.4.1-.8.2-1.2.2-.5.1-1 .1-1.6.1-.6 0-1.2 0-1.7-.1s-.9-.1-1.3-.2-.7-.3-.9-.4c-.2-.2-.4-.4-.5-.7l-15.9-55.2h-.1L500 302.9c-.1.3-.2.5-.4.7-.2.2-.5.3-.8.4-.3.1-.7.2-1.2.2-.5.1-1 .1-1.7.1s-1.3 0-1.8-.1-.9-.1-1.3-.2-.7-.3-.9-.4c-.2-.2-.4-.4-.5-.7l-19-63.9c-.2-.6-.3-1-.3-1.3 0-.3.1-.6.3-.7.2-.2.6-.3 1-.3.5-.1 1.1-.1 1.8-.1.8 0 1.4 0 1.8.1.4.1.8.1 1 .2.2.1.4.2.5.4.1.2.2.4.2.6l16.9 58.9h.1l15.5-58.9.3-.6c.1-.2.3-.3.5-.4.3-.1.6-.2 1.1-.2.5-.1 1.1-.1 1.8-.1.6 0 1.1 0 1.4.1.4.1.7.1.9.2.2.1.4.2.5.4l.3.6 16.9 58.9h.1l16.5-58.9c.1-.2.1-.4.2-.6.1-.2.3-.3.5-.4.2-.1.6-.2 1-.2.4-.1 1-.1 1.7-.1.8 0 1.4 0 1.8.1.4.1.8.2 1 .4.2.2.3.4.4.7 0 .3 0 .7-.2 1.2l-18.8 63.9zm68.6-23.9c0 3.7-.5 7.2-1.5 10.3-1 3.1-2.4 5.9-4.3 8.2-1.9 2.3-4.3 4.1-7.2 5.4-2.9 1.3-6.2 1.9-10 1.9-3.7 0-6.9-.6-9.6-1.7-2.8-1.2-5.1-2.8-6.9-5-1.9-2.2-3.2-4.8-4.2-7.9-.9-3.1-1.4-6.6-1.4-10.4 0-3.7.5-7.2 1.4-10.3 1-3.1 2.4-5.9 4.3-8.2 1.9-2.3 4.3-4.1 7.2-5.4 2.9-1.3 6.2-1.9 10.1-1.9 3.7 0 6.9.6 9.6 1.7 2.8 1.1 5 2.8 6.9 5 1.8 2.2 3.2 4.8 4.2 7.9.9 3.1 1.4 6.6 1.4 10.4zm-6.5.6c0-2.7-.3-5.2-.8-7.6-.5-2.4-1.4-4.6-2.6-6.4-1.2-1.9-2.8-3.3-4.9-4.4-2-1.1-4.6-1.6-7.6-1.6-2.8 0-5.2.5-7.3 1.5-2 1-3.7 2.4-5 4.2-1.3 1.8-2.3 3.9-2.9 6.3-.6 2.4-.9 5-.9 7.8 0 2.7.3 5.3.8 7.7.5 2.4 1.4 4.6 2.6 6.4 1.2 1.8 2.8 3.3 4.9 4.4 2 1.1 4.6 1.6 7.6 1.6 2.8 0 5.2-.5 7.3-1.5 2-1 3.7-2.4 5-4.2 1.3-1.8 2.3-3.9 2.9-6.3.5-2.4.9-5 .9-7.9zm46.4-21.2c0 .5 0 1-.1 1.3 0 .4-.1.7-.2.9-.1.2-.2.4-.3.5-.1.1-.3.2-.5.2-.3 0-.7-.1-1.1-.2-.4-.2-.9-.3-1.5-.5s-1.2-.3-1.8-.5c-.7-.2-1.4-.2-2.2-.2-.9 0-1.9.2-2.8.6-.9.4-1.8 1-2.8 1.9-1 .9-2 2.1-3.1 3.5-1.1 1.5-2.3 3.2-3.6 5.3V303c0 .2-.1.4-.2.6-.1.2-.3.3-.5.4-.2.1-.5.2-.9.3-.4.1-.9.1-1.5.1s-1.1 0-1.5-.1c-.4-.1-.7-.2-1-.3-.2-.1-.4-.2-.5-.4-.1-.2-.1-.4-.1-.6v-47c0-.2 0-.4.1-.6.1-.2.3-.3.5-.4.2-.1.5-.2.9-.3.4-.1.8-.1 1.4-.1.6 0 1.1 0 1.5.1.4.1.7.1.9.3.2.1.4.3.4.4.1.2.1.4.1.6v7.4c1.3-2 2.6-3.6 3.7-4.8 1.1-1.2 2.2-2.2 3.3-2.8 1-.7 2.1-1.1 3-1.4 1-.2 2-.4 3-.4.4 0 1 0 1.6.1.6.1 1.2.1 1.9.3.7.1 1.3.3 1.8.5s.9.4 1.1.5l.4.4c.1.1.1.3.2.5s.1.5.1.8c.3.4.3.8.3 1.3zm46.9 44.6c0 .2 0 .5-.1.6-.1.2-.2.3-.5.4-.2.1-.5.2-.9.2-.3.1-.8.1-1.3.1-.6 0-1 0-1.4-.1-.4-.1-.7-.1-.9-.2-.2-.1-.4-.2-.5-.4-.1-.2-.2-.4-.2-.6v-6.7c-2.5 2.7-5.1 4.8-7.7 6.4-2.7 1.5-5.6 2.3-8.7 2.3-3.4 0-6.3-.7-8.7-2-2.4-1.3-4.3-3.1-5.8-5.3-1.5-2.2-2.6-4.9-3.3-7.9-.7-3-1-6.2-1-9.6 0-4 .4-7.6 1.3-10.8.9-3.2 2.1-5.9 3.8-8.2 1.7-2.2 3.8-4 6.3-5.2 2.5-1.2 5.4-1.8 8.7-1.8 2.8 0 5.4.6 7.8 1.9 2.4 1.3 4.7 3.1 7 5.6v-28.3c0-.2 0-.4.1-.6.1-.2.3-.3.5-.4.2-.1.6-.2 1-.3.4-.1.9-.1 1.5-.1s1.1 0 1.5.1c.4.1.7.2.9.3.2.1.4.2.5.4.1.2.2.4.2.6l-.1 69.6zm-6.1-33.9c-2.6-3.1-5.1-5.6-7.5-7.2-2.4-1.7-4.9-2.5-7.6-2.5-2.4 0-4.4.6-6.1 1.7-1.7 1.1-3.1 2.6-4.2 4.5s-1.9 4-2.3 6.3c-.5 2.4-.7 4.7-.7 7.2 0 2.6.2 5.1.6 7.6.4 2.5 1.1 4.6 2.1 6.6 1 1.9 2.3 3.5 4 4.6 1.7 1.2 3.7 1.7 6.2 1.7 1.2 0 2.5-.2 3.6-.5 1.2-.3 2.4-.9 3.6-1.7 1.2-.8 2.5-1.8 3.9-3.1 1.3-1.3 2.8-2.8 4.3-4.7v-20.5h.1zm51.1 21.4c0 2.2-.4 4.3-1.2 6-.8 1.8-2 3.3-3.6 4.5-1.5 1.2-3.4 2.2-5.5 2.9-2.1.7-4.5 1-7.1 1-1.6 0-3.2-.1-4.6-.4-1.5-.3-2.8-.6-3.9-1-1.2-.4-2.2-.8-3-1.3-.8-.4-1.4-.8-1.8-1.2-.4-.3-.7-.8-.8-1.3-.2-.5-.3-1.2-.3-2.1 0-.4 0-.8.1-1.2l.3-.9c.1-.2.2-.4.4-.5.2-.1.4-.2.6-.2.4 0 .9.2 1.7.7.7.5 1.6 1 2.7 1.6 1.1.6 2.4 1.1 3.9 1.6s3.2.7 5.2.7c1.6 0 3-.2 4.4-.5 1.3-.3 2.5-.9 3.4-1.6 1-.7 1.7-1.6 2.3-2.7.5-1.1.8-2.4.8-3.8 0-1.5-.3-2.7-1-3.7s-1.6-1.9-2.7-2.6c-1.1-.7-2.4-1.4-3.8-2-1.4-.6-2.9-1.2-4.4-1.8-1.5-.6-3-1.3-4.4-2-1.4-.7-2.7-1.6-3.8-2.6-1.1-1-2-2.3-2.7-3.7-.7-1.5-1-3.2-1-5.2 0-1.6.3-3.2.9-4.8.6-1.6 1.6-3 2.9-4.2 1.3-1.2 3-2.2 5-3 2-.8 4.4-1.1 7.2-1.1 1.2 0 2.3.1 3.5.3 1.2.2 2.2.4 3.2.8 1 .3 1.8.6 2.5 1s1.2.7 1.6 1c.4.3.6.5.7.7l.3.6c.1.2.1.5.1.8 0 .3.1.6.1 1.1 0 .4 0 .8-.1 1.1-.1.3-.1.6-.2.9-.1.2-.2.4-.4.5-.2.1-.3.2-.5.2-.3 0-.7-.2-1.2-.6-.6-.4-1.3-.8-2.2-1.2-.9-.4-2-.9-3.2-1.2-1.2-.4-2.7-.6-4.3-.6-1.6 0-3.1.2-4.3.6-1.2.4-2.2.9-3 1.6-.8.7-1.4 1.5-1.8 2.4-.4.9-.6 2-.6 3.1 0 1.5.3 2.8 1 3.8s1.6 1.9 2.8 2.7c1.1.8 2.4 1.4 3.9 2 1.5.6 2.9 1.2 4.4 1.8 1.5.6 3 1.2 4.4 1.9 1.5.7 2.8 1.6 3.9 2.6s2.1 2.2 2.8 3.6c.1 1.3.4 2.9.4 4.9z" fill="#707070"/></svg>