<svg id="Capa_1" xmlns="http://www.w3.org/2000/svg" viewBox="0 0 475 210"><style>.st0{fill:#f77e00}.st1{fill:#f99926}.st2{fill:#ffca00}.st3{fill:#ffd235}.st4{fill:#ffd028}.st5{fill:#f6ae00}.st6{fill:#eb6d00}.st7,.st8{opacity:.1;fill:url(#SVGID_1_);enable-background:new}.st8{fill:url(#SVGID_2_)}.st9{fill:#767677}</style><title>integration-tile</title><path class="st0" d="M137.1 171.8h-36.3v-127c-.1-5.6 4.3-10.3 10-10.5h26.3c5.8 0 10.5 4.7 10.5 10.5v116.5c-.1 5.8-4.8 10.5-10.5 10.5z"/><path class="st1" d="M137.1 35.2h-25.9c-9.3 0-10.5 9.6-10.5 9.6-.2-5.6 4.3-10.3 9.9-10.5h26.5c5.8 0 10.5 4.7 10.5 10.5 0 0-1.6-9.6-10.5-9.6z"/><path class="st2" d="M64.2 77.8c-5.8 0-10.5 4.7-10.5 10.5v36.6h-33c-5.8-.1-10.6 4.6-10.7 10.4v25.8c0 5.9 4.8 10.7 10.7 10.7h80v-94H64.2z"/><path class="st3" d="M53.7 124.9h-33c-5.8-.1-10.6 4.6-10.7 10.4v.1s1.4-9.6 10.7-9.6h32.9v-.9z"/><path class="st4" d="M64.2 78.8h36.6v-1H64.2c-5.8 0-10.5 4.7-10.5 10.5 0 0 1-9.5 10.5-9.5z"/><path class="st5" d="M100.8 171.8H20.6c-5.8 0-10.5-4.7-10.6-10.5 0 0 1.7 9.6 10.6 9.6h80.1l.1.9z"/><path class="st6" d="M100.8 170.9h36.3c9.3 0 10.5-9.6 10.5-9.6.2 5.6-4.3 10.3-9.9 10.5h-36.9v-.9z"/><linearGradient id="SVGID_1_" gradientUnits="userSpaceOnUse" x1="110.773" y1="40.785" x2="139.925" y2="40.785" gradientTransform="translate(0 84)"><stop offset="0" stop-opacity=".7"/><stop offset="1" stop-opacity="0"/></linearGradient><path class="st7" d="M137.1 171.8h-36.3v-94l46.8 47.1v36.5c-.1 5.7-4.8 10.4-10.5 10.4z"/><linearGradient id="SVGID_2_" gradientUnits="userSpaceOnUse" x1="101.901" y1="40.769" x2="105.184" y2="40.769" gradientTransform="translate(0 84)"><stop offset="0" stop-opacity=".25"/><stop offset=".77" stop-opacity="0"/></linearGradient><path class="st8" d="M106.1 171.8h-5.3v-94l4.9 5z"/><path class="st9" d="M265.7 56.6H235v9.1h21.8C255.7 78.5 245.1 84 235.1 84c-13.2.1-24-10.6-24-23.8v-.5c-.2-13.2 10.3-24.1 23.5-24.4h.5c6.1 0 12 2.4 16.4 6.6l6.4-6.6c-6.2-6-14.5-9.2-23.1-9.1-18.5.1-33.3 15.2-33.2 33.7s15.2 33.3 33.7 33.2c17.9 0 31-12.3 31-30.4 0-2.1-.1-4.1-.6-6.1zm25.2-6.5c-11.7-.2-21.3 9.2-21.6 20.9v.4c-.1 11.9 9.5 21.6 21.4 21.7 11.9.1 21.6-9.5 21.7-21.4.1-14.3-11.1-21.6-21.5-21.6zm.1 8.5c6.2 0 12.1 5 12.1 13.1s-5.8 13-12.1 13c-6.9 0-12.3-5.5-12.3-13.1s5.3-13 12.2-13h.1zm46.8-8.5c-11.7-.2-21.3 9.2-21.6 20.9v.4c-.1 11.9 9.5 21.6 21.4 21.7 11.9.1 21.6-9.5 21.7-21.4.1-14.3-11.1-21.6-21.5-21.6zm.2 8.5c6.2 0 12.1 5 12.1 13.1s-5.8 13-12.1 13c-6.9 0-12.3-5.5-12.3-13.1 0-7.7 5.3-13.1 12.3-13zm45.9-8.5c-11.6 0-20.6 10.1-20.6 21.5-.2 11.6 8.9 21.1 20.5 21.5 4.5.2 8.9-1.7 11.8-5.2v4.2c0 7.4-4.5 11.9-11.3 11.9-4.9-.1-9.3-3.1-11-7.6l-8.3 3.4c2.9 6.2 8.8 12.7 19.3 12.7 11.5 0 20.3-7.2 20.3-22.4V51.4h-9v3.7c-3-3.3-7.3-5.1-11.7-5zm.9 8.4c5.7 0 11.5 4.8 11.5 13.1s-5.8 13-11.6 13c-6.2 0-11.9-5-11.9-12.9-.1-8.3 5.9-13.1 12-13.2zm59.8-8.5c-10.9 0-20 8.7-20 21.5-.4 11.5 8.5 21.1 20 21.5h1.1c7.2 0 13.9-3.5 18-9.4l-7.4-5c-2.2 3.7-6.2 6-10.5 5.9-4.5.2-8.7-2.4-10.5-6.5l28.8-12-1.5-3.5c-2.9-7.3-10-12.3-18-12.5zm.3 8.3c3.3-.1 6.4 1.7 8 4.6l-19.3 8c-.8-6.2 5.1-12.6 11.3-12.6zm-34.1 33.5h9.5V28.5h-9.5v63.3zm-204.5 79.7h-6l15.8-41.8h6.1l15.7 41.8h-6l-4-11.4h-17.5l-4.1 11.4zm12.7-35.2l-6.8 18.9H226l-6.8-18.9h-.2zm22.6 6.6h5.1v4h.2c.9-1.5 2.2-2.7 3.8-3.5 1.6-.9 3.4-1.4 5.3-1.4 3-.2 5.9.9 8.1 3 2 2.4 3 5.4 2.8 8.6v18h-5.4v-17.7c-.1-4.7-2.5-7-7.1-7-2.1 0-4.1.9-5.4 2.6-1.4 1.7-2.2 4-2.2 6.2v15.9h-5.4l.2-28.7zm41.9-1c3.4-.2 6.8.9 9.4 3.2 2.4 2.3 3.6 5.5 3.4 8.7v17.7h-5.1v-4h-.3c-1.9 3.1-5.2 5-8.9 5-2.9.1-5.7-.9-7.9-2.8-2.1-1.7-3.2-4.3-3.2-7-.1-2.8 1.1-5.4 3.3-7.1 2.6-1.9 5.8-2.8 9-2.6 2.7-.1 5.4.5 7.9 1.7v-1.2c0-1.8-.8-3.6-2.2-4.8-1.4-1.3-3.3-2-5.2-2-2.9-.1-5.6 1.4-7.1 3.8l-4.7-3c2.5-3.7 7-5.9 11.6-5.6zm-6.9 20.8c0 1.4.7 2.7 1.8 3.5 1.2.9 2.7 1.4 4.2 1.4 2.3 0 4.4-.9 6-2.5 1.7-1.5 2.7-3.6 2.7-5.9-2-1.4-4.5-2.1-7-2-1.9-.1-3.9.5-5.5 1.6-1.4.8-2.2 2.3-2.2 3.9zm30.9-33v41.9h-5.4v-41.8l5.4-.1zm31.8 13.2l-17.9 41.2h-5.6l6.6-14.4-11.8-26.8h5.8l8.5 20.5h.1l8.3-20.5h6zm14.6 29c-2.1.1-4.2-.7-5.8-2.2-1.6-1.6-2.5-3.8-2.4-6v-16h-5v-5h5V134h5.4v8.8h7v5h-7V162c-.2 1.4.2 2.8 1.1 3.9.7.6 1.6 1 2.5 1 .4 0 .8-.1 1.2-.1.4-.1.8-.2 1.1-.4l1.7 4.8c-1.5.5-3.1.7-4.8.7zm16.2-38.9c0 2.1-1.7 3.8-3.8 3.8-2.1 0-3.8-1.7-3.8-3.8 0-2.1 1.7-3.8 3.8-3.8 1 0 2 .4 2.7 1.1.7.7 1.1 1.7 1.1 2.7zm-1.1 9.9v28.7h-5.4v-28.7h5.4zm19.5 29.5c-4 .1-7.8-1.5-10.6-4.3-2.8-3-4.3-6.9-4.1-10.9-.1-4 1.4-8 4.1-10.9 2.8-2.9 6.6-4.4 10.6-4.3 5.5-.2 10.6 3.1 12.6 8.3l-5 2c-1.2-3.4-4.4-5.5-8-5.4-2.5 0-4.8 1.1-6.4 3-3.5 4.3-3.5 10.4 0 14.7 1.6 1.9 3.9 3 6.4 3 3.6.2 7-2 8.3-5.4l4.8 2c-1 2.5-2.7 4.6-5 6-2.3 1.5-5 2.2-7.7 2.2zm39-8.9c0 2.5-1.3 4.9-3.3 6.3-2.4 1.8-5.3 2.7-8.3 2.6-2.7.1-5.4-.7-7.6-2.2-2.1-1.4-3.7-3.5-4.6-5.9l4.8-2c.6 1.6 1.7 3 3.1 4 1.3.9 2.8 1.4 4.4 1.4 1.5.1 3-.3 4.3-1.1 1-.5 1.6-1.5 1.7-2.6 0-1.8-1.4-3.2-4.2-4l-5-1.2c-5.5-1.4-8.3-4.1-8.3-8.1-.1-2.5 1.1-4.9 3.2-6.3 4.5-2.9 10.2-3.1 14.9-.5 1.9 1.1 3.5 2.8 4.3 4.8l-4.8 2c-.6-1.2-1.5-2.2-2.7-2.8-1.3-.7-2.7-1-4.1-1-1.3 0-2.6.3-3.8 1-1 .5-1.6 1.5-1.7 2.6 0 1.6 1.5 2.8 4.6 3.5l4.3 1.1c5.9 1.2 8.8 4.1 8.8 8.4z"/></svg>