<svg xmlns="http://www.w3.org/2000/svg" width="256" height="256" viewBox="0 0 256 256"><linearGradient id="a" gradientUnits="userSpaceOnUse" x1="-181.564" y1="107.658" x2="423.647" y2="107.658" gradientTransform="matrix(.5153 .5536 -.732 .6813 156.433 -28.395)"><stop offset="0" stop-color="#010b29"/><stop offset="1" stop-color="#1178b0"/></linearGradient><linearGradient id="b" gradientUnits="userSpaceOnUse" x1="-182.064" y1="107.658" x2="424.147" y2="107.658" gradientTransform="matrix(.5153 .5536 -.732 .6813 156.433 -28.395)"><stop offset="0" stop-color="#fff"/><stop offset="1"/></linearGradient><path fill="url(#a)" stroke="url(#b)" stroke-miterlimit="10" d="M62.133 497.125l-311.876-335.072 467.622-435.236L529.748 61.886z"/><path fill="#FFF" d="M156.605 129.169c17.784 3.47 31.205 17.838 31.205 34.731 0 19.438-17.765 35.531-39.501 35.531H89.581c-1.254 0-2.09-.836-2.09-2.091l.102-64.989-.102-.01.105-1.992.104-66.559c0-1.254.836-2.09 2.09-2.09l49.951-.209c21.944 0 39.71 16.093 39.71 35.53 0 14.095-9.342 26.432-22.846 32.148zm-64.833-.597l47.969-.201c19.437 0 35.529-14.003 35.529-31.35s-16.093-31.35-35.529-31.35h-48.07l.101 62.901zm.007 3.979l.101 62.909 56.43-.209c19.229 0 35.321-14.003 35.321-31.351 0-17.346-16.093-31.35-35.321-31.35H91.779z"/></svg>