<svg xmlns="http://www.w3.org/2000/svg" viewBox="0 0 511.988 511.988"><g fill="#dbada2"><path d="M319.805 106.56c0 17.624-14.281 31.905-31.906 31.905-17.623 0-31.912-14.281-31.912-31.905 0-17.625 14.289-31.905 31.912-31.905 17.624 0 31.906 14.28 31.906 31.905z"/><path d="M255.986 159.996l42.662-23.374-21.328-60.154-187.814 83.528z"/></g><path d="M282.648 287.993h197.34c17.672 0 32-14.312 32-31.999s-14.328-32-32-32h-197.34a5.328 5.328 0 0 1-5.328-5.344c0-2.937 2.391-5.312 5.328-5.312h165.34c17.672 0 32-14.344 32-31.999 0-17.688-14.328-32-32-32H143.996C64.467 149.339 0 213.807 0 293.336c0 79.467 64.365 143.871 143.809 143.996h-.07H383.99c28.344 0 42.656-14.343 42.656-31.999 0-17.688-14.312-31.999-32-31.999H282.648c-2.938 0-5.328-2.406-5.328-5.344s2.391-5.344 5.328-5.344h165.34c17.672 0 32-14.312 32-31.999 0-17.656-14.328-32-32-32h-165.34c-2.938 0-5.328-2.374-5.328-5.312a5.328 5.328 0 0 1 5.328-5.342z" fill="#eac6bb"/><path d="M309.039 437.333L171.738 295.556 305.07 153.778l3.938-4.438H143.996C64.467 149.34 0 213.808 0 293.337c0 79.467 64.365 143.871 143.809 143.996h-.07 165.3z" fill="#e6e9ed"/><path d="M20.679 367.71l218.393-218.37h-30.163L10.601 347.648a143.379 143.379 0 0 0 10.078 20.062zm123.317-218.37c-7.523 0-14.906.562-22.109 1.688L1.687 271.213A145.483 145.483 0 0 0 0 293.337c0 3.156.109 6.312.312 9.437L153.746 149.34h-9.75zm149.793 287.993h30.172L180.183 293.556 324.398 149.34h-30.156L45.35 398.209a145.132 145.132 0 0 0 16.671 13.5l17.75-17.75 41.577 41.593c7.312 1.156 14.812 1.75 22.46 1.781h-.07 9.555l-58.436-58.437 27.577-27.592 86.021 86.028h30.171L137.52 336.211l27.577-27.562 128.692 128.684z" fill="#ccd1d9"/></svg>