<svg xmlns="http://www.w3.org/2000/svg" viewBox="0 0 512 512"><path d="M458.672 138.656C458.672 62.078 396.578 0 320 0c-23.094 0-44.859 5.641-64 15.625C236.844 5.641 215.078 0 192 0 115.422 0 53.328 62.078 53.328 138.656c0 21.047 4.703 40.984 13.078 58.844l41.781 90.5c-10 32 6.281 224 73.141 224 21.031 0 54.047-178.484 74.656-178.625C276.594 333.219 309.609 512 330.641 512c66.859 0 83.141-192 73.141-224l41.812-90.5c8.375-17.859 13.078-37.797 13.078-58.844z" fill="#e6e9ed"/><path d="M330.641 490.656c-21.031 0-54.047-178.766-74.656-178.625-20.609.156-53.625 178.625-74.656 178.625-52.031 0-73.438-116.281-75.656-182.938C103.25 366.516 123.125 512 181.328 512c21.031 0 54.047-178.484 74.656-178.625C276.594 333.219 309.609 512 330.641 512c58.203 0 78.078-145.484 75.656-204.281-2.219 66.656-23.625 182.937-75.656 182.937zM87.953 47.016S123.125 36.313 192 42.657c22.984 2.125 44.844 5.656 64 15.641V15.625C236.844 5.641 215.078 0 192 0c-41.453 0-78.641 18.188-104.047 47.016zm336.094 0S388.875 36.313 320 42.657c-22.984 2.125-44.859 5.656-64 15.641V15.625C275.141 5.641 296.906 0 320 0c41.453 0 78.641 18.188 104.047 47.016z" fill="#ccd1d9"/></svg>