<svg xmlns="http://www.w3.org/2000/svg" viewBox="0 0 413.139 413.139"><path d="M269.407 230.746c-8.796 23.166-6.542 49.125-4.362 74.23 2.474 28.501 4.812 55.421-10.244 72.405-11.894 13.418-34.224 20.499-68.266 21.646-33.74 1.135-57.174-6.325-69.639-22.181-22.503-28.623-7.75-81.529 2.014-116.538 3.163-11.342 5.716-20.501 6.853-27.659a96.28 96.28 0 0 1-4.652.124 95.711 95.711 0 0 1-9.497-.495c-1.21 6.409-3.65 15.165-6.189 24.269-10.522 37.731-26.423 94.75.466 128.952 14.43 18.357 39.355 27.64 74.155 27.64 2.276 0 4.6-.04 6.96-.119 38.089-1.284 63.692-9.903 78.271-26.352 19.046-21.487 16.336-52.709 13.714-82.903-3.5-40.312-6.836-78.774 33.642-101.724a48.245 48.245 0 0 1-7.094-12.045c-17.672 10.072-29.606 23.561-36.132 40.75z" fill="#2b3237"/><path d="M125.762 232.65c40.685-2 67.764-29.283 70.666-42.776-17.497 13.678-40.062 21.201-67.264 22.412-.871.188-1.77.294-2.692.301-.461.004-.923.004-1.382.004-32.965 0-59.611-8.704-79.218-25.882-.069-.061-.133-.125-.202-.186a3.757 3.757 0 0 0-.155 1.097c0 11.943 25.776 40.608 66.098 44.658a95.68 95.68 0 0 0 9.497.495c1.571 0 3.119-.048 4.652-.123z" fill="#c3bfb8"/><path d="M31.705 109.779c-.09-1.935-.152-3.879-.152-5.844 0-31.167 12.046-63.869 34.742-76.363-3.511-2.379-5.962-6.344-6.427-10.942-8.936 5.117-16.866 12.858-23.324 22.961-11.106 17.375-17.223 40.227-17.223 64.344 0 2.982.107 5.934.295 8.858 1.956-1.723 4.374-2.911 7.087-3.29a13.187 13.187 0 0 1 5.002.276zm187.887-.399c2.713.378 5.131 1.567 7.087 3.291.188-2.925.295-5.877.295-8.859 0-24.117-6.116-46.969-17.222-64.344-6.458-10.104-14.388-17.845-23.324-22.962-.465 4.599-2.915 8.563-6.426 10.943 22.695 12.495 34.741 45.197 34.741 76.363 0 1.964-.062 3.909-.152 5.844a13.165 13.165 0 0 1 5.001-.276z" fill="#2b3237"/><path d="M125.091 212.592c.458 0 .92 0 1.382-.004a13.146 13.146 0 0 0 2.692-.301c27.202-1.211 49.767-8.734 67.264-22.412a93.092 93.092 0 0 0 3.995-3.289c17.307-15.163 28.08-36.158 31.155-60.715.649-5.183-1.357-10.08-4.899-13.2-1.956-1.723-4.374-2.912-7.087-3.291a13.179 13.179 0 0 0-5 .275c-5.474 1.356-9.853 6.139-10.632 12.368-4.904 39.156-35.528 61.416-83.941 61.055l-.099-.001c-.083 0-.165.012-.247.014-44.579-1.645-72.658-23.603-77.334-60.943-.78-6.229-5.158-11.011-10.632-12.368a13.185 13.185 0 0 0-5.001-.275c-2.713.378-5.132 1.567-7.087 3.29-3.542 3.121-5.548 8.018-4.899 13.201 3.063 24.459 13.767 45.38 30.953 60.529.069.061.133.125.202.186 19.603 17.177 46.249 25.881 79.215 25.881z" fill="#e0dcd3"/><path d="M65.295 27.572c2.201 1.492 4.813 2.368 7.624 2.368 7.805 0 21.2-6.674 21.2-14.907S80.724.125 72.919.125c-7.806 0-14.134 6.675-14.134 14.908 0 .54.03 1.072.083 1.597.465 4.598 2.915 8.563 6.427 10.942zm122.133-11.067c.053-.525.083-1.057.083-1.597C187.511 6.675 181.183 0 173.377 0s-21.201 6.675-21.201 14.908c0 8.234 13.395 14.908 21.201 14.908 2.811 0 5.423-.876 7.625-2.368 3.511-2.38 5.961-6.344 6.426-10.943z" fill="#e6a123"/><path d="M350.262 123.535c-26.663 0-48.276 21.614-48.276 48.276 0 6.436 1.27 12.571 3.555 18.186a48.228 48.228 0 0 0 7.094 12.045c8.849 11 22.412 18.045 37.628 18.045 26.663 0 48.276-21.614 48.276-48.276s-21.614-48.276-48.277-48.276zm0 87.84c-21.851 0-39.564-17.714-39.564-39.564 0-21.851 17.714-39.564 39.564-39.564s39.564 17.713 39.564 39.564c0 21.85-17.713 39.564-39.564 39.564z" fill="#e0dcd3"/><path d="M350.262 132.246c-21.851 0-39.564 17.713-39.564 39.564s17.714 39.564 39.564 39.564 39.564-17.714 39.564-39.564-17.713-39.564-39.564-39.564zm0 58.306c-10.351 0-18.741-8.391-18.741-18.741s8.391-18.741 18.741-18.741c10.351 0 18.741 8.392 18.741 18.741 0 10.35-8.39 18.741-18.741 18.741z" fill="#f7f1e6"/><circle cx="350.262" cy="171.811" r="19.561" fill="#2b3237"/></svg>