<svg xmlns="http://www.w3.org/2000/svg" viewBox="0 0 429.294 429.294"><path d="M289.369 318.437l-67.365-67.365-93.274 93.274 67.365 67.365.043-.043c25.866 24.045 66.326 23.494 91.504-1.684s25.729-65.638 1.684-91.503l.043-.044z" fill="#faa"/><path d="M154.639 183.706l-.043.043c-25.866-24.045-66.326-23.494-91.504 1.684-25.178 25.177-25.729 65.638-1.684 91.504l-.043.043 67.366 67.365 93.274-93.274-67.366-67.365z" fill="#f9f9e9"/><path d="M233.199 17.583l-.043.043C207.29-6.419 166.83-5.868 141.652 19.31s-25.729 65.638-1.684 91.504l-.043.043 67.365 67.365 93.274-93.275-67.365-67.364z" fill="#faa"/><path d="M367.886 152.356l.044-.044-67.366-67.365-93.274 93.275 67.365 67.366.043-.044c25.866 24.045 66.326 23.494 91.504-1.684 25.178-25.178 25.729-65.638 1.684-91.504z" fill="#f9f9e9"/></svg>