<svg xmlns="http://www.w3.org/2000/svg" width="271.084" height="271.082" viewBox="0 0 271.08374 271.08249"><path d="M176.08 201.036c-3.429-10.056-8.964-28.748-19.305-33.225-10.339-4.476-16.284-10.753-17.28-14.381-.76-2.771.722-11.139 1.464-14.936a3.102 3.102 0 0 1 2.797-2.493c2.263-.195 6.565-.081 14.62 1.283 15.166 2.57 9.213-5.491 18.48-5.285 7.623.17 8.224-12.296 8.198-16.731a.42.42 0 0 1 .778-.225c2.172 3.515 8.003 13.16 9.445 17.657 0 0 6.935.608 11.108 3.949 0 0 17.739-16.77 20.961-15.646 3.223 1.125 3.853 8.723 1.891 14.45-1.96 5.726-6.427 18.128-1.97 24.09 4.458 5.96 13.835 16.73 22.727 21.627 3.771 2.078 5.532 3.771 7.071 5.618 7.779-.227 14.019-6.59 14.019-14.422V98.718c0-7.978-6.468-14.444-14.444-14.444h-69.83v-69.83C186.81 6.466 180.342 0 172.366 0H98.717C90.74 0 84.274 6.466 84.274 14.444v69.83h-69.83C6.467 84.274 0 90.74 0 98.718v73.648c0 7.977 6.467 14.444 14.444 14.444h8.293c3.664-4.824 7.13-10.254 10.422-16.441 14.671-27.574 18.6-20.46 23.781-30.13 5.182-9.67 2.44-20.153 9.616-24.83 7.178-4.679 14.781 21.592 15.658 14.729.593-4.664 6.952-8.29 10.965-10.133 1.063-.489 2.168.59 1.705 1.665-1.619 3.751-3.072 9.855 3.676 11.343 9.92 2.187 23.892 15.418 26.076 19.975 1.723 3.596 7.336 9.022 9.621 11.147a3.785 3.785 0 0 1 1.212 2.406c.268 2.793.08 8.772-5.724 11.905-7.739 4.178-4.433 9.733-13.668 8.357-3.556-.53-8.958 1.848-14.398 5.415-10.875 7.132-17.405 19.29-17.405 32.295v32.126c0 7.977 6.466 14.444 14.443 14.444h73.65c7.975 0 14.443-6.467 14.443-14.444v-2.918c0-14.465-2.433-28.833-7.223-42.481-1.547-4.406-2.756-8-3.507-10.204" fill="#fafaf5"/></svg>