<svg xmlns="http://www.w3.org/2000/svg" width="81.45" height="30.752" viewBox="0 0 81.449998 30.752401"><path d="M81.45.002c-.45-.3-31.95 27.6-31.95 27.6-7.35 4.2-10.05 4.2-17.55 0 0 0-31.5-27.9-31.95-27.6h81.45z" fill="#294f6c"/><path d="M37.95 6.002c-2.4.75-3.6 2.4-3.6 4.65 1.5.45 3 1.65 3 3.6v.45c0 1.95-1.35 3.45-3.6 3.45s-3.75-1.8-3.75-4.65v-.45c0-3.6.9-6 2.55-7.65 1.35-1.35 3.45-2.25 4.95-2.25 1.05 0 1.65.6 1.65 1.5.15.75-.45 1.2-1.2 1.35zm12.15 0c-2.4.75-3.6 2.4-3.6 4.65 1.5.45 3 1.65 3 3.6v.45c0 1.95-1.35 3.45-3.6 3.45s-3.75-1.8-3.75-4.65v-.45c0-3.6.9-6 2.55-7.65 1.35-1.35 3.45-2.25 4.95-2.25 1.05 0 1.65.6 1.65 1.5.15.75-.45 1.2-1.2 1.35z" fill="#fff" fill-opacity=".941"/></svg>